<?xml version="1.0" encoding="UTF-8" standalone="no"?>
<!DOCTYPE svg PUBLIC "-//W3C//DTD SVG 1.1//EN" "http://www.w3.org/Graphics/SVG/1.1/DTD/svg11.dtd">
<svg width="100%" height="100%" viewBox="0 0 256 256" version="1.1" xmlns="http://www.w3.org/2000/svg" xmlns:xlink="http://www.w3.org/1999/xlink" xml:space="preserve" xmlns:serif="http://www.serif.com/" style="fill-rule:evenodd;clip-rule:evenodd;stroke-linecap:round;stroke-linejoin:round;stroke-miterlimit:79.8403;">
    <rect id="Artboard1" x="0" y="0" width="256" height="256" style="fill:none;"/>
    <g>
        <g>
            <path d="M114.043,36.91C104.211,47.17 107.147,63.818 110.879,74.558C115.319,87.278 122.107,97.838 130.587,107.978C145.183,125.438 170.539,145.778 195.419,148.39C204.431,149.318 211.583,149.05 218.959,142.09C219.083,141.97 219.207,141.85 219.331,141.73C231.107,130.03 225.719,109.87 220.699,98.23C214.491,83.798 205.751,72.158 194.823,61.21C183.911,50.29 172.259,41.558 157.883,35.35C146.239,30.31 126.067,24.878 114.347,36.61C114.239,36.698 114.143,36.818 114.043,36.91ZM185.903,128.618C166.775,126.638 147.335,109.27 137.563,94.93C131.651,86.258 127.135,78.13 127.199,66.79C127.295,54.158 135.939,48.398 147.819,49.658C166.963,51.67 186.395,69.01 196.175,83.35C202.079,92.018 206.607,100.15 206.527,111.49C206.443,124.118 197.799,129.878 185.903,128.618Z" style="fill:rgb(191,110,0);"/>
            <path d="M185.943,128.59C197.843,129.85 206.479,124.058 206.579,111.458C206.651,100.118 202.135,91.99 196.235,83.318C186.447,68.95 167.011,51.61 147.871,49.598C135.979,48.338 127.343,54.13 127.247,66.758C127.167,78.07 131.683,86.198 137.595,94.87C147.367,109.21 166.803,126.578 185.943,128.59Z" style="fill:url(#_Linear1);"/>
            <path d="M195.467,148.33C170.591,145.718 145.235,125.41 130.635,107.95C122.155,97.778 115.355,87.218 110.927,74.47C107.183,63.758 104.263,47.11 114.095,36.85C90.115,60.85 66.143,84.818 42.167,108.79C36.243,114.73 31.019,119.95 29.887,129.038C28.727,138.25 30.723,146.078 33.851,154.33C39.919,170.35 49.227,182.89 61.091,194.77C72.975,206.678 85.535,216.01 101.567,222.13C109.703,225.218 117.463,227.198 126.539,226.178C135.739,225.13 141.079,219.97 147.095,213.938C171.067,189.998 195.043,165.998 219.015,142.03C211.627,149.018 204.471,149.29 195.467,148.33Z" style="fill:url(#_Linear2);"/>
            <path d="M55.583,188.83L52.679,185.71C46.091,177.938 40.571,169.658 36.275,160.178L35.055,157.238L112.923,79.358L114.679,83.65C118.855,92.47 124.271,100.33 130.635,107.95L133.391,111.01L55.583,188.83Z" style="fill:rgb(255,207,175);"/>
            <path d="M61.099,194.77C49.227,182.89 39.923,170.35 33.851,154.298C30.723,146.078 28.735,138.25 29.891,129.038C31.035,119.95 36.243,114.73 42.167,108.79C66.143,84.818 114.295,36.67 114.395,36.578C126.123,24.818 146.279,30.278 157.935,35.29C172.307,41.53 183.959,50.258 194.871,61.178C205.803,72.098 214.539,83.77 220.739,98.17C225.763,109.838 231.159,129.97 219.375,141.67C219.263,141.79 171.079,189.97 147.107,213.938C141.079,219.97 135.731,225.13 126.539,226.15C117.475,227.198 109.703,225.218 101.567,222.13C85.547,216.01 72.975,206.678 61.099,194.77Z" style="fill:none;stroke:rgb(47,0,0);stroke-width:9.32px;"/>
            <path d="M205.775,117.938C205.139,120.098 204.051,121.99 202.527,123.518C193.023,132.998 169.615,125.05 150.275,105.73C130.943,86.378 122.991,62.978 132.495,53.47C134.255,51.73 136.483,50.558 139.079,49.958" style="fill:none;stroke:rgb(25,0,0);stroke-width:9.32px;stroke-linecap:butt;stroke-linejoin:miter;"/>
        </g>
    </g>
    <defs>
        <linearGradient id="_Linear1" x1="0" y1="0" x2="1" y2="0" gradientUnits="userSpaceOnUse" gradientTransform="matrix(53.3765,55.4434,-47.6071,45.8323,142.834,61.0059)"><stop offset="0" style="stop-color:rgb(168,74,0);stop-opacity:1"/><stop offset="1" style="stop-color:rgb(225,151,0);stop-opacity:1"/></linearGradient>
        <linearGradient id="_Linear2" x1="0" y1="0" x2="1" y2="0" gradientUnits="userSpaceOnUse" gradientTransform="matrix(-92.6432,-98.43,98.43,-92.6432,162.755,191.649)"><stop offset="0" style="stop-color:rgb(168,74,0);stop-opacity:1"/><stop offset="1" style="stop-color:rgb(225,151,0);stop-opacity:1"/></linearGradient>
    </defs>
</svg>
