<?xml version="1.0" encoding="UTF-8" standalone="no"?><!DOCTYPE svg PUBLIC "-//W3C//DTD SVG 1.1//EN" "http://www.w3.org/Graphics/SVG/1.1/DTD/svg11.dtd"><svg width="100%" height="100%" viewBox="0 0 384 384" version="1.1" xmlns="http://www.w3.org/2000/svg" xmlns:xlink="http://www.w3.org/1999/xlink" xml:space="preserve" xmlns:serif="http://www.serif.com/" style="fill-rule:evenodd;clip-rule:evenodd;stroke-miterlimit:79.8403;"><rect id="Artboard1" x="0" y="0" width="384" height="384" style="fill:none;"/><g id="Artboard11" serif:id="Artboard1"><path d="M0,384l112.5,0l0,-61.207l-51.697,0l0,-261.586l51.697,0l0,-61.207l-112.5,0l0,384Z" style="fill:url(#_Linear1);"/><g id="Layer-1" serif:id="Layer 1"><rect x="30.2" y="30.603" width="323.6" height="322.793"/><path d="M154.134,237.182c-1.903,-6.019 -5.123,-12.545 -12.613,-22.073c-5.034,-6.406 -11.99,-14.157 -19.647,-20.419c-7.657,-6.259 -16.019,-11.031 -24.096,-13.873c-8.08,-2.84 -15.878,-3.753 -23.225,-3.59c-7.351,0.163 -14.246,1.4 -18.735,2.49c-4.404,1.069 -6.717,2.109 -8.092,-1.022c-1.319,-3.002 -1.826,-9.897 -0.628,-18.185c1.164,-8.054 3.398,-12.73 5.828,-15.168c2.446,-2.457 5.068,-2.614 9.354,-2.589c4.296,0.028 10.339,0.245 18.147,1.645c2.157,0.388 4.451,0.866 6.868,1.474l7.414,2.195l1.429,-5.608c3.003,-12.702 3.049,-19.866 3.036,-24.786l-0.397,-11.197l-1.189,-5.98l-2.325,-7.031l-0.991,-2.3c-1.241,-2.609 -3.461,-6.384 -8.78,-13.557c-0.36,-0.464 -0.487,-1.152 -0.321,-1.713c0.142,-0.568 0.607,-1.096 1.153,-1.311c17.387,-7.257 29.502,-10.08 37.833,-11.541c8.633,-1.512 13.293,-1.586 16.302,1.099c2.991,2.668 4.289,8.014 4.819,14.878c0.532,6.89 0.295,15.376 -2.246,27.952c-2.194,10.856 -6.106,24.756 -21.422,46.52c-2.224,2.585 -1.346,7.954 1.59,9.693l2.418,1.822c2.475,2.326 7.835,1.713 9.728,-1.12c11.802,-14.458 15.014,-21.142 17.006,-25.378l3.743,-8.431l2.664,-6.827c1.176,-3.121 2.752,-7.423 4.635,-16.052c1.713,-7.852 3.675,-19.273 3.221,-30.609c-0.026,-0.349 0.07,-0.721 0.252,-1.047l0.762,-0.765l1.037,-0.256c0.373,0.011 0.742,0.119 1.028,0.322c9.926,6.491 19.545,17.858 26.126,27.932c7.248,11.096 10.817,20.636 12.968,27.656c2.146,7.006 2.89,11.546 2.048,14.872c-0.852,3.358 -3.32,5.445 -13.6,12.087c-9.222,5.958 -20.684,13.409 -45.494,22.004c-0.91,0.295 -3.194,3.646 -3.52,4.64c-0.355,0.954 -0.276,4.337 0.261,5.151c4.533,7.173 5.867,11.928 7.853,18.227c3.165,10.041 3.365,17.678 2.622,23.859l-0.984,5.729l-0.66,1.098l-1.178,0.471l-0.019,0.002l-1.221,-0.359l-0.762,-1.031Z" style="fill:#fff;"/><path d="M167.563,195.881c1.171,0.322 6.142,0.658 7.312,0.716c2.642,0.045 3.929,0.315 6.359,0.576l3.388,0.187c0.621,0.212 3.451,0.686 3.468,1.342c0.069,0.652 -3.021,-0.112 -4.587,1.455l-1.399,1.79c-3.344,5.155 1.929,6.504 8.451,10.814c5.997,3.963 12.809,10.929 15.951,4.777c0.368,-0.721 2.171,-2.5 0,-5.035c-0.18,-0.616 -0.474,-1.034 -0.279,-1.398c0.473,-0.435 0.82,-0.833 1.398,-0.56c1.147,0.494 1.381,0.323 2.518,0.28c2.866,-0.111 2.263,-0.745 5.773,-1.975c3.507,-1.231 7.45,-2.013 10.741,-1.79c2.333,0.096 1.354,2.613 -0.184,2.753c-7.502,1.542 -13.801,7.741 -17.11,17.895c-1.101,3.38 -1.521,6.367 -3.129,8.5c-1.606,2.132 -4.402,3.412 -6.613,3.689c-2.21,0.279 -3.834,-0.443 -7.097,-1.866l-2.273,-0.991c-6.906,-2.993 -12.96,-5.628 -15.839,-8.155c-2.878,-2.53 -2.582,-4.951 -2.22,-7.898c0.365,-2.948 0.792,-6.418 0.842,-9.752c0.048,-3.332 0.341,-7.33 -0.715,-9.918c-0.647,-2 -2.876,-2.356 -3.721,-1.138c-0.115,0.167 -0.205,0.362 -0.261,0.588c-0.651,1.302 0.011,7.7 -0.59,12.037c-0.601,4.338 -2.024,10.385 -2.404,14.544c-0.379,4.162 0.287,6.433 3.397,9.043c3.113,2.611 8.672,5.557 15.06,9.101c6.389,3.543 13.606,7.677 20.47,12.136c6.861,4.458 13.367,9.236 18.602,13.587c5.232,4.35 9.191,8.27 13.114,11.816c3.924,3.548 7.808,6.721 10.184,4.137c2.774,-3.021 0.687,-7.285 -2.353,-11.198c-3.039,-3.91 -7.034,-7.468 -12.385,-12.282l-3.052,-2.736c-0.276,-0.207 -0.324,-0.74 -0.088,-0.988c0.189,-0.286 0.719,-0.364 0.981,-0.141l5.008,3.619c4.827,3.6 10.178,7.928 17.931,17.72c0.9,1.334 3.248,1.799 4.588,0.908c12.853,-7.196 18.977,-17.388 17.154,-29.74c0,-2.937 3.776,-6.574 4.895,-8.112c10.456,-12.807 28.347,-23.265 42.476,-37.907c16.943,-17.557 29.803,-39.361 26.798,-41.819c-3.006,-2.456 -21.878,14.437 -37.563,26.037c-15.686,11.603 -28.189,17.91 -36.213,20.497c-8.026,2.585 -11.576,1.446 -14.093,0.02c-2.519,-1.426 -4.005,-3.14 -2.592,-5.08c1.416,-1.938 5.733,-4.1 9.722,-9.337c3.988,-5.235 7.649,-13.545 5.643,-15.304c-2.009,-1.758 -9.685,3.036 -16.405,5.029c-6.719,1.995 -12.483,1.193 -16.254,0.159c-3.771,-1.036 -5.55,-2.301 -7.095,-3.623l-4.103,-4.29l-3.498,-5.415l-3.188,-6.492l-3.374,-6.607l-3.521,-6.925c-0.224,-0.463 -0.709,-0.842 -1.215,-0.945c-0.5,-0.121 -1.101,0.012 -1.504,0.337c-20.61,16.272 -30.898,19.219 -38.375,22.664c-7.356,3.086 -9.9,6.475 -10.844,10.024c-0.595,2.253 -0.523,4.295 -0.08,5.929c0.847,3.373 2.12,4.042 3.992,4.711Z" style="fill:#fff;"/><path d="M253.177,276.645l-5.963,-7.033c-1.543,-2.364 -1.998,-6.01 -0.427,-8.281c1.509,-2.344 5.064,-2.553 7.929,-0.926c2.925,1.568 4.901,4.82 4.88,8.304c-0.022,3.007 -1.056,5.866 -3.568,8.128c-0.382,0.354 -0.949,0.55 -1.468,0.508c-0.517,-0.027 -1.054,-0.299 -1.383,-0.7Z"/><path d="M194.938,206.572c3.597,2.261 5.555,4.351 4.693,6.041c-1.848,3.618 -4.234,0.724 -7.763,-1.607c-3.835,-2.535 -6.221,-3.018 -4.254,-6.048c1.187,-1.831 3.774,-0.613 7.324,1.614Z" style="fill:#b82037;stroke:#000;stroke-width:0.37px;"/></g><path d="M384,0l-112.5,0l0,61.207l51.697,0l0,261.586l-51.697,0l0,61.207l112.5,0l0,-384Z" style="fill:url(#_Linear2);"/><path d="M112.5,30.603l0,27.455l-57.516,0l0,263.776l57.516,0l0,31.563l-82.3,0l0,-322.794l82.3,0Z" style="fill:url(#_Linear3);"/></g><defs><linearGradient id="_Linear1" x1="0" y1="0" x2="1" y2="0" gradientUnits="userSpaceOnUse" gradientTransform="matrix(52.5073,-373.807,373.807,52.5073,27.9199,351.888)"><stop offset="0" style="stop-color:#828282;stop-opacity:1"/><stop offset="1" style="stop-color:#4f4f4f;stop-opacity:1"/></linearGradient><linearGradient id="_Linear2" x1="0" y1="0" x2="1" y2="0" gradientUnits="userSpaceOnUse" gradientTransform="matrix(-52.5073,373.807,-373.807,-52.5073,356.08,32.1122)"><stop offset="0" style="stop-color:#828282;stop-opacity:1"/><stop offset="1" style="stop-color:#4f4f4f;stop-opacity:1"/></linearGradient><linearGradient id="_Linear3" x1="0" y1="0" x2="1" y2="0" gradientUnits="userSpaceOnUse" gradientTransform="matrix(29.1589,-155.729,155.729,29.1589,48.3247,312.17)"><stop offset="0" style="stop-color:#fff;stop-opacity:0.2"/><stop offset="1" style="stop-color:#b3b3b3;stop-opacity:0"/></linearGradient></defs></svg>