<?xml version="1.0" encoding="UTF-8" standalone="no"?>
<!DOCTYPE svg PUBLIC "-//W3C//DTD SVG 1.1//EN" "http://www.w3.org/Graphics/SVG/1.1/DTD/svg11.dtd">
<svg width="100%" height="100%" viewBox="0 0 256 256" version="1.1" xmlns="http://www.w3.org/2000/svg" xmlns:xlink="http://www.w3.org/1999/xlink" xml:space="preserve" xmlns:serif="http://www.serif.com/" style="fill-rule:evenodd;clip-rule:evenodd;stroke-miterlimit:79.8403;">
    <g id="Artboard1" transform="matrix(0.666667,0,0,0.666667,0,0)">
        <rect id="Artboard11" serif:id="Artboard1" x="0" y="0" width="384" height="384" style="fill:none;"/>
        <path d="M0,384L112.5,384L112.5,322.793L60.803,322.793L60.803,61.207L112.5,61.207L112.5,-0L0,-0L0,384Z" style="fill:url(#_Linear1);"/>
        <g id="Layer-1" serif:id="Layer 1">
            <rect x="30.2" y="30.603" width="323.6" height="322.793"/>
            <path d="M154.134,237.182C152.231,231.163 149.011,224.637 141.521,215.109C136.487,208.703 129.531,200.952 121.874,194.69C114.217,188.431 105.855,183.659 97.778,180.817C89.698,177.977 81.9,177.064 74.553,177.227C67.202,177.39 60.307,178.627 55.818,179.717C51.414,180.786 49.101,181.826 47.726,178.695C46.407,175.693 45.9,168.798 47.098,160.51C48.262,152.456 50.496,147.78 52.926,145.342C55.372,142.885 57.994,142.728 62.28,142.753C66.576,142.781 72.619,142.998 80.427,144.398C82.584,144.786 84.878,145.264 87.295,145.872L94.709,148.067L96.138,142.459C99.141,129.757 99.187,122.593 99.174,117.673L98.777,106.476L97.588,100.496L95.263,93.465L94.272,91.165C93.031,88.556 90.811,84.781 85.492,77.608C85.132,77.144 85.005,76.456 85.171,75.895C85.313,75.327 85.778,74.799 86.324,74.584C103.711,67.327 115.826,64.504 124.157,63.043C132.79,61.531 137.45,61.457 140.459,64.142C143.45,66.81 144.748,72.156 145.278,79.02C145.81,85.91 145.573,94.396 143.032,106.972C140.838,117.828 136.926,131.728 121.61,153.492C119.386,156.077 120.264,161.446 123.2,163.185L125.618,165.007C128.093,167.333 133.453,166.72 135.346,163.887C147.148,149.429 150.36,142.745 152.352,138.509L156.095,130.078L158.759,123.251C159.935,120.13 161.511,115.828 163.394,107.199C165.107,99.347 167.069,87.926 166.615,76.59C166.589,76.241 166.685,75.869 166.867,75.543L167.629,74.778L168.666,74.522C169.039,74.533 169.408,74.641 169.694,74.844C179.62,81.335 189.239,92.702 195.82,102.776C203.068,113.872 206.637,123.412 208.788,130.432C210.934,137.438 211.678,141.978 210.836,145.304C209.984,148.662 207.516,150.749 197.236,157.391C188.014,163.349 176.552,170.8 151.742,179.395C150.832,179.69 148.548,183.041 148.222,184.035C147.867,184.989 147.946,188.372 148.483,189.186C153.016,196.359 154.35,201.114 156.336,207.413C159.501,217.454 159.701,225.091 158.958,231.272L157.974,237.001L157.314,238.099L156.136,238.57L156.117,238.572L154.896,238.213L154.134,237.182Z" style="fill:white;"/>
            <path d="M167.563,195.881C168.734,196.203 173.705,196.539 174.875,196.597C177.517,196.642 178.804,196.912 181.234,197.173L184.622,197.36C185.243,197.572 188.073,198.046 188.09,198.702C188.159,199.354 185.069,198.59 183.503,200.157L182.104,201.947C178.76,207.102 184.033,208.451 190.555,212.761C196.552,216.724 203.364,223.69 206.506,217.538C206.874,216.817 208.677,215.038 206.506,212.503C206.326,211.887 206.032,211.469 206.227,211.105C206.7,210.67 207.047,210.272 207.625,210.545C208.772,211.039 209.006,210.868 210.143,210.825C213.009,210.714 212.406,210.08 215.916,208.85C219.423,207.619 223.366,206.837 226.657,207.06C228.99,207.156 228.011,209.673 226.473,209.813C218.971,211.355 212.672,217.554 209.363,227.708C208.262,231.088 207.842,234.075 206.234,236.208C204.628,238.34 201.832,239.62 199.621,239.897C197.411,240.176 195.787,239.454 192.524,238.031L190.251,237.04C183.345,234.047 177.291,231.412 174.412,228.885C171.534,226.355 171.83,223.934 172.192,220.987C172.557,218.039 172.984,214.569 173.034,211.235C173.082,207.903 173.375,203.905 172.319,201.317C171.672,199.317 169.443,198.961 168.598,200.179C168.483,200.346 168.393,200.541 168.337,200.767C167.686,202.069 168.348,208.467 167.747,212.804C167.146,217.142 165.723,223.189 165.343,227.348C164.964,231.51 165.63,233.781 168.74,236.391C171.853,239.002 177.412,241.948 183.8,245.492C190.189,249.035 197.406,253.169 204.27,257.628C211.131,262.086 217.637,266.864 222.872,271.215C228.104,275.565 232.063,279.485 235.986,283.031C239.91,286.579 243.794,289.752 246.17,287.168C248.944,284.147 246.857,279.883 243.817,275.97C240.778,272.06 236.783,268.502 231.432,263.688L228.38,260.952C228.104,260.745 228.056,260.212 228.292,259.964C228.481,259.678 229.011,259.6 229.273,259.823L234.281,263.442C239.108,267.042 244.459,271.37 252.212,281.162C253.112,282.496 255.46,282.961 256.8,282.07C269.653,274.874 275.777,264.682 273.954,252.33C273.954,249.393 277.73,245.756 278.849,244.218C289.305,231.411 307.196,220.953 321.325,206.311C338.268,188.754 351.128,166.95 348.123,164.492C345.117,162.036 326.245,178.929 310.56,190.529C294.874,202.132 282.371,208.439 274.347,211.026C266.321,213.611 262.771,212.472 260.254,211.046C257.735,209.62 256.249,207.906 257.662,205.966C259.078,204.028 263.395,201.866 267.384,196.629C271.372,191.394 275.033,183.084 273.027,181.325C271.018,179.567 263.342,184.361 256.622,186.354C249.903,188.349 244.139,187.547 240.368,186.513C236.597,185.477 234.818,184.212 233.273,182.89L229.17,178.6L225.672,173.185L222.484,166.693L219.11,160.086L215.589,153.161C215.365,152.698 214.88,152.319 214.374,152.216C213.874,152.095 213.273,152.228 212.87,152.553C192.26,168.825 181.972,171.772 174.495,175.217C167.139,178.303 164.595,181.692 163.651,185.241C163.056,187.494 163.128,189.536 163.571,191.17C164.418,194.543 165.691,195.212 167.563,195.881Z" style="fill:white;"/>
            <path d="M253.177,276.645L247.214,269.612C245.671,267.248 245.216,263.602 246.787,261.331C248.296,258.987 251.851,258.778 254.716,260.405C257.641,261.973 259.617,265.225 259.596,268.709C259.574,271.716 258.54,274.575 256.028,276.837C255.646,277.191 255.079,277.387 254.56,277.345C254.043,277.318 253.506,277.046 253.177,276.645Z"/>
            <path d="M194.938,206.572C198.535,208.833 200.493,210.923 199.631,212.613C197.783,216.231 195.397,213.337 191.868,211.006C188.033,208.471 185.647,207.988 187.614,204.958C188.801,203.127 191.388,204.345 194.938,206.572Z" style="fill:rgb(184,32,55);stroke:black;stroke-width:0.37px;"/>
        </g>
        <path d="M384,0L271.5,0L271.5,61.207L323.197,61.207L323.197,322.793L271.5,322.793L271.5,384L384,384L384,0Z" style="fill:url(#_Linear2);"/>
        <path d="M112.5,30.603L112.5,58.058L54.984,58.058L54.984,321.834L112.5,321.834L112.5,353.397L30.2,353.397L30.2,30.603L112.5,30.603Z" style="fill:url(#_Linear3);"/>
        <g transform="matrix(0.564944,0,0,0.564944,-9.84298,188.303)">
            <text x="68.725px" y="292.229px" style="font-family:'ArialMT', 'Arial', sans-serif;font-size:176.525px;fill:white;">WIP</text>
        </g>
    </g>
    <defs>
        <linearGradient id="_Linear1" x1="0" y1="0" x2="1" y2="0" gradientUnits="userSpaceOnUse" gradientTransform="matrix(52.5073,-373.807,373.807,52.5073,27.9199,351.888)"><stop offset="0" style="stop-color:rgb(130,130,130);stop-opacity:1"/><stop offset="1" style="stop-color:rgb(79,79,79);stop-opacity:1"/></linearGradient>
        <linearGradient id="_Linear2" x1="0" y1="0" x2="1" y2="0" gradientUnits="userSpaceOnUse" gradientTransform="matrix(-52.5073,373.807,-373.807,-52.5073,356.08,32.1122)"><stop offset="0" style="stop-color:rgb(130,130,130);stop-opacity:1"/><stop offset="1" style="stop-color:rgb(79,79,79);stop-opacity:1"/></linearGradient>
        <linearGradient id="_Linear3" x1="0" y1="0" x2="1" y2="0" gradientUnits="userSpaceOnUse" gradientTransform="matrix(29.1589,-155.729,155.729,29.1589,48.3247,312.17)"><stop offset="0" style="stop-color:white;stop-opacity:0.2"/><stop offset="1" style="stop-color:rgb(179,179,179);stop-opacity:0"/></linearGradient>
    </defs>
</svg>
