<?xml version="1.0" encoding="UTF-8" standalone="no"?><!DOCTYPE svg PUBLIC "-//W3C//DTD SVG 1.1//EN" "http://www.w3.org/Graphics/SVG/1.1/DTD/svg11.dtd"><svg width="100%" height="100%" viewBox="0 0 1280 150" version="1.1" xmlns="http://www.w3.org/2000/svg" xmlns:xlink="http://www.w3.org/1999/xlink" xml:space="preserve" xmlns:serif="http://www.serif.com/" style="fill-rule:evenodd;clip-rule:evenodd;stroke-linejoin:round;stroke-miterlimit:2;"><g><rect x="39.634" y="50.465" width="107.609" height="14.053" style="fill:#bfbfbf;"/><rect x="1132.76" y="50.465" width="107.609" height="14.053" style="fill:#bfbfbf;"/><path d="M620.412,24.845c0,1.312 -0.168,2.459 -0.504,3.439c-0.336,0.981 -0.826,1.793 -1.471,2.438c-0.644,0.644 -1.435,1.127 -2.373,1.447c-0.937,0.32 -2.055,0.481 -3.351,0.481l-3.211,0c-0.18,0 -0.35,-0.061 -0.51,-0.182c-0.16,-0.121 -0.24,-0.334 -0.24,-0.639l0,-13.523c0,-0.305 0.08,-0.518 0.24,-0.639c0.16,-0.121 0.33,-0.181 0.51,-0.181l3.433,0c1.313,0 2.422,0.169 3.328,0.509c0.907,0.34 1.666,0.828 2.28,1.465c0.613,0.637 1.078,1.408 1.394,2.315c0.317,0.906 0.475,1.929 0.475,3.07Zm-2.121,0.082c0,-0.82 -0.102,-1.584 -0.305,-2.291c-0.203,-0.707 -0.521,-1.318 -0.955,-1.834c-0.434,-0.516 -0.982,-0.918 -1.647,-1.207c-0.664,-0.289 -1.519,-0.434 -2.566,-0.434l-2.051,0l0,11.801l2.074,0c0.969,0 1.786,-0.121 2.45,-0.363c0.664,-0.242 1.218,-0.613 1.664,-1.113c0.445,-0.5 0.779,-1.127 1.002,-1.881c0.222,-0.754 0.334,-1.647 0.334,-2.678Z" style="fill-rule:nonzero;"/><path d="M633.103,26.966c0,0.859 -0.113,1.65 -0.34,2.373c-0.226,0.723 -0.564,1.346 -1.013,1.869c-0.45,0.524 -1.012,0.932 -1.688,1.225c-0.676,0.293 -1.459,0.439 -2.349,0.439c-0.868,0 -1.623,-0.129 -2.268,-0.386c-0.645,-0.258 -1.182,-0.633 -1.611,-1.125c-0.43,-0.493 -0.75,-1.09 -0.961,-1.793c-0.211,-0.704 -0.317,-1.5 -0.317,-2.391c0,-0.859 0.112,-1.65 0.334,-2.373c0.223,-0.723 0.559,-1.346 1.008,-1.869c0.449,-0.524 1.01,-0.93 1.682,-1.219c0.672,-0.289 1.457,-0.434 2.355,-0.434c0.867,0 1.623,0.129 2.268,0.387c0.644,0.258 1.181,0.633 1.611,1.125c0.43,0.492 0.752,1.09 0.967,1.793c0.215,0.703 0.322,1.496 0.322,2.379Zm-2.004,0.129c0,-0.57 -0.053,-1.109 -0.159,-1.617c-0.107,-0.508 -0.282,-0.953 -0.527,-1.336c-0.244,-0.383 -0.575,-0.686 -0.993,-0.908c-0.418,-0.223 -0.938,-0.334 -1.561,-0.334c-0.575,0 -1.07,0.101 -1.484,0.304c-0.414,0.203 -0.755,0.491 -1.023,0.862c-0.268,0.371 -0.467,0.81 -0.597,1.318c-0.13,0.508 -0.195,1.063 -0.195,1.664c0,0.578 0.053,1.121 0.16,1.629c0.106,0.508 0.284,0.951 0.532,1.33c0.248,0.379 0.581,0.68 0.999,0.902c0.418,0.223 0.938,0.334 1.561,0.334c0.568,0 1.06,-0.101 1.478,-0.304c0.418,-0.203 0.761,-0.489 1.029,-0.856c0.268,-0.367 0.465,-0.804 0.591,-1.312c0.126,-0.508 0.189,-1.067 0.189,-1.676Z" style="fill-rule:nonzero;"/><path d="M645.759,26.966c0,0.859 -0.113,1.65 -0.339,2.373c-0.227,0.723 -0.565,1.346 -1.014,1.869c-0.449,0.524 -1.012,0.932 -1.688,1.225c-0.675,0.293 -1.459,0.439 -2.349,0.439c-0.867,0 -1.623,-0.129 -2.268,-0.386c-0.644,-0.258 -1.181,-0.633 -1.611,-1.125c-0.43,-0.493 -0.75,-1.09 -0.961,-1.793c-0.211,-0.704 -0.316,-1.5 -0.316,-2.391c0,-0.859 0.111,-1.65 0.334,-2.373c0.222,-0.723 0.558,-1.346 1.007,-1.869c0.45,-0.524 1.01,-0.93 1.682,-1.219c0.672,-0.289 1.457,-0.434 2.355,-0.434c0.868,0 1.624,0.129 2.268,0.387c0.645,0.258 1.182,0.633 1.611,1.125c0.43,0.492 0.752,1.09 0.967,1.793c0.215,0.703 0.322,1.496 0.322,2.379Zm-2.003,0.129c0,-0.57 -0.054,-1.109 -0.16,-1.617c-0.107,-0.508 -0.282,-0.953 -0.526,-1.336c-0.245,-0.383 -0.576,-0.686 -0.994,-0.908c-0.417,-0.223 -0.938,-0.334 -1.561,-0.334c-0.575,0 -1.07,0.101 -1.483,0.304c-0.414,0.203 -0.755,0.491 -1.023,0.862c-0.268,0.371 -0.467,0.81 -0.597,1.318c-0.13,0.508 -0.196,1.063 -0.196,1.664c0,0.578 0.054,1.121 0.16,1.629c0.107,0.508 0.284,0.951 0.532,1.33c0.249,0.379 0.582,0.68 0.999,0.902c0.418,0.223 0.938,0.334 1.561,0.334c0.568,0 1.061,-0.101 1.478,-0.304c0.418,-0.203 0.761,-0.489 1.029,-0.856c0.268,-0.367 0.465,-0.804 0.591,-1.312c0.126,-0.508 0.19,-1.067 0.19,-1.676Z" style="fill-rule:nonzero;"/><path d="M654.771,22.501c0,0.172 -0.004,0.317 -0.012,0.434c-0.007,0.117 -0.023,0.209 -0.046,0.275c-0.024,0.067 -0.053,0.117 -0.088,0.153c-0.035,0.035 -0.084,0.052 -0.147,0.052c-0.062,0 -0.138,-0.017 -0.228,-0.052c-0.09,-0.036 -0.192,-0.071 -0.305,-0.106c-0.113,-0.035 -0.24,-0.068 -0.381,-0.1c-0.141,-0.031 -0.293,-0.046 -0.457,-0.046c-0.195,0 -0.387,0.039 -0.574,0.117c-0.188,0.078 -0.385,0.207 -0.592,0.386c-0.207,0.18 -0.424,0.418 -0.65,0.715c-0.227,0.297 -0.477,0.66 -0.75,1.09l0,6.938c0,0.062 -0.016,0.115 -0.047,0.158c-0.031,0.043 -0.082,0.08 -0.153,0.111c-0.07,0.031 -0.167,0.055 -0.293,0.071c-0.124,0.015 -0.285,0.023 -0.48,0.023c-0.187,0 -0.344,-0.008 -0.469,-0.023c-0.125,-0.016 -0.224,-0.04 -0.299,-0.071c-0.074,-0.031 -0.125,-0.068 -0.152,-0.111c-0.027,-0.043 -0.041,-0.096 -0.041,-0.158l0,-10.547c0,-0.063 0.012,-0.115 0.035,-0.158c0.024,-0.043 0.071,-0.082 0.141,-0.118c0.07,-0.035 0.16,-0.058 0.269,-0.07c0.11,-0.012 0.254,-0.017 0.434,-0.017c0.172,0 0.314,0.005 0.428,0.017c0.113,0.012 0.201,0.035 0.263,0.07c0.063,0.036 0.108,0.075 0.135,0.118c0.028,0.043 0.041,0.095 0.041,0.158l0,1.535c0.289,-0.422 0.561,-0.766 0.815,-1.031c0.254,-0.266 0.494,-0.475 0.72,-0.627c0.227,-0.153 0.452,-0.258 0.674,-0.317c0.223,-0.058 0.447,-0.088 0.674,-0.088c0.102,0 0.217,0.006 0.346,0.018c0.129,0.012 0.263,0.033 0.404,0.064c0.141,0.032 0.268,0.067 0.381,0.106c0.113,0.039 0.193,0.078 0.24,0.117c0.047,0.039 0.078,0.076 0.094,0.111c0.015,0.036 0.029,0.081 0.041,0.135c0.012,0.055 0.019,0.135 0.023,0.24c0.004,0.106 0.006,0.249 0.006,0.428Z" style="fill-rule:nonzero;"/><path d="M663.185,29.486c0,0.539 -0.099,1.019 -0.299,1.441c-0.199,0.422 -0.482,0.777 -0.849,1.066c-0.367,0.289 -0.805,0.508 -1.313,0.657c-0.508,0.148 -1.066,0.222 -1.676,0.222c-0.375,0 -0.732,-0.029 -1.072,-0.088c-0.34,-0.058 -0.644,-0.132 -0.914,-0.222c-0.269,-0.09 -0.498,-0.184 -0.685,-0.282c-0.188,-0.097 -0.325,-0.185 -0.411,-0.263c-0.085,-0.078 -0.148,-0.188 -0.187,-0.328c-0.039,-0.141 -0.059,-0.332 -0.059,-0.575c0,-0.148 0.008,-0.273 0.024,-0.375c0.015,-0.101 0.035,-0.183 0.058,-0.246c0.024,-0.062 0.057,-0.107 0.1,-0.134c0.043,-0.028 0.092,-0.041 0.146,-0.041c0.086,0 0.213,0.052 0.381,0.158c0.168,0.105 0.375,0.221 0.621,0.346c0.247,0.125 0.538,0.24 0.873,0.345c0.336,0.106 0.723,0.158 1.161,0.158c0.328,0 0.625,-0.035 0.89,-0.105c0.266,-0.07 0.496,-0.174 0.692,-0.311c0.195,-0.136 0.345,-0.31 0.451,-0.521c0.105,-0.211 0.158,-0.461 0.158,-0.75c0,-0.297 -0.076,-0.547 -0.228,-0.75c-0.153,-0.203 -0.354,-0.383 -0.604,-0.539c-0.25,-0.156 -0.531,-0.295 -0.844,-0.416c-0.312,-0.121 -0.634,-0.248 -0.967,-0.381c-0.332,-0.133 -0.656,-0.283 -0.972,-0.451c-0.317,-0.168 -0.6,-0.373 -0.85,-0.615c-0.25,-0.243 -0.451,-0.532 -0.603,-0.868c-0.153,-0.336 -0.229,-0.738 -0.229,-1.207c0,-0.414 0.08,-0.81 0.24,-1.189c0.161,-0.379 0.401,-0.711 0.721,-0.996c0.32,-0.285 0.721,-0.514 1.201,-0.686c0.481,-0.172 1.041,-0.258 1.682,-0.258c0.281,0 0.562,0.024 0.844,0.071c0.281,0.047 0.535,0.105 0.761,0.176c0.227,0.07 0.42,0.146 0.58,0.228c0.161,0.082 0.282,0.154 0.364,0.217c0.082,0.062 0.136,0.117 0.164,0.164c0.027,0.047 0.047,0.1 0.058,0.158c0.012,0.059 0.024,0.131 0.036,0.217c0.011,0.086 0.017,0.191 0.017,0.316c0,0.133 -0.006,0.248 -0.017,0.346c-0.012,0.098 -0.032,0.178 -0.059,0.24c-0.027,0.063 -0.061,0.108 -0.1,0.135c-0.039,0.027 -0.082,0.041 -0.129,0.041c-0.07,0 -0.171,-0.043 -0.304,-0.129c-0.133,-0.086 -0.305,-0.178 -0.516,-0.275c-0.211,-0.098 -0.459,-0.19 -0.744,-0.276c-0.285,-0.086 -0.611,-0.129 -0.979,-0.129c-0.328,0 -0.617,0.038 -0.867,0.112c-0.25,0.074 -0.455,0.179 -0.615,0.316c-0.16,0.137 -0.281,0.299 -0.363,0.487c-0.082,0.187 -0.123,0.39 -0.123,0.609c0,0.305 0.078,0.56 0.234,0.767c0.156,0.207 0.36,0.389 0.609,0.545c0.251,0.157 0.536,0.297 0.856,0.422c0.32,0.125 0.646,0.254 0.978,0.387c0.333,0.133 0.661,0.281 0.985,0.445c0.324,0.164 0.611,0.364 0.861,0.598c0.25,0.234 0.451,0.516 0.604,0.844c0.152,0.328 0.228,0.718 0.228,1.172Z" style="fill-rule:nonzero;"/><rect x="161.272" y="50.465" width="957.519" height="14.053" style="fill:#bfbfbf;"/></g><g><rect x="39.634" y="114.827" width="107.609" height="14.053" style="fill:#43bc00;"/><rect x="1132.76" y="114.827" width="107.609" height="14.053" style="fill:#43bc00;"/><path d="M215.51,93.288c0,0.695 -0.121,1.322 -0.363,1.881c-0.242,0.559 -0.59,1.037 -1.043,1.435c-0.453,0.399 -1.012,0.706 -1.676,0.92c-0.664,0.215 -1.414,0.323 -2.25,0.323c-0.508,0 -0.982,-0.041 -1.424,-0.123c-0.441,-0.082 -0.834,-0.18 -1.177,-0.293c-0.344,-0.114 -0.629,-0.231 -0.856,-0.352c-0.226,-0.121 -0.369,-0.209 -0.428,-0.264c-0.058,-0.054 -0.103,-0.109 -0.134,-0.164c-0.032,-0.054 -0.059,-0.121 -0.082,-0.199c-0.024,-0.078 -0.041,-0.174 -0.053,-0.287c-0.012,-0.113 -0.018,-0.252 -0.018,-0.416c0,-0.281 0.028,-0.477 0.084,-0.586c0.056,-0.109 0.137,-0.164 0.241,-0.164c0.072,0 0.214,0.062 0.427,0.188c0.212,0.124 0.484,0.259 0.817,0.404c0.333,0.144 0.721,0.279 1.166,0.404c0.445,0.125 0.94,0.188 1.485,0.188c0.529,0 0.994,-0.067 1.394,-0.2c0.401,-0.132 0.738,-0.32 1.01,-0.562c0.273,-0.242 0.477,-0.529 0.613,-0.861c0.137,-0.332 0.205,-0.694 0.205,-1.084c0,-0.43 -0.087,-0.817 -0.261,-1.161c-0.173,-0.343 -0.427,-0.64 -0.762,-0.89c-0.335,-0.25 -0.746,-0.442 -1.234,-0.574c-0.489,-0.133 -1.043,-0.2 -1.665,-0.2l-1.488,0c-0.065,0 -0.127,-0.013 -0.188,-0.041c-0.06,-0.027 -0.113,-0.072 -0.157,-0.134c-0.045,-0.063 -0.081,-0.145 -0.109,-0.247c-0.028,-0.101 -0.043,-0.234 -0.043,-0.398c0,-0.148 0.012,-0.271 0.036,-0.369c0.023,-0.098 0.056,-0.176 0.099,-0.234c0.043,-0.059 0.092,-0.102 0.147,-0.129c0.054,-0.028 0.117,-0.041 0.187,-0.041l1.324,0c0.516,0 0.979,-0.067 1.389,-0.2c0.41,-0.132 0.758,-0.324 1.043,-0.574c0.285,-0.25 0.504,-0.549 0.656,-0.896c0.153,-0.348 0.229,-0.737 0.229,-1.166c0,-0.313 -0.051,-0.612 -0.153,-0.897c-0.101,-0.285 -0.253,-0.533 -0.457,-0.744c-0.203,-0.211 -0.462,-0.377 -0.779,-0.498c-0.316,-0.121 -0.682,-0.182 -1.096,-0.182c-0.453,0 -0.869,0.069 -1.248,0.205c-0.379,0.137 -0.716,0.284 -1.013,0.44c-0.297,0.156 -0.543,0.303 -0.739,0.439c-0.195,0.137 -0.332,0.205 -0.41,0.205c-0.054,0 -0.103,-0.009 -0.146,-0.029c-0.043,-0.019 -0.078,-0.058 -0.106,-0.117c-0.027,-0.059 -0.047,-0.141 -0.058,-0.246c-0.012,-0.106 -0.018,-0.244 -0.018,-0.416c0,-0.117 0.004,-0.221 0.012,-0.311c0.008,-0.09 0.023,-0.168 0.047,-0.234c0.023,-0.067 0.051,-0.127 0.082,-0.182c0.031,-0.054 0.084,-0.119 0.158,-0.193c0.074,-0.074 0.225,-0.182 0.451,-0.322c0.227,-0.141 0.506,-0.28 0.838,-0.416c0.332,-0.137 0.715,-0.252 1.148,-0.346c0.434,-0.094 0.901,-0.141 1.401,-0.141c0.703,0 1.32,0.09 1.851,0.27c0.532,0.179 0.975,0.433 1.331,0.762c0.355,0.328 0.621,0.72 0.796,1.177c0.176,0.457 0.264,0.963 0.264,1.518c0,0.476 -0.062,0.92 -0.187,1.33c-0.125,0.41 -0.309,0.773 -0.551,1.09c-0.242,0.316 -0.539,0.586 -0.891,0.808c-0.351,0.223 -0.758,0.377 -1.219,0.463l0,0.024c0.524,0.054 1.002,0.185 1.436,0.392c0.434,0.207 0.807,0.467 1.119,0.78c0.313,0.312 0.557,0.677 0.733,1.095c0.175,0.418 0.263,0.865 0.263,1.342Z" style="fill-rule:nonzero;"/><path d="M226.748,97.108c0.063,0.11 0.094,0.202 0.094,0.276c0,0.074 -0.037,0.135 -0.111,0.181c-0.074,0.047 -0.188,0.08 -0.34,0.1c-0.152,0.02 -0.35,0.029 -0.592,0.029c-0.234,0 -0.42,-0.006 -0.556,-0.017c-0.137,-0.012 -0.246,-0.032 -0.329,-0.059c-0.082,-0.027 -0.144,-0.062 -0.187,-0.105c-0.043,-0.043 -0.08,-0.092 -0.111,-0.147l-2.532,-4.183l-2.519,4.183c-0.031,0.055 -0.068,0.104 -0.111,0.147c-0.043,0.043 -0.106,0.078 -0.188,0.105c-0.082,0.027 -0.189,0.047 -0.322,0.059c-0.133,0.011 -0.309,0.017 -0.528,0.017c-0.226,0 -0.412,-0.009 -0.556,-0.029c-0.145,-0.02 -0.25,-0.053 -0.317,-0.1c-0.066,-0.046 -0.097,-0.107 -0.093,-0.181c0.004,-0.074 0.041,-0.166 0.111,-0.276l3.281,-5.144l-3.105,-4.957c-0.063,-0.11 -0.096,-0.201 -0.1,-0.276c-0.004,-0.074 0.031,-0.136 0.106,-0.187c0.074,-0.051 0.187,-0.084 0.339,-0.1c0.153,-0.015 0.354,-0.023 0.604,-0.023c0.227,0 0.408,0.006 0.545,0.017c0.137,0.012 0.244,0.03 0.322,0.053c0.078,0.024 0.137,0.055 0.176,0.094c0.039,0.039 0.074,0.086 0.105,0.141l2.403,3.925l2.437,-3.925c0.031,-0.047 0.067,-0.09 0.106,-0.129c0.039,-0.039 0.092,-0.073 0.158,-0.1c0.066,-0.027 0.16,-0.047 0.281,-0.059c0.121,-0.011 0.287,-0.017 0.498,-0.017c0.227,0 0.412,0.008 0.557,0.023c0.144,0.016 0.252,0.045 0.322,0.088c0.07,0.043 0.102,0.104 0.094,0.182c-0.008,0.078 -0.047,0.176 -0.117,0.293l-3.082,4.898l3.257,5.203Z" style="fill-rule:nonzero;"/><path d="M238.538,93.733c0,0.657 -0.118,1.241 -0.352,1.752c-0.234,0.512 -0.572,0.944 -1.014,1.295c-0.441,0.352 -0.986,0.617 -1.634,0.797c-0.649,0.18 -1.391,0.27 -2.227,0.27c-0.781,0 -1.481,-0.082 -2.098,-0.246c-0.617,-0.165 -1.14,-0.407 -1.57,-0.727c-0.43,-0.32 -0.758,-0.715 -0.984,-1.184c-0.227,-0.468 -0.34,-1.004 -0.34,-1.605c0,-0.477 0.078,-0.914 0.234,-1.313c0.156,-0.398 0.381,-0.765 0.674,-1.101c0.293,-0.336 0.654,-0.651 1.084,-0.943c0.43,-0.293 0.914,-0.573 1.453,-0.838c-0.469,-0.243 -0.883,-0.498 -1.242,-0.768c-0.359,-0.269 -0.664,-0.562 -0.914,-0.879c-0.25,-0.316 -0.44,-0.654 -0.569,-1.014c-0.128,-0.359 -0.193,-0.75 -0.193,-1.171c0,-0.532 0.096,-1.03 0.287,-1.495c0.192,-0.464 0.481,-0.869 0.867,-1.212c0.387,-0.344 0.879,-0.616 1.477,-0.815c0.598,-0.199 1.295,-0.299 2.092,-0.299c0.765,0 1.428,0.092 1.986,0.276c0.559,0.183 1.02,0.433 1.383,0.75c0.363,0.316 0.631,0.689 0.803,1.119c0.172,0.429 0.257,0.89 0.257,1.383c0,0.398 -0.064,0.781 -0.193,1.148c-0.129,0.367 -0.318,0.715 -0.568,1.043c-0.25,0.328 -0.557,0.635 -0.92,0.92c-0.363,0.285 -0.779,0.553 -1.248,0.803c0.554,0.273 1.049,0.554 1.482,0.843c0.434,0.289 0.797,0.6 1.09,0.932c0.293,0.332 0.516,0.684 0.668,1.055c0.152,0.371 0.229,0.779 0.229,1.224Zm-2.532,-7.781c0,-0.328 -0.056,-0.625 -0.17,-0.89c-0.113,-0.266 -0.279,-0.493 -0.498,-0.68c-0.218,-0.188 -0.49,-0.33 -0.814,-0.428c-0.324,-0.098 -0.694,-0.146 -1.108,-0.146c-0.843,0 -1.482,0.191 -1.916,0.574c-0.433,0.383 -0.65,0.906 -0.65,1.57c0,0.305 0.053,0.588 0.158,0.85c0.106,0.261 0.27,0.51 0.492,0.744c0.223,0.234 0.504,0.463 0.844,0.685c0.34,0.223 0.744,0.455 1.213,0.698c0.789,-0.407 1.395,-0.856 1.816,-1.348c0.422,-0.492 0.633,-1.035 0.633,-1.629Zm0.492,7.992c0,-0.359 -0.066,-0.685 -0.199,-0.978c-0.133,-0.293 -0.334,-0.567 -0.603,-0.821c-0.27,-0.253 -0.606,-0.5 -1.008,-0.738c-0.402,-0.238 -0.869,-0.486 -1.4,-0.744c-0.493,0.242 -0.924,0.484 -1.295,0.727c-0.371,0.242 -0.676,0.492 -0.914,0.75c-0.239,0.257 -0.418,0.529 -0.54,0.814c-0.121,0.285 -0.181,0.6 -0.181,0.943c0,0.758 0.26,1.344 0.779,1.758c0.52,0.414 1.295,0.621 2.326,0.621c1,0 1.756,-0.209 2.268,-0.627c0.512,-0.418 0.767,-0.986 0.767,-1.705Z" style="fill-rule:nonzero;"/><path d="M255.108,93.37c0,0.711 -0.131,1.344 -0.393,1.899c-0.261,0.554 -0.625,1.025 -1.09,1.412c-0.464,0.386 -1.011,0.677 -1.64,0.873c-0.629,0.195 -1.307,0.293 -2.033,0.293c-0.508,0 -0.979,-0.043 -1.413,-0.129c-0.433,-0.086 -0.82,-0.192 -1.16,-0.317c-0.34,-0.125 -0.625,-0.254 -0.855,-0.386c-0.231,-0.133 -0.391,-0.246 -0.481,-0.34c-0.089,-0.094 -0.156,-0.213 -0.199,-0.358c-0.043,-0.144 -0.064,-0.338 -0.064,-0.58c0,-0.172 0.008,-0.314 0.023,-0.427c0.016,-0.114 0.039,-0.206 0.07,-0.276c0.032,-0.07 0.071,-0.119 0.118,-0.146c0.047,-0.028 0.101,-0.041 0.164,-0.041c0.109,0 0.263,0.066 0.463,0.199c0.199,0.133 0.455,0.277 0.767,0.433c0.313,0.157 0.69,0.303 1.131,0.44c0.441,0.137 0.951,0.205 1.529,0.205c0.438,0 0.838,-0.059 1.202,-0.176c0.363,-0.117 0.675,-0.283 0.937,-0.498c0.262,-0.215 0.463,-0.478 0.604,-0.791c0.14,-0.312 0.21,-0.668 0.21,-1.066c0,-0.43 -0.097,-0.797 -0.293,-1.102c-0.195,-0.305 -0.453,-0.572 -0.773,-0.803c-0.32,-0.23 -0.685,-0.441 -1.096,-0.632c-0.41,-0.192 -0.83,-0.387 -1.259,-0.586c-0.43,-0.2 -0.848,-0.42 -1.254,-0.662c-0.407,-0.243 -0.77,-0.528 -1.09,-0.856c-0.32,-0.328 -0.58,-0.713 -0.779,-1.154c-0.2,-0.442 -0.299,-0.971 -0.299,-1.588c0,-0.633 0.115,-1.197 0.345,-1.693c0.231,-0.497 0.551,-0.913 0.961,-1.248c0.411,-0.336 0.899,-0.592 1.465,-0.768c0.567,-0.176 1.178,-0.264 1.834,-0.264c0.336,0 0.674,0.03 1.014,0.088c0.34,0.059 0.66,0.137 0.961,0.235c0.301,0.097 0.568,0.207 0.803,0.328c0.234,0.121 0.388,0.218 0.462,0.293c0.075,0.074 0.123,0.132 0.147,0.175c0.023,0.043 0.043,0.098 0.058,0.164c0.016,0.067 0.028,0.147 0.036,0.241c0.007,0.093 0.011,0.215 0.011,0.363c0,0.141 -0.005,0.266 -0.017,0.375c-0.012,0.109 -0.03,0.201 -0.053,0.275c-0.023,0.075 -0.057,0.129 -0.1,0.164c-0.043,0.036 -0.091,0.053 -0.146,0.053c-0.086,0 -0.221,-0.055 -0.404,-0.164c-0.184,-0.109 -0.409,-0.232 -0.674,-0.369c-0.266,-0.137 -0.58,-0.262 -0.944,-0.375c-0.363,-0.113 -0.771,-0.17 -1.224,-0.17c-0.422,0 -0.789,0.057 -1.102,0.17c-0.312,0.113 -0.57,0.264 -0.773,0.451c-0.203,0.188 -0.356,0.41 -0.457,0.668c-0.102,0.258 -0.153,0.531 -0.153,0.82c0,0.422 0.098,0.786 0.293,1.09c0.196,0.305 0.456,0.574 0.78,0.809c0.324,0.234 0.693,0.449 1.107,0.644c0.414,0.196 0.836,0.393 1.266,0.592c0.429,0.199 0.851,0.418 1.265,0.656c0.414,0.239 0.784,0.52 1.108,0.844c0.324,0.324 0.586,0.707 0.785,1.149c0.199,0.441 0.299,0.963 0.299,1.564Z" style="fill-rule:nonzero;"/><path d="M259.702,97.331c0,0.063 -0.016,0.115 -0.047,0.158c-0.032,0.043 -0.082,0.08 -0.153,0.112c-0.07,0.031 -0.168,0.054 -0.293,0.07c-0.125,0.015 -0.285,0.023 -0.48,0.023c-0.188,0 -0.344,-0.008 -0.469,-0.023c-0.125,-0.016 -0.224,-0.039 -0.299,-0.07c-0.074,-0.032 -0.125,-0.069 -0.152,-0.112c-0.027,-0.043 -0.041,-0.095 -0.041,-0.158l0,-10.547c0,-0.055 0.014,-0.105 0.041,-0.152c0.027,-0.047 0.078,-0.086 0.152,-0.117c0.075,-0.032 0.174,-0.055 0.299,-0.071c0.125,-0.015 0.281,-0.023 0.469,-0.023c0.195,0 0.355,0.008 0.48,0.023c0.125,0.016 0.223,0.039 0.293,0.071c0.071,0.031 0.121,0.07 0.153,0.117c0.031,0.047 0.047,0.097 0.047,0.152l0,10.547Zm0.222,-14.109c0,0.453 -0.086,0.761 -0.258,0.925c-0.171,0.164 -0.488,0.247 -0.949,0.247c-0.453,0 -0.763,-0.081 -0.931,-0.241c-0.168,-0.16 -0.252,-0.463 -0.252,-0.908c0,-0.453 0.086,-0.762 0.257,-0.926c0.172,-0.164 0.489,-0.246 0.95,-0.246c0.453,0 0.763,0.08 0.931,0.24c0.168,0.161 0.252,0.463 0.252,0.909Z" style="fill-rule:nonzero;"/><path d="M272.358,97.331c0,0.063 -0.016,0.115 -0.047,0.158c-0.031,0.043 -0.082,0.08 -0.152,0.112c-0.071,0.031 -0.168,0.054 -0.293,0.07c-0.125,0.015 -0.282,0.023 -0.469,0.023c-0.195,0 -0.356,-0.008 -0.481,-0.023c-0.125,-0.016 -0.222,-0.039 -0.293,-0.07c-0.07,-0.032 -0.121,-0.069 -0.152,-0.112c-0.031,-0.043 -0.047,-0.095 -0.047,-0.158l0,-6.176c0,-0.601 -0.047,-1.086 -0.14,-1.453c-0.094,-0.367 -0.231,-0.683 -0.411,-0.949c-0.179,-0.266 -0.412,-0.469 -0.697,-0.609c-0.285,-0.141 -0.615,-0.211 -0.99,-0.211c-0.484,0 -0.969,0.171 -1.453,0.515c-0.485,0.344 -0.992,0.848 -1.524,1.512l0,7.371c0,0.063 -0.015,0.115 -0.046,0.158c-0.032,0.043 -0.083,0.08 -0.153,0.112c-0.07,0.031 -0.168,0.054 -0.293,0.07c-0.125,0.015 -0.285,0.023 -0.48,0.023c-0.188,0 -0.344,-0.008 -0.469,-0.023c-0.125,-0.016 -0.225,-0.039 -0.299,-0.07c-0.074,-0.032 -0.125,-0.069 -0.152,-0.112c-0.028,-0.043 -0.041,-0.095 -0.041,-0.158l0,-10.547c0,-0.062 0.012,-0.115 0.035,-0.158c0.023,-0.043 0.07,-0.082 0.141,-0.117c0.07,-0.035 0.16,-0.059 0.269,-0.071c0.109,-0.011 0.254,-0.017 0.434,-0.017c0.172,0 0.314,0.006 0.427,0.017c0.114,0.012 0.202,0.036 0.264,0.071c0.063,0.035 0.108,0.074 0.135,0.117c0.027,0.043 0.041,0.096 0.041,0.158l0,1.395c0.594,-0.664 1.185,-1.151 1.775,-1.459c0.59,-0.309 1.186,-0.463 1.787,-0.463c0.704,0 1.295,0.119 1.776,0.357c0.48,0.239 0.869,0.557 1.166,0.955c0.297,0.399 0.51,0.866 0.638,1.401c0.129,0.535 0.194,1.177 0.194,1.927l0,6.434Z" style="fill-rule:nonzero;"/><path d="M284.698,87.265c0,0.273 -0.037,0.47 -0.112,0.591c-0.074,0.122 -0.17,0.182 -0.287,0.182l-1.511,0c0.273,0.281 0.464,0.592 0.574,0.932c0.109,0.34 0.164,0.693 0.164,1.06c0,0.61 -0.098,1.149 -0.293,1.617c-0.195,0.469 -0.475,0.866 -0.838,1.19c-0.363,0.324 -0.795,0.572 -1.295,0.744c-0.5,0.172 -1.055,0.258 -1.664,0.258c-0.43,0 -0.838,-0.057 -1.225,-0.17c-0.386,-0.113 -0.685,-0.256 -0.896,-0.428c-0.141,0.141 -0.256,0.301 -0.346,0.481c-0.09,0.179 -0.135,0.386 -0.135,0.621c0,0.273 0.127,0.5 0.381,0.679c0.254,0.18 0.592,0.278 1.014,0.293l2.754,0.118c0.523,0.015 1.004,0.087 1.441,0.216c0.438,0.129 0.817,0.313 1.137,0.551c0.32,0.238 0.57,0.531 0.75,0.879c0.18,0.348 0.269,0.752 0.269,1.213c0,0.484 -0.101,0.945 -0.304,1.383c-0.203,0.437 -0.514,0.822 -0.932,1.154c-0.418,0.332 -0.951,0.594 -1.599,0.785c-0.649,0.192 -1.415,0.287 -2.297,0.287c-0.852,0 -1.576,-0.072 -2.174,-0.216c-0.598,-0.145 -1.088,-0.342 -1.471,-0.592c-0.383,-0.25 -0.66,-0.549 -0.832,-0.897c-0.172,-0.347 -0.258,-0.724 -0.258,-1.131c0,-0.257 0.032,-0.507 0.094,-0.75c0.063,-0.242 0.158,-0.472 0.287,-0.691c0.129,-0.219 0.289,-0.428 0.481,-0.627c0.191,-0.199 0.412,-0.396 0.662,-0.592c-0.383,-0.195 -0.666,-0.441 -0.85,-0.738c-0.183,-0.297 -0.275,-0.617 -0.275,-0.961c0,-0.477 0.097,-0.902 0.293,-1.277c0.195,-0.375 0.437,-0.711 0.726,-1.008c-0.242,-0.289 -0.433,-0.615 -0.574,-0.979c-0.141,-0.363 -0.211,-0.802 -0.211,-1.318c0,-0.602 0.102,-1.141 0.305,-1.617c0.203,-0.477 0.484,-0.879 0.844,-1.207c0.359,-0.328 0.791,-0.58 1.294,-0.756c0.504,-0.176 1.053,-0.264 1.647,-0.264c0.32,0 0.619,0.018 0.896,0.053c0.278,0.035 0.538,0.084 0.78,0.146l3.187,0c0.133,0 0.233,0.065 0.299,0.194c0.066,0.129 0.1,0.326 0.1,0.592Zm-3.024,2.777c0,-0.719 -0.197,-1.279 -0.592,-1.682c-0.394,-0.402 -0.955,-0.603 -1.681,-0.603c-0.375,0 -0.701,0.062 -0.979,0.187c-0.277,0.125 -0.508,0.297 -0.691,0.516c-0.184,0.219 -0.32,0.471 -0.41,0.756c-0.09,0.285 -0.135,0.584 -0.135,0.896c0,0.696 0.197,1.242 0.592,1.641c0.394,0.398 0.947,0.598 1.658,0.598c0.383,0 0.715,-0.061 0.996,-0.182c0.281,-0.121 0.514,-0.289 0.697,-0.504c0.184,-0.215 0.321,-0.463 0.41,-0.744c0.09,-0.281 0.135,-0.574 0.135,-0.879Zm0.973,8.355c0,-0.453 -0.186,-0.802 -0.557,-1.048c-0.371,-0.246 -0.873,-0.377 -1.506,-0.393l-2.73,-0.094c-0.25,0.196 -0.455,0.381 -0.615,0.557c-0.16,0.176 -0.287,0.344 -0.381,0.504c-0.094,0.16 -0.158,0.318 -0.194,0.474c-0.035,0.157 -0.052,0.317 -0.052,0.481c0,0.508 0.258,0.892 0.773,1.154c0.516,0.262 1.235,0.393 2.156,0.393c0.586,0 1.077,-0.057 1.471,-0.17c0.395,-0.113 0.713,-0.264 0.955,-0.451c0.242,-0.188 0.416,-0.403 0.522,-0.645c0.105,-0.242 0.158,-0.496 0.158,-0.762Z" style="fill-rule:nonzero;"/><path d="M289.116,97.331c0,0.063 -0.016,0.115 -0.047,0.158c-0.031,0.043 -0.082,0.08 -0.153,0.112c-0.07,0.031 -0.168,0.054 -0.293,0.07c-0.125,0.015 -0.285,0.023 -0.48,0.023c-0.188,0 -0.344,-0.008 -0.469,-0.023c-0.125,-0.016 -0.224,-0.039 -0.299,-0.07c-0.074,-0.032 -0.125,-0.069 -0.152,-0.112c-0.027,-0.043 -0.041,-0.095 -0.041,-0.158l0,-15.656c0,-0.063 0.014,-0.117 0.041,-0.164c0.027,-0.047 0.078,-0.086 0.152,-0.117c0.075,-0.032 0.174,-0.055 0.299,-0.071c0.125,-0.015 0.281,-0.023 0.469,-0.023c0.195,0 0.355,0.008 0.48,0.023c0.125,0.016 0.223,0.039 0.293,0.071c0.071,0.031 0.122,0.07 0.153,0.117c0.031,0.047 0.047,0.101 0.047,0.164l0,15.656Z" style="fill-rule:nonzero;"/><path d="M301.69,91.601c0,0.304 -0.077,0.521 -0.23,0.65c-0.153,0.129 -0.327,0.193 -0.524,0.193l-6.945,0c0,0.586 0.059,1.114 0.176,1.582c0.118,0.469 0.314,0.871 0.589,1.207c0.275,0.336 0.632,0.594 1.072,0.774c0.439,0.179 0.977,0.269 1.613,0.269c0.502,0 0.95,-0.041 1.342,-0.123c0.393,-0.082 0.732,-0.174 1.019,-0.275c0.287,-0.102 0.522,-0.193 0.707,-0.275c0.184,-0.083 0.323,-0.124 0.418,-0.124c0.055,0 0.104,0.014 0.147,0.041c0.043,0.028 0.076,0.069 0.1,0.124c0.023,0.054 0.041,0.13 0.053,0.228c0.012,0.098 0.018,0.217 0.018,0.357c0,0.102 -0.004,0.19 -0.012,0.264c-0.008,0.074 -0.018,0.141 -0.029,0.199c-0.012,0.059 -0.032,0.112 -0.059,0.159c-0.027,0.046 -0.063,0.091 -0.106,0.134c-0.042,0.043 -0.169,0.114 -0.38,0.211c-0.211,0.098 -0.485,0.194 -0.821,0.287c-0.336,0.094 -0.724,0.178 -1.166,0.252c-0.441,0.075 -0.912,0.112 -1.412,0.112c-0.867,0 -1.627,-0.121 -2.279,-0.364c-0.652,-0.242 -1.201,-0.601 -1.647,-1.078c-0.445,-0.476 -0.781,-1.074 -1.007,-1.793c-0.227,-0.718 -0.34,-1.554 -0.34,-2.508c0,-0.906 0.117,-1.72 0.351,-2.443c0.235,-0.723 0.573,-1.336 1.014,-1.84c0.441,-0.504 0.975,-0.89 1.6,-1.16c0.625,-0.269 1.324,-0.404 2.097,-0.404c0.828,0 1.533,0.133 2.115,0.398c0.583,0.266 1.061,0.623 1.436,1.073c0.375,0.449 0.65,0.976 0.826,1.582c0.176,0.605 0.264,1.251 0.264,1.939l0,0.352Zm-1.945,-0.575c0.023,-1.015 -0.203,-1.812 -0.678,-2.39c-0.476,-0.578 -1.181,-0.867 -2.117,-0.867c-0.479,0 -0.9,0.089 -1.261,0.269c-0.362,0.18 -0.665,0.418 -0.908,0.715c-0.244,0.297 -0.433,0.642 -0.566,1.037c-0.134,0.395 -0.209,0.807 -0.224,1.236l5.754,0Z" style="fill-rule:nonzero;"/><path d="M414.555,93.288c0,0.695 -0.121,1.322 -0.363,1.881c-0.242,0.559 -0.59,1.037 -1.043,1.435c-0.453,0.399 -1.012,0.706 -1.676,0.92c-0.664,0.215 -1.414,0.323 -2.25,0.323c-0.507,0 -0.982,-0.041 -1.423,-0.123c-0.442,-0.082 -0.834,-0.18 -1.178,-0.293c-0.344,-0.114 -0.629,-0.231 -0.856,-0.352c-0.226,-0.121 -0.369,-0.209 -0.427,-0.264c-0.059,-0.054 -0.104,-0.109 -0.135,-0.164c-0.031,-0.054 -0.059,-0.121 -0.082,-0.199c-0.024,-0.078 -0.041,-0.174 -0.053,-0.287c-0.012,-0.113 -0.018,-0.252 -0.018,-0.416c0,-0.281 0.029,-0.477 0.085,-0.586c0.056,-0.109 0.136,-0.164 0.24,-0.164c0.072,0 0.215,0.062 0.427,0.188c0.212,0.124 0.485,0.259 0.817,0.404c0.333,0.144 0.722,0.279 1.166,0.404c0.445,0.125 0.94,0.188 1.485,0.188c0.529,0 0.994,-0.067 1.395,-0.2c0.4,-0.132 0.737,-0.32 1.009,-0.562c0.273,-0.242 0.477,-0.529 0.614,-0.861c0.136,-0.332 0.204,-0.694 0.204,-1.084c0,-0.43 -0.087,-0.817 -0.26,-1.161c-0.174,-0.343 -0.428,-0.64 -0.763,-0.89c-0.335,-0.25 -0.746,-0.442 -1.234,-0.574c-0.488,-0.133 -1.043,-0.2 -1.664,-0.2l-1.489,0c-0.065,0 -0.127,-0.013 -0.188,-0.041c-0.06,-0.027 -0.113,-0.072 -0.157,-0.134c-0.044,-0.063 -0.081,-0.145 -0.109,-0.247c-0.028,-0.101 -0.042,-0.234 -0.042,-0.398c0,-0.148 0.011,-0.271 0.035,-0.369c0.023,-0.098 0.056,-0.176 0.099,-0.234c0.043,-0.059 0.092,-0.102 0.147,-0.129c0.055,-0.028 0.117,-0.041 0.187,-0.041l1.325,0c0.515,0 0.978,-0.067 1.388,-0.2c0.41,-0.132 0.758,-0.324 1.043,-0.574c0.285,-0.25 0.504,-0.549 0.657,-0.896c0.152,-0.348 0.228,-0.737 0.228,-1.166c0,-0.313 -0.051,-0.612 -0.152,-0.897c-0.102,-0.285 -0.254,-0.533 -0.457,-0.744c-0.203,-0.211 -0.463,-0.377 -0.78,-0.498c-0.316,-0.121 -0.681,-0.182 -1.095,-0.182c-0.453,0 -0.869,0.069 -1.248,0.205c-0.379,0.137 -0.717,0.284 -1.014,0.44c-0.297,0.156 -0.543,0.303 -0.738,0.439c-0.196,0.137 -0.332,0.205 -0.411,0.205c-0.054,0 -0.103,-0.009 -0.146,-0.029c-0.043,-0.019 -0.078,-0.058 -0.105,-0.117c-0.028,-0.059 -0.047,-0.141 -0.059,-0.246c-0.012,-0.106 -0.018,-0.244 -0.018,-0.416c0,-0.117 0.004,-0.221 0.012,-0.311c0.008,-0.09 0.024,-0.168 0.047,-0.234c0.023,-0.067 0.051,-0.127 0.082,-0.182c0.031,-0.054 0.084,-0.119 0.158,-0.193c0.074,-0.074 0.225,-0.182 0.451,-0.322c0.227,-0.141 0.506,-0.28 0.838,-0.416c0.332,-0.137 0.715,-0.252 1.149,-0.346c0.433,-0.094 0.9,-0.141 1.4,-0.141c0.703,0 1.32,0.09 1.852,0.27c0.531,0.179 0.974,0.433 1.33,0.762c0.355,0.328 0.621,0.72 0.797,1.177c0.175,0.457 0.263,0.963 0.263,1.518c0,0.476 -0.062,0.92 -0.187,1.33c-0.125,0.41 -0.309,0.773 -0.551,1.09c-0.242,0.316 -0.539,0.586 -0.891,0.808c-0.351,0.223 -0.757,0.377 -1.218,0.463l0,0.024c0.523,0.054 1.002,0.185 1.435,0.392c0.434,0.207 0.807,0.467 1.119,0.78c0.313,0.312 0.557,0.677 0.733,1.095c0.176,0.418 0.263,0.865 0.263,1.342Z" style="fill-rule:nonzero;"/><path d="M425.794,97.108c0.062,0.11 0.093,0.202 0.093,0.276c0,0.074 -0.037,0.135 -0.111,0.181c-0.074,0.047 -0.187,0.08 -0.34,0.1c-0.152,0.02 -0.349,0.029 -0.592,0.029c-0.234,0 -0.419,-0.006 -0.556,-0.017c-0.137,-0.012 -0.246,-0.032 -0.328,-0.059c-0.082,-0.027 -0.145,-0.062 -0.188,-0.105c-0.043,-0.043 -0.08,-0.092 -0.111,-0.147l-2.531,-4.183l-2.52,4.183c-0.031,0.055 -0.068,0.104 -0.111,0.147c-0.043,0.043 -0.106,0.078 -0.188,0.105c-0.082,0.027 -0.189,0.047 -0.322,0.059c-0.133,0.011 -0.309,0.017 -0.527,0.017c-0.227,0 -0.412,-0.009 -0.557,-0.029c-0.145,-0.02 -0.25,-0.053 -0.316,-0.1c-0.067,-0.046 -0.098,-0.107 -0.094,-0.181c0.004,-0.074 0.041,-0.166 0.111,-0.276l3.281,-5.144l-3.105,-4.957c-0.063,-0.11 -0.096,-0.201 -0.1,-0.276c-0.004,-0.074 0.032,-0.136 0.106,-0.187c0.074,-0.051 0.187,-0.084 0.34,-0.1c0.152,-0.015 0.353,-0.023 0.603,-0.023c0.227,0 0.408,0.006 0.545,0.017c0.137,0.012 0.244,0.03 0.322,0.053c0.078,0.024 0.137,0.055 0.176,0.094c0.039,0.039 0.074,0.086 0.106,0.141l2.402,3.925l2.437,-3.925c0.032,-0.047 0.067,-0.09 0.106,-0.129c0.039,-0.039 0.092,-0.073 0.158,-0.1c0.067,-0.027 0.16,-0.047 0.281,-0.059c0.121,-0.011 0.287,-0.017 0.498,-0.017c0.227,0 0.413,0.008 0.557,0.023c0.145,0.016 0.252,0.045 0.322,0.088c0.071,0.043 0.102,0.104 0.094,0.182c-0.008,0.078 -0.047,0.176 -0.117,0.293l-3.082,4.898l3.258,5.203Z" style="fill-rule:nonzero;"/><path d="M437.454,83.327c0,0.141 -0.006,0.268 -0.018,0.381c-0.011,0.113 -0.027,0.223 -0.047,0.328c-0.019,0.106 -0.046,0.207 -0.082,0.305c-0.035,0.097 -0.076,0.201 -0.123,0.31l-5.461,12.586c-0.039,0.094 -0.088,0.17 -0.146,0.229c-0.059,0.058 -0.133,0.105 -0.223,0.14c-0.09,0.036 -0.205,0.059 -0.345,0.071c-0.141,0.011 -0.313,0.017 -0.516,0.017c-0.266,0 -0.473,-0.011 -0.621,-0.035c-0.149,-0.023 -0.256,-0.06 -0.322,-0.111c-0.067,-0.051 -0.096,-0.113 -0.088,-0.188c0.007,-0.074 0.035,-0.162 0.082,-0.263l5.742,-12.868l-7.277,0c-0.149,0 -0.26,-0.078 -0.334,-0.234c-0.075,-0.156 -0.112,-0.375 -0.112,-0.656c0,-0.149 0.01,-0.278 0.03,-0.387c0.019,-0.109 0.048,-0.201 0.087,-0.275c0.039,-0.074 0.086,-0.129 0.141,-0.164c0.055,-0.035 0.117,-0.053 0.188,-0.053l8.835,0c0.11,0 0.206,0.012 0.288,0.035c0.082,0.024 0.144,0.07 0.187,0.141c0.043,0.07 0.076,0.16 0.1,0.269c0.023,0.11 0.035,0.25 0.035,0.422Z" style="fill-rule:nonzero;"/><path d="M454.153,93.37c0,0.711 -0.131,1.344 -0.393,1.899c-0.261,0.554 -0.625,1.025 -1.089,1.412c-0.465,0.386 -1.012,0.677 -1.641,0.873c-0.629,0.195 -1.307,0.293 -2.033,0.293c-0.508,0 -0.979,-0.043 -1.412,-0.129c-0.434,-0.086 -0.821,-0.192 -1.16,-0.317c-0.34,-0.125 -0.625,-0.254 -0.856,-0.386c-0.23,-0.133 -0.391,-0.246 -0.48,-0.34c-0.09,-0.094 -0.157,-0.213 -0.2,-0.358c-0.043,-0.144 -0.064,-0.338 -0.064,-0.58c0,-0.172 0.008,-0.314 0.023,-0.427c0.016,-0.114 0.039,-0.206 0.071,-0.276c0.031,-0.07 0.07,-0.119 0.117,-0.146c0.047,-0.028 0.101,-0.041 0.164,-0.041c0.109,0 0.264,0.066 0.463,0.199c0.199,0.133 0.455,0.277 0.767,0.433c0.313,0.157 0.69,0.303 1.131,0.44c0.442,0.137 0.951,0.205 1.53,0.205c0.437,0 0.837,-0.059 1.201,-0.176c0.363,-0.117 0.676,-0.283 0.937,-0.498c0.262,-0.215 0.463,-0.478 0.604,-0.791c0.14,-0.312 0.211,-0.668 0.211,-1.066c0,-0.43 -0.098,-0.797 -0.293,-1.102c-0.196,-0.305 -0.453,-0.572 -0.774,-0.803c-0.32,-0.23 -0.685,-0.441 -1.095,-0.632c-0.411,-0.192 -0.831,-0.387 -1.26,-0.586c-0.43,-0.2 -0.848,-0.42 -1.254,-0.662c-0.406,-0.243 -0.77,-0.528 -1.09,-0.856c-0.32,-0.328 -0.58,-0.713 -0.779,-1.154c-0.199,-0.442 -0.299,-0.971 -0.299,-1.588c0,-0.633 0.115,-1.197 0.346,-1.693c0.23,-0.497 0.55,-0.913 0.961,-1.248c0.41,-0.336 0.898,-0.592 1.464,-0.768c0.567,-0.176 1.178,-0.264 1.834,-0.264c0.336,0 0.674,0.03 1.014,0.088c0.34,0.059 0.66,0.137 0.961,0.235c0.301,0.097 0.568,0.207 0.803,0.328c0.234,0.121 0.388,0.218 0.463,0.293c0.074,0.074 0.123,0.132 0.146,0.175c0.024,0.043 0.043,0.098 0.059,0.164c0.015,0.067 0.027,0.147 0.035,0.241c0.008,0.093 0.012,0.215 0.012,0.363c0,0.141 -0.006,0.266 -0.018,0.375c-0.012,0.109 -0.029,0.201 -0.053,0.275c-0.023,0.075 -0.056,0.129 -0.099,0.164c-0.043,0.036 -0.092,0.053 -0.147,0.053c-0.086,0 -0.221,-0.055 -0.404,-0.164c-0.184,-0.109 -0.408,-0.232 -0.674,-0.369c-0.266,-0.137 -0.58,-0.262 -0.943,-0.375c-0.364,-0.113 -0.772,-0.17 -1.225,-0.17c-0.422,0 -0.789,0.057 -1.101,0.17c-0.313,0.113 -0.571,0.264 -0.774,0.451c-0.203,0.188 -0.355,0.41 -0.457,0.668c-0.102,0.258 -0.152,0.531 -0.152,0.82c0,0.422 0.097,0.786 0.293,1.09c0.195,0.305 0.455,0.574 0.779,0.809c0.324,0.234 0.693,0.449 1.107,0.644c0.414,0.196 0.836,0.393 1.266,0.592c0.43,0.199 0.852,0.418 1.266,0.656c0.414,0.239 0.783,0.52 1.107,0.844c0.324,0.324 0.586,0.707 0.785,1.149c0.199,0.441 0.299,0.963 0.299,1.564Z" style="fill-rule:nonzero;"/><path d="M458.747,97.331c0,0.063 -0.016,0.115 -0.047,0.158c-0.031,0.043 -0.082,0.08 -0.152,0.112c-0.071,0.031 -0.168,0.054 -0.293,0.07c-0.125,0.015 -0.286,0.023 -0.481,0.023c-0.187,0 -0.344,-0.008 -0.469,-0.023c-0.125,-0.016 -0.224,-0.039 -0.298,-0.07c-0.075,-0.032 -0.125,-0.069 -0.153,-0.112c-0.027,-0.043 -0.041,-0.095 -0.041,-0.158l0,-10.547c0,-0.055 0.014,-0.105 0.041,-0.152c0.028,-0.047 0.078,-0.086 0.153,-0.117c0.074,-0.032 0.173,-0.055 0.298,-0.071c0.125,-0.015 0.282,-0.023 0.469,-0.023c0.195,0 0.356,0.008 0.481,0.023c0.125,0.016 0.222,0.039 0.293,0.071c0.07,0.031 0.121,0.07 0.152,0.117c0.031,0.047 0.047,0.097 0.047,0.152l0,10.547Zm0.222,-14.109c0,0.453 -0.085,0.761 -0.257,0.925c-0.172,0.164 -0.489,0.247 -0.95,0.247c-0.453,0 -0.763,-0.081 -0.931,-0.241c-0.168,-0.16 -0.252,-0.463 -0.252,-0.908c0,-0.453 0.086,-0.762 0.258,-0.926c0.172,-0.164 0.488,-0.246 0.949,-0.246c0.453,0 0.764,0.08 0.932,0.24c0.167,0.161 0.251,0.463 0.251,0.909Z" style="fill-rule:nonzero;"/><path d="M471.403,97.331c0,0.063 -0.016,0.115 -0.047,0.158c-0.031,0.043 -0.082,0.08 -0.152,0.112c-0.07,0.031 -0.168,0.054 -0.293,0.07c-0.125,0.015 -0.281,0.023 -0.469,0.023c-0.195,0 -0.355,-0.008 -0.48,-0.023c-0.125,-0.016 -0.223,-0.039 -0.293,-0.07c-0.071,-0.032 -0.121,-0.069 -0.153,-0.112c-0.031,-0.043 -0.047,-0.095 -0.047,-0.158l0,-6.176c0,-0.601 -0.046,-1.086 -0.14,-1.453c-0.094,-0.367 -0.231,-0.683 -0.41,-0.949c-0.18,-0.266 -0.412,-0.469 -0.698,-0.609c-0.285,-0.141 -0.615,-0.211 -0.99,-0.211c-0.484,0 -0.969,0.171 -1.453,0.515c-0.484,0.344 -0.992,0.848 -1.523,1.512l0,7.371c0,0.063 -0.016,0.115 -0.047,0.158c-0.032,0.043 -0.082,0.08 -0.153,0.112c-0.07,0.031 -0.168,0.054 -0.293,0.07c-0.125,0.015 -0.285,0.023 -0.48,0.023c-0.188,0 -0.344,-0.008 -0.469,-0.023c-0.125,-0.016 -0.224,-0.039 -0.299,-0.07c-0.074,-0.032 -0.125,-0.069 -0.152,-0.112c-0.027,-0.043 -0.041,-0.095 -0.041,-0.158l0,-10.547c0,-0.062 0.012,-0.115 0.035,-0.158c0.024,-0.043 0.07,-0.082 0.141,-0.117c0.07,-0.035 0.16,-0.059 0.269,-0.071c0.11,-0.011 0.254,-0.017 0.434,-0.017c0.172,0 0.314,0.006 0.428,0.017c0.113,0.012 0.201,0.036 0.263,0.071c0.063,0.035 0.108,0.074 0.135,0.117c0.027,0.043 0.041,0.096 0.041,0.158l0,1.395c0.594,-0.664 1.186,-1.151 1.776,-1.459c0.589,-0.309 1.185,-0.463 1.787,-0.463c0.703,0 1.295,0.119 1.775,0.357c0.48,0.239 0.869,0.557 1.166,0.955c0.297,0.399 0.51,0.866 0.639,1.401c0.129,0.535 0.193,1.177 0.193,1.927l0,6.434Z" style="fill-rule:nonzero;"/><path d="M483.743,87.265c0,0.273 -0.037,0.47 -0.111,0.591c-0.075,0.122 -0.17,0.182 -0.288,0.182l-1.511,0c0.273,0.281 0.465,0.592 0.574,0.932c0.109,0.34 0.164,0.693 0.164,1.06c0,0.61 -0.098,1.149 -0.293,1.617c-0.195,0.469 -0.475,0.866 -0.838,1.19c-0.363,0.324 -0.795,0.572 -1.295,0.744c-0.5,0.172 -1.054,0.258 -1.664,0.258c-0.43,0 -0.838,-0.057 -1.224,-0.17c-0.387,-0.113 -0.686,-0.256 -0.897,-0.428c-0.141,0.141 -0.256,0.301 -0.346,0.481c-0.089,0.179 -0.134,0.386 -0.134,0.621c0,0.273 0.127,0.5 0.38,0.679c0.254,0.18 0.592,0.278 1.014,0.293l2.754,0.118c0.523,0.015 1.004,0.087 1.441,0.216c0.438,0.129 0.817,0.313 1.137,0.551c0.32,0.238 0.57,0.531 0.75,0.879c0.18,0.348 0.27,0.752 0.27,1.213c0,0.484 -0.102,0.945 -0.305,1.383c-0.203,0.437 -0.514,0.822 -0.932,1.154c-0.418,0.332 -0.951,0.594 -1.599,0.785c-0.649,0.192 -1.414,0.287 -2.297,0.287c-0.852,0 -1.576,-0.072 -2.174,-0.216c-0.598,-0.145 -1.088,-0.342 -1.471,-0.592c-0.382,-0.25 -0.66,-0.549 -0.832,-0.897c-0.172,-0.347 -0.257,-0.724 -0.257,-1.131c0,-0.257 0.031,-0.507 0.093,-0.75c0.063,-0.242 0.158,-0.472 0.287,-0.691c0.129,-0.219 0.289,-0.428 0.481,-0.627c0.191,-0.199 0.412,-0.396 0.662,-0.592c-0.383,-0.195 -0.666,-0.441 -0.85,-0.738c-0.183,-0.297 -0.275,-0.617 -0.275,-0.961c0,-0.477 0.098,-0.902 0.293,-1.277c0.195,-0.375 0.437,-0.711 0.726,-1.008c-0.242,-0.289 -0.433,-0.615 -0.574,-0.979c-0.14,-0.363 -0.211,-0.802 -0.211,-1.318c0,-0.602 0.102,-1.141 0.305,-1.617c0.203,-0.477 0.484,-0.879 0.844,-1.207c0.359,-0.328 0.791,-0.58 1.295,-0.756c0.504,-0.176 1.052,-0.264 1.646,-0.264c0.32,0 0.619,0.018 0.897,0.053c0.277,0.035 0.537,0.084 0.779,0.146l3.187,0c0.133,0 0.233,0.065 0.299,0.194c0.067,0.129 0.1,0.326 0.1,0.592Zm-3.024,2.777c0,-0.719 -0.197,-1.279 -0.591,-1.682c-0.395,-0.402 -0.955,-0.603 -1.682,-0.603c-0.375,0 -0.701,0.062 -0.978,0.187c-0.278,0.125 -0.508,0.297 -0.692,0.516c-0.183,0.219 -0.32,0.471 -0.41,0.756c-0.09,0.285 -0.135,0.584 -0.135,0.896c0,0.696 0.197,1.242 0.592,1.641c0.395,0.398 0.947,0.598 1.658,0.598c0.383,0 0.715,-0.061 0.996,-0.182c0.282,-0.121 0.514,-0.289 0.698,-0.504c0.183,-0.215 0.32,-0.463 0.41,-0.744c0.09,-0.281 0.134,-0.574 0.134,-0.879Zm0.973,8.355c0,-0.453 -0.185,-0.802 -0.557,-1.048c-0.371,-0.246 -0.873,-0.377 -1.505,-0.393l-2.731,-0.094c-0.25,0.196 -0.455,0.381 -0.615,0.557c-0.16,0.176 -0.287,0.344 -0.381,0.504c-0.094,0.16 -0.158,0.318 -0.193,0.474c-0.035,0.157 -0.053,0.317 -0.053,0.481c0,0.508 0.258,0.892 0.773,1.154c0.516,0.262 1.235,0.393 2.157,0.393c0.586,0 1.076,-0.057 1.47,-0.17c0.395,-0.113 0.713,-0.264 0.955,-0.451c0.243,-0.188 0.416,-0.403 0.522,-0.645c0.105,-0.242 0.158,-0.496 0.158,-0.762Z" style="fill-rule:nonzero;"/><path d="M488.161,97.331c0,0.063 -0.016,0.115 -0.047,0.158c-0.031,0.043 -0.082,0.08 -0.152,0.112c-0.071,0.031 -0.168,0.054 -0.293,0.07c-0.125,0.015 -0.285,0.023 -0.481,0.023c-0.187,0 -0.344,-0.008 -0.469,-0.023c-0.125,-0.016 -0.224,-0.039 -0.298,-0.07c-0.075,-0.032 -0.125,-0.069 -0.153,-0.112c-0.027,-0.043 -0.041,-0.095 -0.041,-0.158l0,-15.656c0,-0.063 0.014,-0.117 0.041,-0.164c0.028,-0.047 0.078,-0.086 0.153,-0.117c0.074,-0.032 0.173,-0.055 0.298,-0.071c0.125,-0.015 0.282,-0.023 0.469,-0.023c0.196,0 0.356,0.008 0.481,0.023c0.125,0.016 0.222,0.039 0.293,0.071c0.07,0.031 0.121,0.07 0.152,0.117c0.031,0.047 0.047,0.101 0.047,0.164l0,15.656Z" style="fill-rule:nonzero;"/><path d="M500.735,91.601c0,0.304 -0.076,0.521 -0.229,0.65c-0.153,0.129 -0.328,0.193 -0.524,0.193l-6.946,0c0,0.586 0.059,1.114 0.176,1.582c0.118,0.469 0.314,0.871 0.589,1.207c0.275,0.336 0.632,0.594 1.072,0.774c0.44,0.179 0.977,0.269 1.613,0.269c0.503,0 0.95,-0.041 1.343,-0.123c0.392,-0.082 0.732,-0.174 1.018,-0.275c0.287,-0.102 0.522,-0.193 0.707,-0.275c0.184,-0.083 0.324,-0.124 0.418,-0.124c0.055,0 0.104,0.014 0.147,0.041c0.043,0.028 0.077,0.069 0.1,0.124c0.024,0.054 0.041,0.13 0.053,0.228c0.012,0.098 0.018,0.217 0.018,0.357c0,0.102 -0.004,0.19 -0.012,0.264c-0.008,0.074 -0.018,0.141 -0.029,0.199c-0.012,0.059 -0.031,0.112 -0.059,0.159c-0.027,0.046 -0.062,0.091 -0.105,0.134c-0.043,0.043 -0.17,0.114 -0.381,0.211c-0.211,0.098 -0.485,0.194 -0.82,0.287c-0.336,0.094 -0.725,0.178 -1.166,0.252c-0.442,0.075 -0.913,0.112 -1.413,0.112c-0.867,0 -1.627,-0.121 -2.279,-0.364c-0.652,-0.242 -1.201,-0.601 -1.646,-1.078c-0.446,-0.476 -0.782,-1.074 -1.008,-1.793c-0.227,-0.718 -0.34,-1.554 -0.34,-2.508c0,-0.906 0.117,-1.72 0.352,-2.443c0.234,-0.723 0.572,-1.336 1.013,-1.84c0.442,-0.504 0.975,-0.89 1.6,-1.16c0.625,-0.269 1.324,-0.404 2.097,-0.404c0.829,0 1.534,0.133 2.116,0.398c0.582,0.266 1.06,0.623 1.435,1.073c0.375,0.449 0.651,0.976 0.826,1.582c0.176,0.605 0.264,1.251 0.264,1.939l0,0.352Zm-1.945,-0.575c0.023,-1.015 -0.203,-1.812 -0.678,-2.39c-0.476,-0.578 -1.181,-0.867 -2.117,-0.867c-0.479,0 -0.9,0.089 -1.261,0.269c-0.362,0.18 -0.664,0.418 -0.908,0.715c-0.244,0.297 -0.432,0.642 -0.566,1.037c-0.134,0.395 -0.208,0.807 -0.224,1.236l5.754,0Z" style="fill-rule:nonzero;"/><path d="M594.101,92.714c0,0.664 -0.102,1.306 -0.305,1.928c-0.203,0.621 -0.516,1.168 -0.938,1.64c-0.421,0.473 -0.957,0.852 -1.605,1.137c-0.649,0.285 -1.414,0.428 -2.297,0.428c-0.633,0 -1.191,-0.078 -1.676,-0.235c-0.484,-0.156 -0.906,-0.379 -1.265,-0.668c-0.36,-0.289 -0.659,-0.644 -0.897,-1.066c-0.238,-0.422 -0.43,-0.902 -0.574,-1.441c-0.145,-0.54 -0.248,-1.129 -0.311,-1.77c-0.062,-0.641 -0.093,-1.328 -0.093,-2.063c0,-0.648 0.035,-1.304 0.105,-1.968c0.07,-0.664 0.195,-1.305 0.375,-1.922c0.18,-0.617 0.424,-1.197 0.733,-1.74c0.308,-0.543 0.695,-1.016 1.16,-1.418c0.465,-0.403 1.021,-0.721 1.67,-0.955c0.648,-0.235 1.402,-0.352 2.261,-0.352c0.289,0 0.582,0.018 0.879,0.053c0.297,0.035 0.571,0.082 0.821,0.14c0.25,0.059 0.46,0.123 0.632,0.194c0.172,0.07 0.286,0.127 0.34,0.17c0.055,0.043 0.096,0.089 0.123,0.14c0.028,0.051 0.049,0.106 0.065,0.164c0.015,0.059 0.027,0.125 0.035,0.2c0.008,0.074 0.012,0.166 0.012,0.275c0,0.141 -0.002,0.262 -0.006,0.363c-0.004,0.102 -0.02,0.184 -0.047,0.246c-0.028,0.063 -0.063,0.11 -0.106,0.141c-0.043,0.031 -0.099,0.047 -0.17,0.047c-0.085,0 -0.203,-0.028 -0.351,-0.082c-0.149,-0.055 -0.328,-0.115 -0.539,-0.182c-0.211,-0.066 -0.467,-0.127 -0.768,-0.181c-0.301,-0.055 -0.65,-0.083 -1.049,-0.083c-0.726,0 -1.351,0.149 -1.875,0.446c-0.523,0.297 -0.951,0.695 -1.283,1.195c-0.332,0.5 -0.578,1.08 -0.738,1.74c-0.16,0.66 -0.252,1.35 -0.275,2.069c0.203,-0.117 0.431,-0.235 0.685,-0.352c0.254,-0.117 0.531,-0.223 0.832,-0.316c0.301,-0.094 0.619,-0.17 0.955,-0.229c0.336,-0.058 0.696,-0.088 1.078,-0.088c0.821,0 1.512,0.112 2.075,0.334c0.562,0.223 1.017,0.532 1.365,0.926c0.347,0.395 0.595,0.859 0.744,1.395c0.148,0.535 0.223,1.115 0.223,1.74Zm-2.039,0.187c0,-0.453 -0.045,-0.865 -0.135,-1.236c-0.09,-0.371 -0.24,-0.686 -0.451,-0.943c-0.211,-0.258 -0.493,-0.457 -0.844,-0.598c-0.352,-0.141 -0.785,-0.211 -1.301,-0.211c-0.289,0 -0.578,0.025 -0.867,0.076c-0.289,0.051 -0.569,0.121 -0.838,0.211c-0.27,0.09 -0.527,0.195 -0.773,0.317c-0.247,0.121 -0.471,0.252 -0.674,0.392c0,1.008 0.064,1.852 0.193,2.531c0.129,0.68 0.316,1.225 0.563,1.635c0.246,0.41 0.552,0.703 0.919,0.879c0.368,0.176 0.797,0.264 1.29,0.264c0.5,0 0.933,-0.094 1.3,-0.281c0.368,-0.188 0.672,-0.44 0.914,-0.756c0.243,-0.317 0.42,-0.672 0.534,-1.067c0.113,-0.394 0.17,-0.799 0.17,-1.213Z" style="fill-rule:nonzero;"/><path d="M604.835,97.108c0.062,0.11 0.094,0.202 0.094,0.276c0,0.074 -0.037,0.135 -0.112,0.181c-0.074,0.047 -0.187,0.08 -0.339,0.1c-0.153,0.02 -0.35,0.029 -0.592,0.029c-0.235,0 -0.42,-0.006 -0.557,-0.017c-0.137,-0.012 -0.246,-0.032 -0.328,-0.059c-0.082,-0.027 -0.145,-0.062 -0.188,-0.105c-0.043,-0.043 -0.08,-0.092 -0.111,-0.147l-2.531,-4.183l-2.52,4.183c-0.031,0.055 -0.068,0.104 -0.111,0.147c-0.043,0.043 -0.105,0.078 -0.187,0.105c-0.083,0.027 -0.19,0.047 -0.323,0.059c-0.133,0.011 -0.308,0.017 -0.527,0.017c-0.227,0 -0.412,-0.009 -0.557,-0.029c-0.144,-0.02 -0.25,-0.053 -0.316,-0.1c-0.067,-0.046 -0.098,-0.107 -0.094,-0.181c0.004,-0.074 0.041,-0.166 0.111,-0.276l3.282,-5.144l-3.106,-4.957c-0.062,-0.11 -0.095,-0.201 -0.099,-0.276c-0.004,-0.074 0.031,-0.136 0.105,-0.187c0.074,-0.051 0.188,-0.084 0.34,-0.1c0.152,-0.015 0.353,-0.023 0.603,-0.023c0.227,0 0.409,0.006 0.545,0.017c0.137,0.012 0.245,0.03 0.323,0.053c0.078,0.024 0.136,0.055 0.175,0.094c0.039,0.039 0.075,0.086 0.106,0.141l2.402,3.925l2.438,-3.925c0.031,-0.047 0.066,-0.09 0.105,-0.129c0.039,-0.039 0.092,-0.073 0.158,-0.1c0.067,-0.027 0.161,-0.047 0.282,-0.059c0.121,-0.011 0.287,-0.017 0.498,-0.017c0.226,0 0.412,0.008 0.556,0.023c0.145,0.016 0.252,0.045 0.323,0.088c0.07,0.043 0.101,0.104 0.093,0.182c-0.007,0.078 -0.047,0.176 -0.117,0.293l-3.082,4.898l3.258,5.203Z" style="fill-rule:nonzero;"/><path d="M616.495,83.327c0,0.141 -0.006,0.268 -0.017,0.381c-0.012,0.113 -0.028,0.223 -0.047,0.328c-0.02,0.106 -0.047,0.207 -0.082,0.305c-0.036,0.097 -0.077,0.201 -0.123,0.31l-5.461,12.586c-0.039,0.094 -0.088,0.17 -0.147,0.229c-0.058,0.058 -0.133,0.105 -0.223,0.14c-0.089,0.036 -0.205,0.059 -0.345,0.071c-0.141,0.011 -0.313,0.017 -0.516,0.017c-0.265,0 -0.472,-0.011 -0.621,-0.035c-0.148,-0.023 -0.256,-0.06 -0.322,-0.111c-0.067,-0.051 -0.096,-0.113 -0.088,-0.188c0.008,-0.074 0.035,-0.162 0.082,-0.263l5.742,-12.868l-7.277,0c-0.149,0 -0.26,-0.078 -0.334,-0.234c-0.074,-0.156 -0.112,-0.375 -0.112,-0.656c0,-0.149 0.01,-0.278 0.03,-0.387c0.019,-0.109 0.049,-0.201 0.088,-0.275c0.039,-0.074 0.086,-0.129 0.14,-0.164c0.055,-0.035 0.117,-0.053 0.188,-0.053l8.836,0c0.109,0 0.205,0.012 0.287,0.035c0.082,0.024 0.144,0.07 0.187,0.141c0.043,0.07 0.077,0.16 0.1,0.269c0.023,0.11 0.035,0.25 0.035,0.422Z" style="fill-rule:nonzero;"/><path d="M636.71,89.819c0,1.313 -0.168,2.459 -0.504,3.44c-0.336,0.98 -0.826,1.793 -1.471,2.437c-0.644,0.645 -1.435,1.127 -2.373,1.448c-0.937,0.32 -2.054,0.48 -3.351,0.48l-3.211,0c-0.18,0 -0.35,-0.061 -0.51,-0.182c-0.16,-0.121 -0.24,-0.334 -0.24,-0.638l0,-13.524c0,-0.304 0.08,-0.517 0.24,-0.638c0.16,-0.122 0.33,-0.182 0.51,-0.182l3.433,0c1.313,0 2.422,0.17 3.329,0.51c0.906,0.34 1.666,0.828 2.279,1.465c0.613,0.636 1.078,1.408 1.394,2.314c0.317,0.906 0.475,1.93 0.475,3.07Zm-2.121,0.082c0,-0.82 -0.102,-1.584 -0.305,-2.291c-0.203,-0.707 -0.521,-1.318 -0.955,-1.834c-0.434,-0.515 -0.982,-0.918 -1.646,-1.207c-0.664,-0.289 -1.52,-0.433 -2.567,-0.433l-2.051,0l0,11.801l2.075,0c0.968,0 1.785,-0.122 2.449,-0.364c0.664,-0.242 1.219,-0.613 1.664,-1.113c0.445,-0.5 0.779,-1.127 1.002,-1.881c0.223,-0.754 0.334,-1.646 0.334,-2.678Z" style="fill-rule:nonzero;"/><path d="M649.401,91.94c0,0.86 -0.113,1.651 -0.339,2.373c-0.227,0.723 -0.565,1.346 -1.014,1.87c-0.449,0.523 -1.012,0.931 -1.688,1.224c-0.675,0.293 -1.459,0.44 -2.349,0.44c-0.867,0 -1.623,-0.129 -2.268,-0.387c-0.644,-0.258 -1.181,-0.633 -1.611,-1.125c-0.43,-0.492 -0.75,-1.09 -0.961,-1.793c-0.211,-0.703 -0.317,-1.5 -0.317,-2.391c0,-0.859 0.112,-1.65 0.334,-2.373c0.223,-0.722 0.559,-1.345 1.008,-1.869c0.449,-0.523 1.01,-0.93 1.682,-1.219c0.672,-0.289 1.457,-0.433 2.355,-0.433c0.868,0 1.623,0.129 2.268,0.387c0.644,0.257 1.182,0.632 1.611,1.125c0.43,0.492 0.752,1.089 0.967,1.793c0.215,0.703 0.322,1.496 0.322,2.378Zm-2.004,0.129c0,-0.57 -0.053,-1.109 -0.159,-1.617c-0.107,-0.508 -0.282,-0.953 -0.526,-1.336c-0.245,-0.383 -0.576,-0.685 -0.994,-0.908c-0.418,-0.223 -0.938,-0.334 -1.561,-0.334c-0.575,0 -1.07,0.102 -1.484,0.305c-0.413,0.203 -0.754,0.49 -1.022,0.861c-0.268,0.371 -0.467,0.811 -0.598,1.318c-0.13,0.508 -0.195,1.063 -0.195,1.664c0,0.579 0.054,1.122 0.16,1.629c0.106,0.508 0.284,0.952 0.532,1.33c0.248,0.379 0.581,0.68 0.999,0.903c0.418,0.222 0.938,0.334 1.561,0.334c0.568,0 1.06,-0.102 1.478,-0.305c0.418,-0.203 0.761,-0.488 1.029,-0.855c0.268,-0.368 0.465,-0.805 0.591,-1.313c0.126,-0.508 0.189,-1.066 0.189,-1.676Z" style="fill-rule:nonzero;"/><path d="M661.284,97.331c0,0.063 -0.014,0.115 -0.041,0.158c-0.027,0.043 -0.076,0.08 -0.146,0.112c-0.071,0.031 -0.162,0.054 -0.276,0.07c-0.113,0.015 -0.252,0.023 -0.416,0.023c-0.179,0 -0.326,-0.008 -0.439,-0.023c-0.113,-0.016 -0.203,-0.039 -0.27,-0.07c-0.066,-0.032 -0.111,-0.069 -0.134,-0.112c-0.024,-0.043 -0.036,-0.095 -0.036,-0.158l0,-1.395c-0.601,0.665 -1.195,1.149 -1.781,1.454c-0.586,0.304 -1.18,0.457 -1.781,0.457c-0.703,0 -1.295,-0.118 -1.776,-0.352c-0.48,-0.234 -0.869,-0.553 -1.166,-0.955c-0.296,-0.402 -0.509,-0.871 -0.638,-1.406c-0.129,-0.535 -0.194,-1.186 -0.194,-1.951l0,-6.399c0,-0.062 0.014,-0.115 0.041,-0.158c0.028,-0.043 0.081,-0.082 0.159,-0.117c0.078,-0.035 0.179,-0.059 0.304,-0.071c0.125,-0.011 0.282,-0.017 0.469,-0.017c0.188,0 0.344,0.006 0.469,0.017c0.125,0.012 0.224,0.036 0.299,0.071c0.074,0.035 0.127,0.074 0.158,0.117c0.031,0.043 0.047,0.096 0.047,0.158l0,6.141c0,0.617 0.045,1.111 0.134,1.482c0.09,0.371 0.227,0.688 0.411,0.949c0.183,0.262 0.416,0.465 0.697,0.61c0.281,0.144 0.609,0.217 0.984,0.217c0.485,0 0.967,-0.172 1.448,-0.516c0.48,-0.344 0.99,-0.848 1.529,-1.512l0,-7.371c0,-0.062 0.014,-0.115 0.041,-0.158c0.027,-0.043 0.08,-0.082 0.158,-0.117c0.078,-0.035 0.178,-0.059 0.299,-0.071c0.121,-0.011 0.279,-0.017 0.475,-0.017c0.187,0 0.343,0.006 0.468,0.017c0.125,0.012 0.223,0.036 0.293,0.071c0.071,0.035 0.123,0.074 0.158,0.117c0.036,0.043 0.053,0.096 0.053,0.158l0,10.547Z" style="fill-rule:nonzero;"/><path d="M674.562,91.917c0,0.914 -0.1,1.736 -0.299,2.467c-0.2,0.73 -0.493,1.353 -0.879,1.869c-0.387,0.516 -0.862,0.91 -1.424,1.183c-0.563,0.274 -1.207,0.411 -1.934,0.411c-0.336,0 -0.646,-0.034 -0.931,-0.1c-0.285,-0.066 -0.565,-0.174 -0.838,-0.322c-0.274,-0.149 -0.547,-0.336 -0.82,-0.563c-0.274,-0.226 -0.563,-0.5 -0.868,-0.82l0,1.289c0,0.063 -0.015,0.117 -0.047,0.164c-0.031,0.047 -0.082,0.084 -0.152,0.111c-0.07,0.028 -0.158,0.049 -0.264,0.065c-0.105,0.015 -0.24,0.023 -0.404,0.023c-0.156,0 -0.289,-0.008 -0.398,-0.023c-0.11,-0.016 -0.2,-0.037 -0.27,-0.065c-0.07,-0.027 -0.117,-0.064 -0.14,-0.111c-0.024,-0.047 -0.036,-0.101 -0.036,-0.164l0,-15.656c0,-0.063 0.014,-0.117 0.041,-0.164c0.028,-0.047 0.079,-0.086 0.153,-0.117c0.074,-0.032 0.174,-0.055 0.299,-0.071c0.125,-0.015 0.281,-0.023 0.468,-0.023c0.196,0 0.356,0.008 0.481,0.023c0.125,0.016 0.222,0.039 0.293,0.071c0.07,0.031 0.121,0.07 0.152,0.117c0.031,0.047 0.047,0.101 0.047,0.164l0,6.316c0.312,-0.32 0.615,-0.59 0.908,-0.808c0.293,-0.219 0.58,-0.397 0.862,-0.534c0.281,-0.136 0.562,-0.236 0.843,-0.298c0.282,-0.063 0.578,-0.094 0.891,-0.094c0.766,0 1.42,0.152 1.963,0.457c0.543,0.305 0.984,0.713 1.324,1.224c0.34,0.512 0.588,1.112 0.744,1.799c0.156,0.688 0.235,1.414 0.235,2.18Zm-2.004,0.223c0,-0.539 -0.042,-1.063 -0.124,-1.571c-0.083,-0.508 -0.226,-0.957 -0.431,-1.347c-0.204,-0.391 -0.475,-0.705 -0.813,-0.944c-0.338,-0.238 -0.759,-0.357 -1.262,-0.357c-0.251,0 -0.499,0.035 -0.742,0.105c-0.244,0.071 -0.492,0.188 -0.743,0.352c-0.252,0.164 -0.513,0.375 -0.784,0.633c-0.272,0.258 -0.561,0.582 -0.867,0.972l0,4.207c0.535,0.649 1.045,1.143 1.533,1.483c0.487,0.34 0.994,0.51 1.521,0.51c0.487,0 0.904,-0.118 1.25,-0.352c0.345,-0.234 0.626,-0.545 0.843,-0.932c0.216,-0.386 0.373,-0.82 0.471,-1.3c0.098,-0.481 0.148,-0.967 0.148,-1.459Z" style="fill-rule:nonzero;"/><path d="M679.401,97.331c0,0.063 -0.015,0.115 -0.047,0.158c-0.031,0.043 -0.082,0.08 -0.152,0.112c-0.07,0.031 -0.168,0.054 -0.293,0.07c-0.125,0.015 -0.285,0.023 -0.48,0.023c-0.188,0 -0.344,-0.008 -0.469,-0.023c-0.125,-0.016 -0.225,-0.039 -0.299,-0.07c-0.074,-0.032 -0.125,-0.069 -0.152,-0.112c-0.028,-0.043 -0.041,-0.095 -0.041,-0.158l0,-15.656c0,-0.063 0.013,-0.117 0.041,-0.164c0.027,-0.047 0.078,-0.086 0.152,-0.117c0.074,-0.032 0.174,-0.055 0.299,-0.071c0.125,-0.015 0.281,-0.023 0.469,-0.023c0.195,0 0.355,0.008 0.48,0.023c0.125,0.016 0.223,0.039 0.293,0.071c0.07,0.031 0.121,0.07 0.152,0.117c0.032,0.047 0.047,0.101 0.047,0.164l0,15.656Z" style="fill-rule:nonzero;"/><path d="M691.976,91.601c0,0.304 -0.077,0.521 -0.23,0.65c-0.153,0.129 -0.328,0.193 -0.524,0.193l-6.946,0c0,0.586 0.059,1.114 0.177,1.582c0.118,0.469 0.314,0.871 0.589,1.207c0.275,0.336 0.632,0.594 1.071,0.774c0.44,0.179 0.978,0.269 1.614,0.269c0.502,0 0.95,-0.041 1.342,-0.123c0.393,-0.082 0.732,-0.174 1.019,-0.275c0.286,-0.102 0.522,-0.193 0.706,-0.275c0.185,-0.083 0.324,-0.124 0.418,-0.124c0.055,0 0.104,0.014 0.148,0.041c0.043,0.028 0.076,0.069 0.1,0.124c0.023,0.054 0.041,0.13 0.053,0.228c0.011,0.098 0.017,0.217 0.017,0.357c0,0.102 -0.004,0.19 -0.011,0.264c-0.008,0.074 -0.018,0.141 -0.03,0.199c-0.011,0.059 -0.031,0.112 -0.058,0.159c-0.028,0.046 -0.063,0.091 -0.106,0.134c-0.043,0.043 -0.17,0.114 -0.381,0.211c-0.211,0.098 -0.484,0.194 -0.82,0.287c-0.336,0.094 -0.725,0.178 -1.166,0.252c-0.441,0.075 -0.912,0.112 -1.412,0.112c-0.867,0 -1.627,-0.121 -2.279,-0.364c-0.653,-0.242 -1.202,-0.601 -1.647,-1.078c-0.445,-0.476 -0.781,-1.074 -1.008,-1.793c-0.226,-0.718 -0.34,-1.554 -0.34,-2.508c0,-0.906 0.118,-1.72 0.352,-2.443c0.234,-0.723 0.572,-1.336 1.014,-1.84c0.441,-0.504 0.974,-0.89 1.599,-1.16c0.625,-0.269 1.325,-0.404 2.098,-0.404c0.828,0 1.533,0.133 2.115,0.398c0.582,0.266 1.061,0.623 1.436,1.073c0.375,0.449 0.65,0.976 0.826,1.582c0.176,0.605 0.264,1.251 0.264,1.939l0,0.352Zm-1.946,-0.575c0.024,-1.015 -0.202,-1.812 -0.678,-2.39c-0.475,-0.578 -1.181,-0.867 -2.116,-0.867c-0.48,0 -0.9,0.089 -1.262,0.269c-0.361,0.18 -0.664,0.418 -0.908,0.715c-0.243,0.297 -0.432,0.642 -0.566,1.037c-0.133,0.395 -0.208,0.807 -0.224,1.236l5.754,0Z" style="fill-rule:nonzero;"/><path d="M785.522,92.714c0,0.664 -0.102,1.306 -0.305,1.928c-0.203,0.621 -0.515,1.168 -0.937,1.64c-0.422,0.473 -0.957,0.852 -1.606,1.137c-0.648,0.285 -1.414,0.428 -2.297,0.428c-0.632,0 -1.191,-0.078 -1.675,-0.235c-0.485,-0.156 -0.907,-0.379 -1.266,-0.668c-0.359,-0.289 -0.658,-0.644 -0.897,-1.066c-0.238,-0.422 -0.429,-0.902 -0.574,-1.441c-0.144,-0.54 -0.248,-1.129 -0.31,-1.77c-0.063,-0.641 -0.094,-1.328 -0.094,-2.063c0,-0.648 0.035,-1.304 0.105,-1.968c0.071,-0.664 0.196,-1.305 0.375,-1.922c0.18,-0.617 0.424,-1.197 0.733,-1.74c0.308,-0.543 0.695,-1.016 1.16,-1.418c0.465,-0.403 1.021,-0.721 1.67,-0.955c0.648,-0.235 1.402,-0.352 2.262,-0.352c0.289,0 0.582,0.018 0.879,0.053c0.296,0.035 0.57,0.082 0.82,0.14c0.25,0.059 0.461,0.123 0.633,0.194c0.172,0.07 0.285,0.127 0.339,0.17c0.055,0.043 0.096,0.089 0.124,0.14c0.027,0.051 0.048,0.106 0.064,0.164c0.016,0.059 0.027,0.125 0.035,0.2c0.008,0.074 0.012,0.166 0.012,0.275c0,0.141 -0.002,0.262 -0.006,0.363c-0.004,0.102 -0.02,0.184 -0.047,0.246c-0.027,0.063 -0.062,0.11 -0.105,0.141c-0.043,0.031 -0.1,0.047 -0.17,0.047c-0.086,0 -0.203,-0.028 -0.352,-0.082c-0.148,-0.055 -0.328,-0.115 -0.539,-0.182c-0.211,-0.066 -0.467,-0.127 -0.767,-0.181c-0.301,-0.055 -0.651,-0.083 -1.049,-0.083c-0.727,0 -1.352,0.149 -1.875,0.446c-0.524,0.297 -0.951,0.695 -1.283,1.195c-0.333,0.5 -0.579,1.08 -0.739,1.74c-0.16,0.66 -0.252,1.35 -0.275,2.069c0.203,-0.117 0.431,-0.235 0.685,-0.352c0.254,-0.117 0.532,-0.223 0.832,-0.316c0.301,-0.094 0.62,-0.17 0.955,-0.229c0.336,-0.058 0.696,-0.088 1.079,-0.088c0.82,0 1.511,0.112 2.074,0.334c0.562,0.223 1.017,0.532 1.365,0.926c0.348,0.395 0.596,0.859 0.744,1.395c0.149,0.535 0.223,1.115 0.223,1.74Zm-2.039,0.187c0,-0.453 -0.045,-0.865 -0.135,-1.236c-0.09,-0.371 -0.24,-0.686 -0.451,-0.943c-0.211,-0.258 -0.492,-0.457 -0.844,-0.598c-0.351,-0.141 -0.785,-0.211 -1.301,-0.211c-0.289,0 -0.578,0.025 -0.867,0.076c-0.289,0.051 -0.568,0.121 -0.838,0.211c-0.269,0.09 -0.527,0.195 -0.773,0.317c-0.246,0.121 -0.471,0.252 -0.674,0.392c0,1.008 0.064,1.852 0.193,2.531c0.129,0.68 0.317,1.225 0.563,1.635c0.246,0.41 0.553,0.703 0.92,0.879c0.367,0.176 0.797,0.264 1.289,0.264c0.5,0 0.933,-0.094 1.301,-0.281c0.367,-0.188 0.672,-0.44 0.914,-0.756c0.242,-0.317 0.42,-0.672 0.533,-1.067c0.113,-0.394 0.17,-0.799 0.17,-1.213Z" style="fill-rule:nonzero;"/><path d="M796.256,97.108c0.063,0.11 0.094,0.202 0.094,0.276c0,0.074 -0.037,0.135 -0.111,0.181c-0.075,0.047 -0.188,0.08 -0.34,0.1c-0.153,0.02 -0.35,0.029 -0.592,0.029c-0.234,0 -0.42,-0.006 -0.557,-0.017c-0.136,-0.012 -0.246,-0.032 -0.328,-0.059c-0.082,-0.027 -0.144,-0.062 -0.187,-0.105c-0.043,-0.043 -0.08,-0.092 -0.112,-0.147l-2.531,-4.183l-2.519,4.183c-0.032,0.055 -0.069,0.104 -0.112,0.147c-0.043,0.043 -0.105,0.078 -0.187,0.105c-0.082,0.027 -0.19,0.047 -0.322,0.059c-0.133,0.011 -0.309,0.017 -0.528,0.017c-0.226,0 -0.412,-0.009 -0.556,-0.029c-0.145,-0.02 -0.25,-0.053 -0.317,-0.1c-0.066,-0.046 -0.097,-0.107 -0.094,-0.181c0.004,-0.074 0.041,-0.166 0.112,-0.276l3.281,-5.144l-3.105,-4.957c-0.063,-0.11 -0.096,-0.201 -0.1,-0.276c-0.004,-0.074 0.031,-0.136 0.105,-0.187c0.075,-0.051 0.188,-0.084 0.34,-0.1c0.153,-0.015 0.354,-0.023 0.604,-0.023c0.226,0 0.408,0.006 0.545,0.017c0.136,0.012 0.244,0.03 0.322,0.053c0.078,0.024 0.137,0.055 0.176,0.094c0.039,0.039 0.074,0.086 0.105,0.141l2.403,3.925l2.437,-3.925c0.031,-0.047 0.066,-0.09 0.105,-0.129c0.04,-0.039 0.092,-0.073 0.159,-0.1c0.066,-0.027 0.16,-0.047 0.281,-0.059c0.121,-0.011 0.287,-0.017 0.498,-0.017c0.227,0 0.412,0.008 0.557,0.023c0.144,0.016 0.252,0.045 0.322,0.088c0.07,0.043 0.101,0.104 0.094,0.182c-0.008,0.078 -0.047,0.176 -0.118,0.293l-3.082,4.898l3.258,5.203Z" style="fill-rule:nonzero;"/><path d="M808.045,93.733c0,0.657 -0.117,1.241 -0.351,1.752c-0.235,0.512 -0.573,0.944 -1.014,1.295c-0.441,0.352 -0.986,0.617 -1.635,0.797c-0.648,0.18 -1.39,0.27 -2.226,0.27c-0.781,0 -1.481,-0.082 -2.098,-0.246c-0.617,-0.165 -1.141,-0.407 -1.57,-0.727c-0.43,-0.32 -0.758,-0.715 -0.985,-1.184c-0.226,-0.468 -0.339,-1.004 -0.339,-1.605c0,-0.477 0.078,-0.914 0.234,-1.313c0.156,-0.398 0.381,-0.765 0.674,-1.101c0.293,-0.336 0.654,-0.651 1.084,-0.943c0.429,-0.293 0.914,-0.573 1.453,-0.838c-0.469,-0.243 -0.883,-0.498 -1.242,-0.768c-0.36,-0.269 -0.664,-0.562 -0.914,-0.879c-0.25,-0.316 -0.44,-0.654 -0.569,-1.014c-0.129,-0.359 -0.193,-0.75 -0.193,-1.171c0,-0.532 0.096,-1.03 0.287,-1.495c0.191,-0.464 0.48,-0.869 0.867,-1.212c0.387,-0.344 0.879,-0.616 1.477,-0.815c0.597,-0.199 1.295,-0.299 2.092,-0.299c0.765,0 1.427,0.092 1.986,0.276c0.558,0.183 1.019,0.433 1.383,0.75c0.363,0.316 0.631,0.689 0.802,1.119c0.172,0.429 0.258,0.89 0.258,1.383c0,0.398 -0.064,0.781 -0.193,1.148c-0.129,0.367 -0.318,0.715 -0.568,1.043c-0.25,0.328 -0.557,0.635 -0.92,0.92c-0.364,0.285 -0.78,0.553 -1.248,0.803c0.554,0.273 1.048,0.554 1.482,0.843c0.434,0.289 0.797,0.6 1.09,0.932c0.293,0.332 0.515,0.684 0.668,1.055c0.152,0.371 0.228,0.779 0.228,1.224Zm-2.531,-7.781c0,-0.328 -0.057,-0.625 -0.17,-0.89c-0.113,-0.266 -0.279,-0.493 -0.498,-0.68c-0.219,-0.188 -0.49,-0.33 -0.814,-0.428c-0.325,-0.098 -0.694,-0.146 -1.108,-0.146c-0.844,0 -1.482,0.191 -1.916,0.574c-0.433,0.383 -0.65,0.906 -0.65,1.57c0,0.305 0.053,0.588 0.158,0.85c0.105,0.261 0.27,0.51 0.492,0.744c0.223,0.234 0.504,0.463 0.844,0.685c0.34,0.223 0.744,0.455 1.213,0.698c0.789,-0.407 1.394,-0.856 1.816,-1.348c0.422,-0.492 0.633,-1.035 0.633,-1.629Zm0.492,7.992c0,-0.359 -0.066,-0.685 -0.199,-0.978c-0.133,-0.293 -0.334,-0.567 -0.603,-0.821c-0.27,-0.253 -0.606,-0.5 -1.008,-0.738c-0.403,-0.238 -0.869,-0.486 -1.401,-0.744c-0.492,0.242 -0.924,0.484 -1.295,0.727c-0.371,0.242 -0.675,0.492 -0.914,0.75c-0.238,0.257 -0.418,0.529 -0.539,0.814c-0.121,0.285 -0.181,0.6 -0.181,0.943c0,0.758 0.259,1.344 0.779,1.758c0.519,0.414 1.295,0.621 2.326,0.621c1,0 1.756,-0.209 2.268,-0.627c0.511,-0.418 0.767,-0.986 0.767,-1.705Z" style="fill-rule:nonzero;"/><path d="M828.131,89.819c0,1.313 -0.168,2.459 -0.504,3.44c-0.336,0.98 -0.826,1.793 -1.47,2.437c-0.645,0.645 -1.436,1.127 -2.373,1.448c-0.938,0.32 -2.055,0.48 -3.352,0.48l-3.211,0c-0.18,0 -0.35,-0.061 -0.51,-0.182c-0.16,-0.121 -0.24,-0.334 -0.24,-0.638l0,-13.524c0,-0.304 0.08,-0.517 0.24,-0.638c0.16,-0.122 0.33,-0.182 0.51,-0.182l3.434,0c1.312,0 2.422,0.17 3.328,0.51c0.906,0.34 1.666,0.828 2.279,1.465c0.613,0.636 1.078,1.408 1.395,2.314c0.316,0.906 0.474,1.93 0.474,3.07Zm-2.121,0.082c0,-0.82 -0.101,-1.584 -0.305,-2.291c-0.203,-0.707 -0.521,-1.318 -0.955,-1.834c-0.433,-0.515 -0.982,-0.918 -1.646,-1.207c-0.664,-0.289 -1.52,-0.433 -2.567,-0.433l-2.05,0l0,11.801l2.074,0c0.969,0 1.785,-0.122 2.449,-0.364c0.664,-0.242 1.219,-0.613 1.664,-1.113c0.446,-0.5 0.78,-1.127 1.002,-1.881c0.223,-0.754 0.334,-1.646 0.334,-2.678Z" style="fill-rule:nonzero;"/><path d="M840.823,91.94c0,0.86 -0.114,1.651 -0.34,2.373c-0.227,0.723 -0.565,1.346 -1.014,1.87c-0.449,0.523 -1.012,0.931 -1.687,1.224c-0.676,0.293 -1.459,0.44 -2.35,0.44c-0.867,0 -1.623,-0.129 -2.268,-0.387c-0.644,-0.258 -1.181,-0.633 -1.611,-1.125c-0.43,-0.492 -0.75,-1.09 -0.961,-1.793c-0.211,-0.703 -0.316,-1.5 -0.316,-2.391c0,-0.859 0.111,-1.65 0.334,-2.373c0.222,-0.722 0.558,-1.345 1.008,-1.869c0.449,-0.523 1.009,-0.93 1.681,-1.219c0.672,-0.289 1.457,-0.433 2.356,-0.433c0.867,0 1.623,0.129 2.267,0.387c0.645,0.257 1.182,0.632 1.612,1.125c0.429,0.492 0.752,1.089 0.966,1.793c0.215,0.703 0.323,1.496 0.323,2.378Zm-2.004,0.129c0,-0.57 -0.053,-1.109 -0.16,-1.617c-0.106,-0.508 -0.282,-0.953 -0.526,-1.336c-0.245,-0.383 -0.576,-0.685 -0.993,-0.908c-0.418,-0.223 -0.938,-0.334 -1.561,-0.334c-0.576,0 -1.07,0.102 -1.484,0.305c-0.414,0.203 -0.755,0.49 -1.023,0.861c-0.268,0.371 -0.467,0.811 -0.597,1.318c-0.13,0.508 -0.195,1.063 -0.195,1.664c0,0.579 0.053,1.122 0.159,1.629c0.107,0.508 0.284,0.952 0.532,1.33c0.249,0.379 0.582,0.68 1,0.903c0.417,0.222 0.938,0.334 1.56,0.334c0.568,0 1.061,-0.102 1.479,-0.305c0.417,-0.203 0.76,-0.488 1.028,-0.855c0.268,-0.368 0.465,-0.805 0.592,-1.313c0.126,-0.508 0.189,-1.066 0.189,-1.676Z" style="fill-rule:nonzero;"/><path d="M852.705,97.331c0,0.063 -0.013,0.115 -0.041,0.158c-0.027,0.043 -0.076,0.08 -0.146,0.112c-0.07,0.031 -0.162,0.054 -0.275,0.07c-0.114,0.015 -0.252,0.023 -0.416,0.023c-0.18,0 -0.327,-0.008 -0.44,-0.023c-0.113,-0.016 -0.203,-0.039 -0.269,-0.07c-0.067,-0.032 -0.112,-0.069 -0.135,-0.112c-0.024,-0.043 -0.035,-0.095 -0.035,-0.158l0,-1.395c-0.602,0.665 -1.196,1.149 -1.782,1.454c-0.586,0.304 -1.179,0.457 -1.781,0.457c-0.703,0 -1.295,-0.118 -1.775,-0.352c-0.481,-0.234 -0.869,-0.553 -1.166,-0.955c-0.297,-0.402 -0.51,-0.871 -0.639,-1.406c-0.129,-0.535 -0.193,-1.186 -0.193,-1.951l0,-6.399c0,-0.062 0.013,-0.115 0.041,-0.158c0.027,-0.043 0.08,-0.082 0.158,-0.117c0.078,-0.035 0.18,-0.059 0.305,-0.071c0.125,-0.011 0.281,-0.017 0.468,-0.017c0.188,0 0.344,0.006 0.469,0.017c0.125,0.012 0.225,0.036 0.299,0.071c0.074,0.035 0.127,0.074 0.158,0.117c0.031,0.043 0.047,0.096 0.047,0.158l0,6.141c0,0.617 0.045,1.111 0.135,1.482c0.09,0.371 0.226,0.688 0.41,0.949c0.184,0.262 0.416,0.465 0.697,0.61c0.281,0.144 0.61,0.217 0.985,0.217c0.484,0 0.966,-0.172 1.447,-0.516c0.48,-0.344 0.99,-0.848 1.529,-1.512l0,-7.371c0,-0.062 0.014,-0.115 0.041,-0.158c0.028,-0.043 0.08,-0.082 0.158,-0.117c0.079,-0.035 0.178,-0.059 0.299,-0.071c0.121,-0.011 0.28,-0.017 0.475,-0.017c0.187,0 0.344,0.006 0.469,0.017c0.125,0.012 0.222,0.036 0.293,0.071c0.07,0.035 0.123,0.074 0.158,0.117c0.035,0.043 0.052,0.096 0.052,0.158l0,10.547Z" style="fill-rule:nonzero;"/><path d="M865.983,91.917c0,0.914 -0.1,1.736 -0.299,2.467c-0.199,0.73 -0.492,1.353 -0.879,1.869c-0.387,0.516 -0.861,0.91 -1.424,1.183c-0.562,0.274 -1.207,0.411 -1.933,0.411c-0.336,0 -0.647,-0.034 -0.932,-0.1c-0.285,-0.066 -0.564,-0.174 -0.838,-0.322c-0.273,-0.149 -0.547,-0.336 -0.82,-0.563c-0.274,-0.226 -0.563,-0.5 -0.867,-0.82l0,1.289c0,0.063 -0.016,0.117 -0.047,0.164c-0.031,0.047 -0.082,0.084 -0.153,0.111c-0.07,0.028 -0.158,0.049 -0.263,0.065c-0.106,0.015 -0.241,0.023 -0.405,0.023c-0.156,0 -0.289,-0.008 -0.398,-0.023c-0.109,-0.016 -0.199,-0.037 -0.27,-0.065c-0.07,-0.027 -0.117,-0.064 -0.14,-0.111c-0.024,-0.047 -0.035,-0.101 -0.035,-0.164l0,-15.656c0,-0.063 0.013,-0.117 0.041,-0.164c0.027,-0.047 0.078,-0.086 0.152,-0.117c0.074,-0.032 0.174,-0.055 0.299,-0.071c0.125,-0.015 0.281,-0.023 0.469,-0.023c0.195,0 0.355,0.008 0.48,0.023c0.125,0.016 0.223,0.039 0.293,0.071c0.07,0.031 0.121,0.07 0.152,0.117c0.032,0.047 0.047,0.101 0.047,0.164l0,6.316c0.313,-0.32 0.616,-0.59 0.908,-0.808c0.293,-0.219 0.581,-0.397 0.862,-0.534c0.281,-0.136 0.562,-0.236 0.844,-0.298c0.281,-0.063 0.578,-0.094 0.89,-0.094c0.766,0 1.42,0.152 1.963,0.457c0.543,0.305 0.984,0.713 1.324,1.224c0.34,0.512 0.588,1.112 0.744,1.799c0.157,0.688 0.235,1.414 0.235,2.18Zm-2.004,0.223c0,-0.539 -0.041,-1.063 -0.124,-1.571c-0.082,-0.508 -0.226,-0.957 -0.43,-1.347c-0.205,-0.391 -0.476,-0.705 -0.814,-0.944c-0.338,-0.238 -0.758,-0.357 -1.261,-0.357c-0.252,0 -0.5,0.035 -0.743,0.105c-0.244,0.071 -0.491,0.188 -0.743,0.352c-0.252,0.164 -0.513,0.375 -0.784,0.633c-0.271,0.258 -0.56,0.582 -0.867,0.972l0,4.207c0.535,0.649 1.046,1.143 1.533,1.483c0.487,0.34 0.994,0.51 1.521,0.51c0.487,0 0.904,-0.118 1.25,-0.352c0.346,-0.234 0.627,-0.545 0.843,-0.932c0.216,-0.386 0.373,-0.82 0.472,-1.3c0.098,-0.481 0.147,-0.967 0.147,-1.459Z" style="fill-rule:nonzero;"/><path d="M870.823,97.331c0,0.063 -0.016,0.115 -0.047,0.158c-0.031,0.043 -0.082,0.08 -0.153,0.112c-0.07,0.031 -0.168,0.054 -0.293,0.07c-0.125,0.015 -0.285,0.023 -0.48,0.023c-0.188,0 -0.344,-0.008 -0.469,-0.023c-0.125,-0.016 -0.224,-0.039 -0.299,-0.07c-0.074,-0.032 -0.125,-0.069 -0.152,-0.112c-0.027,-0.043 -0.041,-0.095 -0.041,-0.158l0,-15.656c0,-0.063 0.014,-0.117 0.041,-0.164c0.027,-0.047 0.078,-0.086 0.152,-0.117c0.075,-0.032 0.174,-0.055 0.299,-0.071c0.125,-0.015 0.281,-0.023 0.469,-0.023c0.195,0 0.355,0.008 0.48,0.023c0.125,0.016 0.223,0.039 0.293,0.071c0.071,0.031 0.122,0.07 0.153,0.117c0.031,0.047 0.047,0.101 0.047,0.164l0,15.656Z" style="fill-rule:nonzero;"/><path d="M883.397,91.601c0,0.304 -0.077,0.521 -0.23,0.65c-0.153,0.129 -0.327,0.193 -0.524,0.193l-6.945,0c0,0.586 0.059,1.114 0.176,1.582c0.118,0.469 0.314,0.871 0.589,1.207c0.275,0.336 0.632,0.594 1.072,0.774c0.439,0.179 0.977,0.269 1.613,0.269c0.502,0 0.95,-0.041 1.342,-0.123c0.393,-0.082 0.732,-0.174 1.019,-0.275c0.287,-0.102 0.522,-0.193 0.707,-0.275c0.184,-0.083 0.323,-0.124 0.418,-0.124c0.055,0 0.104,0.014 0.147,0.041c0.043,0.028 0.076,0.069 0.1,0.124c0.023,0.054 0.041,0.13 0.053,0.228c0.012,0.098 0.018,0.217 0.018,0.357c0,0.102 -0.004,0.19 -0.012,0.264c-0.008,0.074 -0.018,0.141 -0.029,0.199c-0.012,0.059 -0.032,0.112 -0.059,0.159c-0.027,0.046 -0.063,0.091 -0.106,0.134c-0.042,0.043 -0.169,0.114 -0.38,0.211c-0.211,0.098 -0.485,0.194 -0.821,0.287c-0.336,0.094 -0.724,0.178 -1.166,0.252c-0.441,0.075 -0.912,0.112 -1.412,0.112c-0.867,0 -1.627,-0.121 -2.279,-0.364c-0.652,-0.242 -1.201,-0.601 -1.647,-1.078c-0.445,-0.476 -0.781,-1.074 -1.007,-1.793c-0.227,-0.718 -0.34,-1.554 -0.34,-2.508c0,-0.906 0.117,-1.72 0.351,-2.443c0.235,-0.723 0.573,-1.336 1.014,-1.84c0.441,-0.504 0.975,-0.89 1.6,-1.16c0.625,-0.269 1.324,-0.404 2.097,-0.404c0.828,0 1.533,0.133 2.115,0.398c0.583,0.266 1.061,0.623 1.436,1.073c0.375,0.449 0.65,0.976 0.826,1.582c0.176,0.605 0.264,1.251 0.264,1.939l0,0.352Zm-1.945,-0.575c0.023,-1.015 -0.203,-1.812 -0.678,-2.39c-0.476,-0.578 -1.181,-0.867 -2.117,-0.867c-0.479,0 -0.9,0.089 -1.261,0.269c-0.362,0.18 -0.665,0.418 -0.908,0.715c-0.244,0.297 -0.433,0.642 -0.566,1.037c-0.134,0.395 -0.209,0.807 -0.224,1.236l5.754,0Z" style="fill-rule:nonzero;"/><path d="M983.479,83.327c0,0.141 -0.006,0.268 -0.018,0.381c-0.012,0.113 -0.027,0.223 -0.047,0.328c-0.019,0.106 -0.047,0.207 -0.082,0.305c-0.035,0.097 -0.076,0.201 -0.123,0.31l-5.461,12.586c-0.039,0.094 -0.088,0.17 -0.146,0.229c-0.059,0.058 -0.133,0.105 -0.223,0.14c-0.09,0.036 -0.205,0.059 -0.346,0.071c-0.14,0.011 -0.312,0.017 -0.515,0.017c-0.266,0 -0.473,-0.011 -0.621,-0.035c-0.149,-0.023 -0.256,-0.06 -0.323,-0.111c-0.066,-0.051 -0.095,-0.113 -0.088,-0.188c0.008,-0.074 0.036,-0.162 0.082,-0.263l5.743,-12.868l-7.278,0c-0.148,0 -0.259,-0.078 -0.334,-0.234c-0.074,-0.156 -0.111,-0.375 -0.111,-0.656c0,-0.149 0.01,-0.278 0.029,-0.387c0.02,-0.109 0.049,-0.201 0.088,-0.275c0.039,-0.074 0.086,-0.129 0.141,-0.164c0.055,-0.035 0.117,-0.053 0.187,-0.053l8.836,0c0.11,0 0.205,0.012 0.287,0.035c0.082,0.024 0.145,0.07 0.188,0.141c0.043,0.07 0.076,0.16 0.099,0.269c0.024,0.11 0.036,0.25 0.036,0.422Z" style="fill-rule:nonzero;"/><path d="M994.377,97.108c0.063,0.11 0.094,0.202 0.094,0.276c0,0.074 -0.037,0.135 -0.112,0.181c-0.074,0.047 -0.187,0.08 -0.339,0.1c-0.153,0.02 -0.35,0.029 -0.592,0.029c-0.235,0 -0.42,-0.006 -0.557,-0.017c-0.137,-0.012 -0.246,-0.032 -0.328,-0.059c-0.082,-0.027 -0.144,-0.062 -0.187,-0.105c-0.043,-0.043 -0.08,-0.092 -0.112,-0.147l-2.531,-4.183l-2.52,4.183c-0.031,0.055 -0.068,0.104 -0.111,0.147c-0.043,0.043 -0.105,0.078 -0.187,0.105c-0.082,0.027 -0.19,0.047 -0.323,0.059c-0.132,0.011 -0.308,0.017 -0.527,0.017c-0.227,0 -0.412,-0.009 -0.557,-0.029c-0.144,-0.02 -0.25,-0.053 -0.316,-0.1c-0.066,-0.046 -0.098,-0.107 -0.094,-0.181c0.004,-0.074 0.041,-0.166 0.112,-0.276l3.281,-5.144l-3.106,-4.957c-0.062,-0.11 -0.095,-0.201 -0.099,-0.276c-0.004,-0.074 0.031,-0.136 0.105,-0.187c0.074,-0.051 0.188,-0.084 0.34,-0.1c0.152,-0.015 0.354,-0.023 0.604,-0.023c0.226,0 0.408,0.006 0.544,0.017c0.137,0.012 0.245,0.03 0.323,0.053c0.078,0.024 0.136,0.055 0.176,0.094c0.039,0.039 0.074,0.086 0.105,0.141l2.402,3.925l2.438,-3.925c0.031,-0.047 0.066,-0.09 0.105,-0.129c0.039,-0.039 0.092,-0.073 0.159,-0.1c0.066,-0.027 0.16,-0.047 0.281,-0.059c0.121,-0.011 0.287,-0.017 0.498,-0.017c0.226,0 0.412,0.008 0.556,0.023c0.145,0.016 0.252,0.045 0.323,0.088c0.07,0.043 0.101,0.104 0.093,0.182c-0.007,0.078 -0.046,0.176 -0.117,0.293l-3.082,4.898l3.258,5.203Z" style="fill-rule:nonzero;"/><path d="M1006.04,83.327c0,0.141 -0.006,0.268 -0.017,0.381c-0.012,0.113 -0.028,0.223 -0.047,0.328c-0.02,0.106 -0.047,0.207 -0.082,0.305c-0.035,0.097 -0.076,0.201 -0.123,0.31l-5.461,12.586c-0.039,0.094 -0.088,0.17 -0.147,0.229c-0.058,0.058 -0.133,0.105 -0.222,0.14c-0.09,0.036 -0.205,0.059 -0.346,0.071c-0.141,0.011 -0.313,0.017 -0.516,0.017c-0.265,0 -0.472,-0.011 -0.621,-0.035c-0.148,-0.023 -0.256,-0.06 -0.322,-0.111c-0.066,-0.051 -0.096,-0.113 -0.088,-0.188c0.008,-0.074 0.035,-0.162 0.082,-0.263l5.742,-12.868l-7.277,0c-0.149,0 -0.26,-0.078 -0.334,-0.234c-0.074,-0.156 -0.111,-0.375 -0.111,-0.656c0,-0.149 0.009,-0.278 0.029,-0.387c0.019,-0.109 0.049,-0.201 0.088,-0.275c0.039,-0.074 0.086,-0.129 0.14,-0.164c0.055,-0.035 0.118,-0.053 0.188,-0.053l8.836,0c0.109,0 0.205,0.012 0.287,0.035c0.082,0.024 0.144,0.07 0.187,0.141c0.043,0.07 0.077,0.16 0.1,0.269c0.024,0.11 0.035,0.25 0.035,0.422Z" style="fill-rule:nonzero;"/><path d="M1026.25,89.819c0,1.313 -0.168,2.459 -0.504,3.44c-0.336,0.98 -0.826,1.793 -1.471,2.437c-0.644,0.645 -1.435,1.127 -2.373,1.448c-0.937,0.32 -2.054,0.48 -3.351,0.48l-3.211,0c-0.18,0 -0.35,-0.061 -0.51,-0.182c-0.16,-0.121 -0.24,-0.334 -0.24,-0.638l0,-13.524c0,-0.304 0.08,-0.517 0.24,-0.638c0.16,-0.122 0.33,-0.182 0.51,-0.182l3.434,0c1.312,0 2.421,0.17 3.328,0.51c0.906,0.34 1.666,0.828 2.279,1.465c0.613,0.636 1.078,1.408 1.394,2.314c0.317,0.906 0.475,1.93 0.475,3.07Zm-2.121,0.082c0,-0.82 -0.102,-1.584 -0.305,-2.291c-0.203,-0.707 -0.521,-1.318 -0.955,-1.834c-0.433,-0.515 -0.982,-0.918 -1.646,-1.207c-0.664,-0.289 -1.52,-0.433 -2.567,-0.433l-2.05,0l0,11.801l2.074,0c0.969,0 1.785,-0.122 2.449,-0.364c0.664,-0.242 1.219,-0.613 1.664,-1.113c0.445,-0.5 0.779,-1.127 1.002,-1.881c0.223,-0.754 0.334,-1.646 0.334,-2.678Z" style="fill-rule:nonzero;"/><path d="M1038.94,91.94c0,0.86 -0.113,1.651 -0.339,2.373c-0.227,0.723 -0.565,1.346 -1.014,1.87c-0.449,0.523 -1.012,0.931 -1.688,1.224c-0.675,0.293 -1.459,0.44 -2.349,0.44c-0.867,0 -1.623,-0.129 -2.268,-0.387c-0.644,-0.258 -1.181,-0.633 -1.611,-1.125c-0.43,-0.492 -0.75,-1.09 -0.961,-1.793c-0.211,-0.703 -0.316,-1.5 -0.316,-2.391c0,-0.859 0.111,-1.65 0.334,-2.373c0.222,-0.722 0.558,-1.345 1.007,-1.869c0.45,-0.523 1.01,-0.93 1.682,-1.219c0.672,-0.289 1.457,-0.433 2.356,-0.433c0.867,0 1.623,0.129 2.267,0.387c0.645,0.257 1.182,0.632 1.611,1.125c0.43,0.492 0.752,1.089 0.967,1.793c0.215,0.703 0.322,1.496 0.322,2.378Zm-2.003,0.129c0,-0.57 -0.054,-1.109 -0.16,-1.617c-0.107,-0.508 -0.282,-0.953 -0.526,-1.336c-0.245,-0.383 -0.576,-0.685 -0.994,-0.908c-0.417,-0.223 -0.938,-0.334 -1.56,-0.334c-0.576,0 -1.071,0.102 -1.484,0.305c-0.414,0.203 -0.755,0.49 -1.023,0.861c-0.268,0.371 -0.467,0.811 -0.597,1.318c-0.13,0.508 -0.195,1.063 -0.195,1.664c0,0.579 0.053,1.122 0.159,1.629c0.107,0.508 0.284,0.952 0.532,1.33c0.249,0.379 0.582,0.68 0.999,0.903c0.418,0.222 0.938,0.334 1.561,0.334c0.568,0 1.061,-0.102 1.478,-0.305c0.418,-0.203 0.761,-0.488 1.029,-0.855c0.268,-0.368 0.465,-0.805 0.591,-1.313c0.126,-0.508 0.19,-1.066 0.19,-1.676Z" style="fill-rule:nonzero;"/><path d="M1050.83,97.331c0,0.063 -0.013,0.115 -0.041,0.158c-0.027,0.043 -0.076,0.08 -0.146,0.112c-0.071,0.031 -0.162,0.054 -0.276,0.07c-0.113,0.015 -0.252,0.023 -0.416,0.023c-0.179,0 -0.326,-0.008 -0.439,-0.023c-0.113,-0.016 -0.203,-0.039 -0.27,-0.07c-0.066,-0.032 -0.111,-0.069 -0.134,-0.112c-0.024,-0.043 -0.036,-0.095 -0.036,-0.158l0,-1.395c-0.601,0.665 -1.195,1.149 -1.781,1.454c-0.586,0.304 -1.179,0.457 -1.781,0.457c-0.703,0 -1.295,-0.118 -1.775,-0.352c-0.481,-0.234 -0.87,-0.553 -1.166,-0.955c-0.297,-0.402 -0.51,-0.871 -0.639,-1.406c-0.129,-0.535 -0.193,-1.186 -0.193,-1.951l0,-6.399c0,-0.062 0.013,-0.115 0.041,-0.158c0.027,-0.043 0.08,-0.082 0.158,-0.117c0.078,-0.035 0.179,-0.059 0.304,-0.071c0.125,-0.011 0.282,-0.017 0.469,-0.017c0.188,0 0.344,0.006 0.469,0.017c0.125,0.012 0.225,0.036 0.299,0.071c0.074,0.035 0.127,0.074 0.158,0.117c0.031,0.043 0.047,0.096 0.047,0.158l0,6.141c0,0.617 0.045,1.111 0.135,1.482c0.089,0.371 0.226,0.688 0.41,0.949c0.183,0.262 0.416,0.465 0.697,0.61c0.281,0.144 0.609,0.217 0.984,0.217c0.485,0 0.967,-0.172 1.448,-0.516c0.48,-0.344 0.99,-0.848 1.529,-1.512l0,-7.371c0,-0.062 0.014,-0.115 0.041,-0.158c0.027,-0.043 0.08,-0.082 0.158,-0.117c0.078,-0.035 0.178,-0.059 0.299,-0.071c0.121,-0.011 0.279,-0.017 0.475,-0.017c0.187,0 0.343,0.006 0.468,0.017c0.125,0.012 0.223,0.036 0.293,0.071c0.071,0.035 0.123,0.074 0.159,0.117c0.035,0.043 0.052,0.096 0.052,0.158l0,10.547Z" style="fill-rule:nonzero;"/><path d="M1064.1,91.917c0,0.914 -0.1,1.736 -0.299,2.467c-0.199,0.73 -0.492,1.353 -0.879,1.869c-0.387,0.516 -0.861,0.91 -1.424,1.183c-0.562,0.274 -1.207,0.411 -1.934,0.411c-0.335,0 -0.646,-0.034 -0.931,-0.1c-0.285,-0.066 -0.565,-0.174 -0.838,-0.322c-0.273,-0.149 -0.547,-0.336 -0.82,-0.563c-0.274,-0.226 -0.563,-0.5 -0.868,-0.82l0,1.289c0,0.063 -0.015,0.117 -0.046,0.164c-0.032,0.047 -0.082,0.084 -0.153,0.111c-0.07,0.028 -0.158,0.049 -0.263,0.065c-0.106,0.015 -0.241,0.023 -0.405,0.023c-0.156,0 -0.289,-0.008 -0.398,-0.023c-0.11,-0.016 -0.199,-0.037 -0.27,-0.065c-0.07,-0.027 -0.117,-0.064 -0.14,-0.111c-0.024,-0.047 -0.035,-0.101 -0.035,-0.164l0,-15.656c0,-0.063 0.013,-0.117 0.041,-0.164c0.027,-0.047 0.078,-0.086 0.152,-0.117c0.074,-0.032 0.174,-0.055 0.299,-0.071c0.125,-0.015 0.281,-0.023 0.468,-0.023c0.196,0 0.356,0.008 0.481,0.023c0.125,0.016 0.223,0.039 0.293,0.071c0.07,0.031 0.121,0.07 0.152,0.117c0.031,0.047 0.047,0.101 0.047,0.164l0,6.316c0.313,-0.32 0.615,-0.59 0.908,-0.808c0.293,-0.219 0.58,-0.397 0.862,-0.534c0.281,-0.136 0.562,-0.236 0.843,-0.298c0.282,-0.063 0.579,-0.094 0.891,-0.094c0.766,0 1.42,0.152 1.963,0.457c0.543,0.305 0.984,0.713 1.324,1.224c0.34,0.512 0.588,1.112 0.744,1.799c0.157,0.688 0.235,1.414 0.235,2.18Zm-2.004,0.223c0,-0.539 -0.042,-1.063 -0.124,-1.571c-0.083,-0.508 -0.226,-0.957 -0.43,-1.347c-0.205,-0.391 -0.476,-0.705 -0.814,-0.944c-0.338,-0.238 -0.758,-0.357 -1.262,-0.357c-0.251,0 -0.499,0.035 -0.742,0.105c-0.244,0.071 -0.492,0.188 -0.743,0.352c-0.252,0.164 -0.513,0.375 -0.784,0.633c-0.272,0.258 -0.56,0.582 -0.867,0.972l0,4.207c0.535,0.649 1.046,1.143 1.533,1.483c0.487,0.34 0.994,0.51 1.521,0.51c0.487,0 0.904,-0.118 1.25,-0.352c0.346,-0.234 0.627,-0.545 0.843,-0.932c0.216,-0.386 0.373,-0.82 0.471,-1.3c0.099,-0.481 0.148,-0.967 0.148,-1.459Z" style="fill-rule:nonzero;"/><path d="M1068.94,97.331c0,0.063 -0.015,0.115 -0.046,0.158c-0.032,0.043 -0.082,0.08 -0.153,0.112c-0.07,0.031 -0.168,0.054 -0.293,0.07c-0.125,0.015 -0.285,0.023 -0.48,0.023c-0.188,0 -0.344,-0.008 -0.469,-0.023c-0.125,-0.016 -0.225,-0.039 -0.299,-0.07c-0.074,-0.032 -0.125,-0.069 -0.152,-0.112c-0.027,-0.043 -0.041,-0.095 -0.041,-0.158l0,-15.656c0,-0.063 0.014,-0.117 0.041,-0.164c0.027,-0.047 0.078,-0.086 0.152,-0.117c0.074,-0.032 0.174,-0.055 0.299,-0.071c0.125,-0.015 0.281,-0.023 0.469,-0.023c0.195,0 0.355,0.008 0.48,0.023c0.125,0.016 0.223,0.039 0.293,0.071c0.071,0.031 0.121,0.07 0.153,0.117c0.031,0.047 0.046,0.101 0.046,0.164l0,15.656Z" style="fill-rule:nonzero;"/><path d="M1081.52,91.601c0,0.304 -0.077,0.521 -0.23,0.65c-0.153,0.129 -0.327,0.193 -0.524,0.193l-6.946,0c0,0.586 0.059,1.114 0.177,1.582c0.118,0.469 0.314,0.871 0.589,1.207c0.275,0.336 0.632,0.594 1.071,0.774c0.44,0.179 0.978,0.269 1.614,0.269c0.502,0 0.95,-0.041 1.342,-0.123c0.393,-0.082 0.732,-0.174 1.019,-0.275c0.286,-0.102 0.522,-0.193 0.706,-0.275c0.185,-0.083 0.324,-0.124 0.419,-0.124c0.054,0 0.103,0.014 0.147,0.041c0.043,0.028 0.076,0.069 0.1,0.124c0.023,0.054 0.041,0.13 0.053,0.228c0.011,0.098 0.017,0.217 0.017,0.357c0,0.102 -0.004,0.19 -0.011,0.264c-0.008,0.074 -0.018,0.141 -0.03,0.199c-0.011,0.059 -0.031,0.112 -0.058,0.159c-0.028,0.046 -0.063,0.091 -0.106,0.134c-0.043,0.043 -0.17,0.114 -0.381,0.211c-0.21,0.098 -0.484,0.194 -0.82,0.287c-0.336,0.094 -0.724,0.178 -1.166,0.252c-0.441,0.075 -0.912,0.112 -1.412,0.112c-0.867,0 -1.627,-0.121 -2.279,-0.364c-0.653,-0.242 -1.201,-0.601 -1.647,-1.078c-0.445,-0.476 -0.781,-1.074 -1.008,-1.793c-0.226,-0.718 -0.339,-1.554 -0.339,-2.508c0,-0.906 0.117,-1.72 0.351,-2.443c0.235,-0.723 0.572,-1.336 1.014,-1.84c0.441,-0.504 0.974,-0.89 1.599,-1.16c0.625,-0.269 1.325,-0.404 2.098,-0.404c0.828,0 1.533,0.133 2.115,0.398c0.582,0.266 1.061,0.623 1.436,1.073c0.375,0.449 0.65,0.976 0.826,1.582c0.176,0.605 0.264,1.251 0.264,1.939l0,0.352Zm-1.946,-0.575c0.024,-1.015 -0.202,-1.812 -0.678,-2.39c-0.475,-0.578 -1.181,-0.867 -2.116,-0.867c-0.479,0 -0.9,0.089 -1.262,0.269c-0.361,0.18 -0.664,0.418 -0.908,0.715c-0.243,0.297 -0.432,0.642 -0.565,1.037c-0.134,0.395 -0.209,0.807 -0.225,1.236l5.754,0Z" style="fill-rule:nonzero;"/><rect x="161.241" y="114.827" width="184.477" height="14.053" style="fill:#43bc00;"/><rect x="359.771" y="114.827" width="177.451" height="14.053" style="fill:#43bc00;"/><rect x="551.274" y="114.827" width="177.451" height="14.053" style="fill:#43bc00;"/><rect x="742.778" y="114.827" width="177.482" height="14.053" style="fill:#43bc00;"/><rect x="934.313" y="114.827" width="184.477" height="14.053" style="fill:#43bc00;"/></g><rect x="0" y="0" width="248.786" height="150" style="fill:url(#_Linear1);"/><rect x="1031.21" y="0" width="248.786" height="149.576" style="fill:url(#_Linear2);"/><defs><linearGradient id="_Linear1" x1="0" y1="0" x2="1" y2="0" gradientUnits="userSpaceOnUse" gradientTransform="matrix(192.913,0,0,116.313,55.873,75)"><stop offset="0" style="stop-color:#fff;stop-opacity:1"/><stop offset="1" style="stop-color:#fff;stop-opacity:0"/></linearGradient><linearGradient id="_Linear2" x1="0" y1="0" x2="1" y2="0" gradientUnits="userSpaceOnUse" gradientTransform="matrix(-192.913,2.3625e-14,-1.4204e-14,-115.984,1224.13,74.7882)"><stop offset="0" style="stop-color:#fff;stop-opacity:1"/><stop offset="1" style="stop-color:#fff;stop-opacity:0"/></linearGradient></defs></svg>