<?xml version="1.0" encoding="UTF-8" standalone="no"?><!DOCTYPE svg PUBLIC "-//W3C//DTD SVG 1.1//EN" "http://www.w3.org/Graphics/SVG/1.1/DTD/svg11.dtd"><svg width="100%" height="100%" viewBox="0 0 1280 100" version="1.1" xmlns="http://www.w3.org/2000/svg" xmlns:xlink="http://www.w3.org/1999/xlink" xml:space="preserve" xmlns:serif="http://www.serif.com/" style="fill-rule:evenodd;clip-rule:evenodd;stroke-linejoin:round;stroke-miterlimit:2;"><g><rect x="404.159" y="65.173" width="228.858" height="14.053" style="fill:#43bc00;"/><path d="M506.287,53.912c-0.031,0.11 -0.078,0.198 -0.141,0.264c-0.062,0.066 -0.148,0.117 -0.258,0.152c-0.109,0.036 -0.244,0.061 -0.404,0.077c-0.16,0.015 -0.357,0.023 -0.592,0.023c-0.242,0 -0.447,-0.008 -0.615,-0.023c-0.168,-0.016 -0.307,-0.041 -0.416,-0.077c-0.109,-0.035 -0.191,-0.086 -0.246,-0.152c-0.055,-0.066 -0.098,-0.154 -0.129,-0.264l-3.176,-11.449l-0.023,0l-2.93,11.449c-0.023,0.11 -0.062,0.198 -0.117,0.264c-0.055,0.066 -0.133,0.117 -0.234,0.152c-0.102,0.036 -0.233,0.061 -0.393,0.077c-0.16,0.015 -0.365,0.023 -0.615,0.023c-0.258,0 -0.473,-0.008 -0.645,-0.023c-0.172,-0.016 -0.312,-0.041 -0.422,-0.077c-0.109,-0.035 -0.193,-0.086 -0.252,-0.152c-0.058,-0.066 -0.099,-0.154 -0.123,-0.264l-4.007,-14.004c-0.047,-0.179 -0.073,-0.32 -0.077,-0.421c-0.004,-0.102 0.028,-0.18 0.094,-0.235c0.066,-0.054 0.174,-0.09 0.322,-0.105c0.149,-0.016 0.348,-0.024 0.598,-0.024c0.242,0 0.434,0.006 0.574,0.018c0.141,0.012 0.248,0.033 0.322,0.064c0.075,0.032 0.125,0.075 0.153,0.129c0.027,0.055 0.049,0.125 0.064,0.211l3.41,12.703l0.012,0l3.235,-12.679c0.023,-0.086 0.052,-0.159 0.087,-0.217c0.036,-0.059 0.092,-0.104 0.17,-0.135c0.078,-0.031 0.19,-0.055 0.334,-0.07c0.145,-0.016 0.334,-0.024 0.569,-0.024c0.218,0 0.392,0.008 0.521,0.024c0.129,0.015 0.233,0.039 0.311,0.07c0.078,0.031 0.134,0.076 0.17,0.135c0.035,0.058 0.064,0.131 0.088,0.217l3.48,12.679l0.023,0l3.34,-12.691c0.024,-0.078 0.047,-0.147 0.071,-0.205c0.023,-0.059 0.072,-0.104 0.146,-0.135c0.074,-0.031 0.18,-0.055 0.316,-0.07c0.137,-0.016 0.319,-0.024 0.545,-0.024c0.235,0 0.42,0.01 0.557,0.03c0.137,0.019 0.236,0.056 0.299,0.111c0.062,0.055 0.092,0.133 0.088,0.234c-0.004,0.102 -0.026,0.242 -0.065,0.422l-4.019,13.992Z" style="fill-rule:nonzero;"/><path d="M520.009,54.076c0,0.094 -0.031,0.164 -0.093,0.211c-0.063,0.047 -0.149,0.082 -0.258,0.106c-0.109,0.023 -0.27,0.035 -0.481,0.035c-0.203,0 -0.365,-0.012 -0.486,-0.035c-0.121,-0.024 -0.209,-0.059 -0.264,-0.106c-0.054,-0.047 -0.082,-0.117 -0.082,-0.211l0,-1.054c-0.461,0.492 -0.974,0.875 -1.541,1.148c-0.566,0.274 -1.166,0.41 -1.798,0.41c-0.555,0 -1.057,-0.072 -1.506,-0.216c-0.45,-0.145 -0.832,-0.354 -1.149,-0.627c-0.316,-0.274 -0.562,-0.61 -0.738,-1.008c-0.176,-0.399 -0.264,-0.852 -0.264,-1.36c0,-0.593 0.121,-1.109 0.364,-1.546c0.242,-0.438 0.589,-0.801 1.043,-1.09c0.453,-0.289 1.007,-0.506 1.664,-0.651c0.656,-0.144 1.394,-0.217 2.214,-0.217l1.454,0l0,-0.82c0,-0.406 -0.043,-0.765 -0.129,-1.078c-0.086,-0.312 -0.225,-0.572 -0.416,-0.779c-0.192,-0.207 -0.44,-0.364 -0.744,-0.469c-0.305,-0.105 -0.68,-0.158 -1.125,-0.158c-0.477,0 -0.905,0.056 -1.284,0.17c-0.379,0.113 -0.711,0.238 -0.996,0.375c-0.285,0.136 -0.523,0.261 -0.715,0.375c-0.191,0.113 -0.334,0.17 -0.427,0.17c-0.063,0 -0.118,-0.016 -0.164,-0.047c-0.047,-0.031 -0.088,-0.078 -0.123,-0.141c-0.036,-0.062 -0.061,-0.142 -0.077,-0.24c-0.015,-0.098 -0.023,-0.205 -0.023,-0.322c0,-0.196 0.014,-0.35 0.041,-0.463c0.027,-0.114 0.094,-0.221 0.199,-0.323c0.106,-0.101 0.287,-0.22 0.545,-0.357c0.258,-0.137 0.555,-0.262 0.891,-0.375c0.336,-0.113 0.703,-0.207 1.101,-0.281c0.399,-0.074 0.801,-0.112 1.207,-0.112c0.758,0 1.403,0.086 1.934,0.258c0.531,0.172 0.961,0.424 1.289,0.756c0.328,0.332 0.566,0.744 0.715,1.236c0.148,0.493 0.222,1.067 0.222,1.723l0,7.113Zm-1.921,-4.816l-1.653,0c-0.531,0 -0.992,0.045 -1.383,0.135c-0.39,0.09 -0.714,0.222 -0.972,0.398c-0.258,0.176 -0.448,0.387 -0.569,0.633c-0.121,0.246 -0.181,0.529 -0.181,0.85c0,0.547 0.174,0.982 0.521,1.306c0.348,0.324 0.834,0.487 1.459,0.487c0.508,0 0.979,-0.129 1.412,-0.387c0.434,-0.258 0.889,-0.652 1.366,-1.184l0,-2.238Z" style="fill-rule:nonzero;"/><path d="M525.494,54.065c0,0.062 -0.016,0.115 -0.047,0.158c-0.031,0.043 -0.082,0.08 -0.152,0.111c-0.071,0.031 -0.168,0.055 -0.293,0.071c-0.125,0.015 -0.286,0.023 -0.481,0.023c-0.187,0 -0.344,-0.008 -0.469,-0.023c-0.125,-0.016 -0.224,-0.04 -0.298,-0.071c-0.075,-0.031 -0.125,-0.068 -0.153,-0.111c-0.027,-0.043 -0.041,-0.096 -0.041,-0.158l0,-15.657c0,-0.062 0.014,-0.117 0.041,-0.164c0.028,-0.046 0.078,-0.086 0.153,-0.117c0.074,-0.031 0.173,-0.054 0.298,-0.07c0.125,-0.016 0.282,-0.024 0.469,-0.024c0.195,0 0.356,0.008 0.481,0.024c0.125,0.016 0.222,0.039 0.293,0.07c0.07,0.031 0.121,0.071 0.152,0.117c0.031,0.047 0.047,0.102 0.047,0.164l0,15.657Z" style="fill-rule:nonzero;"/><path d="M531.002,54.065c0,0.062 -0.016,0.115 -0.047,0.158c-0.031,0.043 -0.082,0.08 -0.153,0.111c-0.07,0.031 -0.168,0.055 -0.293,0.071c-0.125,0.015 -0.285,0.023 -0.48,0.023c-0.188,0 -0.344,-0.008 -0.469,-0.023c-0.125,-0.016 -0.224,-0.04 -0.299,-0.071c-0.074,-0.031 -0.125,-0.068 -0.152,-0.111c-0.027,-0.043 -0.041,-0.096 -0.041,-0.158l0,-15.657c0,-0.062 0.014,-0.117 0.041,-0.164c0.027,-0.046 0.078,-0.086 0.152,-0.117c0.075,-0.031 0.174,-0.054 0.299,-0.07c0.125,-0.016 0.281,-0.024 0.469,-0.024c0.195,0 0.355,0.008 0.48,0.024c0.125,0.016 0.223,0.039 0.293,0.07c0.071,0.031 0.122,0.071 0.153,0.117c0.031,0.047 0.047,0.102 0.047,0.164l0,15.657Z" style="fill-rule:nonzero;"/><path d="M541.197,51.194c0,0.539 -0.1,1.019 -0.299,1.441c-0.199,0.422 -0.482,0.777 -0.849,1.066c-0.368,0.289 -0.805,0.508 -1.313,0.657c-0.508,0.148 -1.066,0.222 -1.676,0.222c-0.375,0 -0.732,-0.029 -1.072,-0.088c-0.34,-0.058 -0.645,-0.132 -0.914,-0.222c-0.27,-0.09 -0.498,-0.184 -0.686,-0.281c-0.187,-0.098 -0.324,-0.186 -0.41,-0.264c-0.086,-0.078 -0.148,-0.188 -0.187,-0.328c-0.039,-0.141 -0.059,-0.332 -0.059,-0.574c0,-0.149 0.008,-0.274 0.024,-0.375c0.015,-0.102 0.035,-0.184 0.058,-0.247c0.024,-0.062 0.057,-0.107 0.1,-0.134c0.043,-0.028 0.092,-0.041 0.146,-0.041c0.086,0 0.213,0.052 0.381,0.158c0.168,0.105 0.375,0.221 0.621,0.346c0.246,0.125 0.537,0.24 0.873,0.345c0.336,0.106 0.723,0.158 1.16,0.158c0.329,0 0.625,-0.035 0.891,-0.105c0.266,-0.07 0.496,-0.174 0.691,-0.311c0.196,-0.136 0.346,-0.31 0.452,-0.521c0.105,-0.211 0.158,-0.461 0.158,-0.75c0,-0.297 -0.076,-0.547 -0.229,-0.75c-0.152,-0.203 -0.353,-0.383 -0.603,-0.539c-0.25,-0.156 -0.531,-0.295 -0.844,-0.416c-0.312,-0.121 -0.635,-0.248 -0.967,-0.381c-0.332,-0.133 -0.656,-0.283 -0.972,-0.451c-0.317,-0.168 -0.6,-0.373 -0.85,-0.615c-0.25,-0.243 -0.451,-0.532 -0.604,-0.868c-0.152,-0.336 -0.228,-0.738 -0.228,-1.207c0,-0.414 0.08,-0.81 0.24,-1.189c0.16,-0.379 0.401,-0.711 0.721,-0.996c0.32,-0.285 0.721,-0.514 1.201,-0.686c0.48,-0.172 1.041,-0.258 1.682,-0.258c0.281,0 0.562,0.024 0.843,0.071c0.282,0.047 0.536,0.105 0.762,0.176c0.227,0.07 0.42,0.146 0.58,0.228c0.16,0.082 0.281,0.154 0.363,0.217c0.083,0.062 0.137,0.117 0.165,0.164c0.027,0.047 0.046,0.1 0.058,0.158c0.012,0.059 0.024,0.131 0.035,0.217c0.012,0.086 0.018,0.191 0.018,0.316c0,0.133 -0.006,0.248 -0.018,0.346c-0.011,0.098 -0.031,0.178 -0.058,0.24c-0.028,0.063 -0.061,0.108 -0.1,0.135c-0.039,0.027 -0.082,0.041 -0.129,0.041c-0.07,0 -0.172,-0.043 -0.304,-0.129c-0.133,-0.086 -0.305,-0.178 -0.516,-0.275c-0.211,-0.098 -0.459,-0.19 -0.744,-0.276c-0.285,-0.086 -0.612,-0.129 -0.979,-0.129c-0.328,0 -0.617,0.038 -0.867,0.112c-0.25,0.074 -0.455,0.179 -0.615,0.316c-0.16,0.137 -0.281,0.299 -0.363,0.487c-0.083,0.187 -0.124,0.39 -0.124,0.609c0,0.305 0.079,0.56 0.235,0.767c0.156,0.208 0.359,0.389 0.609,0.545c0.25,0.157 0.535,0.297 0.856,0.422c0.32,0.125 0.646,0.254 0.978,0.387c0.332,0.133 0.66,0.281 0.985,0.445c0.324,0.164 0.611,0.364 0.861,0.598c0.25,0.234 0.451,0.516 0.603,0.844c0.153,0.328 0.229,0.718 0.229,1.172Z" style="fill-rule:nonzero;"/><rect x="161.272" y="65.197" width="228.858" height="14.053" style="fill:#43bc00;"/><rect x="39.634" y="65.221" width="107.609" height="14.053" style="fill:#43bc00;"/><rect x="1132.76" y="65.221" width="107.609" height="14.053" style="fill:#43bc00;"/><path d="M254.849,40.085c0,0.148 -0.008,0.277 -0.023,0.387c-0.016,0.109 -0.043,0.197 -0.082,0.263c-0.039,0.067 -0.084,0.115 -0.135,0.147c-0.051,0.031 -0.104,0.047 -0.158,0.047l-5.555,0l0,5.156l5.25,0c0.055,0 0.107,0.013 0.158,0.041c0.051,0.027 0.096,0.072 0.135,0.135c0.039,0.062 0.066,0.146 0.082,0.252c0.016,0.105 0.023,0.24 0.023,0.404c0,0.148 -0.007,0.275 -0.023,0.381c-0.016,0.105 -0.043,0.191 -0.082,0.257c-0.039,0.067 -0.084,0.118 -0.135,0.153c-0.051,0.035 -0.103,0.053 -0.158,0.053l-5.25,0l0,6.316c0,0.055 -0.016,0.107 -0.047,0.158c-0.031,0.051 -0.086,0.09 -0.164,0.117c-0.078,0.028 -0.18,0.051 -0.305,0.071c-0.125,0.019 -0.289,0.029 -0.492,0.029c-0.187,0 -0.348,-0.01 -0.48,-0.029c-0.133,-0.02 -0.239,-0.043 -0.317,-0.071c-0.078,-0.027 -0.133,-0.066 -0.164,-0.117c-0.031,-0.051 -0.047,-0.103 -0.047,-0.158l0,-14.039c0,-0.305 0.08,-0.518 0.241,-0.639c0.16,-0.121 0.33,-0.181 0.509,-0.181l6.821,0c0.054,0 0.107,0.015 0.158,0.046c0.051,0.032 0.096,0.083 0.135,0.153c0.039,0.07 0.066,0.162 0.082,0.275c0.015,0.113 0.023,0.244 0.023,0.393Z" style="fill-rule:nonzero;"/><path d="M259.619,54.089c0,0.062 -0.016,0.115 -0.047,0.158c-0.032,0.043 -0.082,0.08 -0.153,0.111c-0.07,0.031 -0.168,0.055 -0.293,0.071c-0.125,0.015 -0.285,0.023 -0.48,0.023c-0.188,0 -0.344,-0.008 -0.469,-0.023c-0.125,-0.016 -0.224,-0.04 -0.299,-0.071c-0.074,-0.031 -0.125,-0.068 -0.152,-0.111c-0.027,-0.043 -0.041,-0.096 -0.041,-0.158l0,-15.657c0,-0.062 0.014,-0.117 0.041,-0.164c0.027,-0.046 0.078,-0.086 0.152,-0.117c0.075,-0.031 0.174,-0.054 0.299,-0.07c0.125,-0.016 0.281,-0.024 0.469,-0.024c0.195,0 0.355,0.008 0.48,0.024c0.125,0.016 0.223,0.039 0.293,0.07c0.071,0.031 0.121,0.071 0.153,0.117c0.031,0.047 0.047,0.102 0.047,0.164l0,15.657Z" style="fill-rule:nonzero;"/><path d="M273.001,48.698c0,0.859 -0.113,1.65 -0.339,2.373c-0.227,0.723 -0.565,1.346 -1.014,1.869c-0.449,0.524 -1.012,0.932 -1.688,1.225c-0.675,0.293 -1.459,0.439 -2.349,0.439c-0.867,0 -1.623,-0.129 -2.268,-0.386c-0.644,-0.258 -1.181,-0.633 -1.611,-1.125c-0.43,-0.493 -0.75,-1.09 -0.961,-1.793c-0.211,-0.703 -0.316,-1.5 -0.316,-2.391c0,-0.859 0.111,-1.65 0.334,-2.373c0.222,-0.723 0.558,-1.346 1.007,-1.869c0.45,-0.524 1.01,-0.93 1.682,-1.219c0.672,-0.289 1.457,-0.434 2.355,-0.434c0.868,0 1.624,0.129 2.268,0.387c0.645,0.258 1.182,0.633 1.611,1.125c0.43,0.492 0.752,1.09 0.967,1.793c0.215,0.703 0.322,1.496 0.322,2.379Zm-2.003,0.129c0,-0.57 -0.054,-1.109 -0.16,-1.617c-0.107,-0.508 -0.282,-0.953 -0.526,-1.336c-0.245,-0.383 -0.576,-0.686 -0.994,-0.908c-0.417,-0.223 -0.938,-0.334 -1.561,-0.334c-0.575,0 -1.07,0.101 -1.483,0.304c-0.414,0.203 -0.755,0.491 -1.023,0.862c-0.268,0.371 -0.467,0.81 -0.597,1.318c-0.13,0.508 -0.196,1.063 -0.196,1.664c0,0.578 0.054,1.121 0.16,1.629c0.107,0.508 0.284,0.951 0.532,1.33c0.249,0.379 0.582,0.68 0.999,0.902c0.418,0.223 0.938,0.334 1.561,0.334c0.568,0 1.061,-0.101 1.478,-0.304c0.418,-0.203 0.761,-0.489 1.029,-0.856c0.268,-0.367 0.465,-0.804 0.591,-1.312c0.126,-0.508 0.19,-1.067 0.19,-1.676Z" style="fill-rule:nonzero;"/><path d="M285.658,48.698c0,0.859 -0.114,1.65 -0.34,2.373c-0.227,0.723 -0.565,1.346 -1.014,1.869c-0.449,0.524 -1.012,0.932 -1.687,1.225c-0.676,0.293 -1.459,0.439 -2.35,0.439c-0.867,0 -1.623,-0.129 -2.268,-0.386c-0.644,-0.258 -1.181,-0.633 -1.611,-1.125c-0.43,-0.493 -0.75,-1.09 -0.961,-1.793c-0.211,-0.703 -0.316,-1.5 -0.316,-2.391c0,-0.859 0.111,-1.65 0.334,-2.373c0.222,-0.723 0.558,-1.346 1.008,-1.869c0.449,-0.524 1.009,-0.93 1.681,-1.219c0.672,-0.289 1.457,-0.434 2.356,-0.434c0.867,0 1.623,0.129 2.267,0.387c0.645,0.258 1.182,0.633 1.612,1.125c0.429,0.492 0.752,1.09 0.966,1.793c0.215,0.703 0.323,1.496 0.323,2.379Zm-2.004,0.129c0,-0.57 -0.053,-1.109 -0.16,-1.617c-0.106,-0.508 -0.282,-0.953 -0.526,-1.336c-0.245,-0.383 -0.576,-0.686 -0.993,-0.908c-0.418,-0.223 -0.938,-0.334 -1.561,-0.334c-0.576,0 -1.07,0.101 -1.484,0.304c-0.414,0.203 -0.755,0.491 -1.023,0.862c-0.268,0.371 -0.467,0.81 -0.597,1.318c-0.13,0.508 -0.195,1.063 -0.195,1.664c0,0.578 0.053,1.121 0.159,1.629c0.107,0.508 0.284,0.951 0.532,1.33c0.249,0.379 0.582,0.68 1,0.902c0.417,0.223 0.938,0.334 1.56,0.334c0.568,0 1.061,-0.101 1.479,-0.304c0.417,-0.203 0.76,-0.489 1.028,-0.856c0.268,-0.367 0.465,-0.804 0.592,-1.312c0.126,-0.508 0.189,-1.067 0.189,-1.676Z" style="fill-rule:nonzero;"/><path d="M294.669,44.233c0,0.172 -0.004,0.317 -0.011,0.434c-0.008,0.117 -0.024,0.209 -0.047,0.275c-0.024,0.067 -0.053,0.117 -0.088,0.153c-0.035,0.035 -0.084,0.052 -0.147,0.052c-0.062,0 -0.138,-0.017 -0.228,-0.052c-0.09,-0.036 -0.191,-0.071 -0.305,-0.106c-0.113,-0.035 -0.24,-0.068 -0.381,-0.1c-0.14,-0.031 -0.293,-0.046 -0.457,-0.046c-0.195,0 -0.386,0.039 -0.574,0.117c-0.187,0.078 -0.385,0.207 -0.592,0.387c-0.207,0.179 -0.424,0.417 -0.65,0.714c-0.227,0.297 -0.477,0.661 -0.75,1.09l0,6.938c0,0.062 -0.016,0.115 -0.047,0.158c-0.031,0.043 -0.082,0.08 -0.152,0.111c-0.071,0.031 -0.168,0.055 -0.293,0.071c-0.125,0.015 -0.285,0.023 -0.481,0.023c-0.187,0 -0.343,-0.008 -0.468,-0.023c-0.125,-0.016 -0.225,-0.04 -0.299,-0.071c-0.075,-0.031 -0.125,-0.068 -0.153,-0.111c-0.027,-0.043 -0.041,-0.096 -0.041,-0.158l0,-10.547c0,-0.063 0.012,-0.115 0.035,-0.158c0.024,-0.043 0.071,-0.082 0.141,-0.118c0.07,-0.035 0.16,-0.058 0.27,-0.07c0.109,-0.012 0.254,-0.017 0.433,-0.017c0.172,0 0.315,0.005 0.428,0.017c0.113,0.012 0.201,0.035 0.264,0.07c0.062,0.036 0.107,0.075 0.134,0.118c0.028,0.043 0.041,0.095 0.041,0.158l0,1.535c0.289,-0.422 0.561,-0.766 0.815,-1.031c0.254,-0.266 0.494,-0.475 0.721,-0.627c0.226,-0.153 0.451,-0.258 0.673,-0.317c0.223,-0.058 0.448,-0.088 0.674,-0.088c0.102,0 0.217,0.006 0.346,0.018c0.129,0.012 0.264,0.033 0.404,0.065c0.141,0.031 0.268,0.066 0.381,0.105c0.113,0.039 0.193,0.078 0.24,0.117c0.047,0.039 0.078,0.076 0.094,0.111c0.016,0.036 0.029,0.081 0.041,0.135c0.012,0.055 0.02,0.135 0.024,0.24c0.003,0.106 0.005,0.249 0.005,0.428Z" style="fill-rule:nonzero;"/><path d="M303.083,51.218c0,0.539 -0.099,1.019 -0.298,1.441c-0.2,0.422 -0.483,0.777 -0.85,1.066c-0.367,0.289 -0.805,0.508 -1.312,0.657c-0.508,0.148 -1.067,0.222 -1.676,0.222c-0.375,0 -0.733,-0.029 -1.073,-0.088c-0.339,-0.058 -0.644,-0.132 -0.914,-0.222c-0.269,-0.09 -0.498,-0.184 -0.685,-0.281c-0.188,-0.098 -0.324,-0.186 -0.41,-0.264c-0.086,-0.078 -0.149,-0.188 -0.188,-0.328c-0.039,-0.141 -0.058,-0.332 -0.058,-0.574c0,-0.149 0.007,-0.274 0.023,-0.375c0.016,-0.102 0.035,-0.184 0.059,-0.247c0.023,-0.062 0.056,-0.107 0.099,-0.134c0.043,-0.028 0.092,-0.041 0.147,-0.041c0.086,0 0.213,0.052 0.381,0.158c0.168,0.105 0.375,0.221 0.621,0.346c0.246,0.125 0.537,0.24 0.873,0.345c0.336,0.106 0.722,0.158 1.16,0.158c0.328,0 0.625,-0.035 0.891,-0.105c0.265,-0.07 0.496,-0.174 0.691,-0.311c0.195,-0.136 0.346,-0.31 0.451,-0.521c0.106,-0.211 0.158,-0.461 0.158,-0.75c0,-0.297 -0.076,-0.547 -0.228,-0.75c-0.153,-0.203 -0.354,-0.383 -0.604,-0.539c-0.25,-0.156 -0.531,-0.295 -0.843,-0.416c-0.313,-0.121 -0.635,-0.248 -0.967,-0.381c-0.332,-0.133 -0.657,-0.283 -0.973,-0.451c-0.316,-0.168 -0.6,-0.373 -0.85,-0.615c-0.25,-0.243 -0.451,-0.532 -0.603,-0.868c-0.152,-0.336 -0.229,-0.738 -0.229,-1.207c0,-0.414 0.081,-0.81 0.241,-1.189c0.16,-0.379 0.4,-0.711 0.72,-0.996c0.321,-0.285 0.721,-0.514 1.202,-0.686c0.48,-0.172 1.041,-0.258 1.681,-0.258c0.281,0 0.563,0.024 0.844,0.071c0.281,0.047 0.535,0.105 0.762,0.176c0.226,0.07 0.42,0.146 0.58,0.228c0.16,0.082 0.281,0.154 0.363,0.217c0.082,0.062 0.137,0.117 0.164,0.164c0.027,0.047 0.047,0.1 0.059,0.158c0.011,0.059 0.023,0.131 0.035,0.217c0.012,0.086 0.017,0.191 0.017,0.316c0,0.133 -0.005,0.248 -0.017,0.346c-0.012,0.098 -0.031,0.178 -0.059,0.24c-0.027,0.063 -0.06,0.108 -0.099,0.135c-0.039,0.027 -0.082,0.041 -0.129,0.041c-0.071,0 -0.172,-0.043 -0.305,-0.129c-0.133,-0.086 -0.305,-0.178 -0.516,-0.275c-0.211,-0.098 -0.459,-0.19 -0.744,-0.276c-0.285,-0.086 -0.611,-0.129 -0.978,-0.129c-0.328,0 -0.617,0.038 -0.867,0.112c-0.25,0.074 -0.456,0.179 -0.616,0.316c-0.16,0.137 -0.281,0.299 -0.363,0.487c-0.082,0.187 -0.123,0.39 -0.123,0.609c0,0.305 0.078,0.56 0.234,0.767c0.157,0.208 0.36,0.389 0.61,0.545c0.25,0.157 0.535,0.297 0.855,0.422c0.321,0.125 0.647,0.254 0.979,0.387c0.332,0.133 0.66,0.281 0.984,0.445c0.324,0.164 0.611,0.364 0.861,0.598c0.25,0.234 0.452,0.516 0.604,0.844c0.152,0.328 0.228,0.718 0.228,1.172Z" style="fill-rule:nonzero;"/><rect x="647.045" y="65.221" width="228.858" height="14.053" style="fill:#43bc00;"/><path d="M746.314,46.601c0,1.312 -0.168,2.459 -0.504,3.439c-0.336,0.981 -0.826,1.793 -1.47,2.438c-0.645,0.644 -1.436,1.127 -2.373,1.447c-0.938,0.321 -2.055,0.481 -3.352,0.481l-3.211,0c-0.18,0 -0.349,-0.061 -0.51,-0.182c-0.16,-0.121 -0.24,-0.334 -0.24,-0.639l0,-13.523c0,-0.305 0.08,-0.518 0.24,-0.639c0.161,-0.121 0.33,-0.181 0.51,-0.181l3.434,0c1.312,0 2.422,0.17 3.328,0.509c0.906,0.34 1.666,0.828 2.279,1.465c0.613,0.637 1.078,1.408 1.395,2.315c0.316,0.906 0.474,1.929 0.474,3.07Zm-2.121,0.082c0,-0.82 -0.101,-1.584 -0.304,-2.291c-0.204,-0.707 -0.522,-1.318 -0.956,-1.834c-0.433,-0.516 -0.982,-0.918 -1.646,-1.207c-0.664,-0.289 -1.52,-0.434 -2.566,-0.434l-2.051,0l0,11.801l2.074,0c0.969,0 1.785,-0.121 2.449,-0.363c0.664,-0.242 1.219,-0.613 1.664,-1.113c0.446,-0.5 0.78,-1.127 1.002,-1.881c0.223,-0.754 0.334,-1.647 0.334,-2.678Z" style="fill-rule:nonzero;"/><path d="M759.006,48.722c0,0.859 -0.114,1.65 -0.34,2.373c-0.227,0.723 -0.565,1.346 -1.014,1.869c-0.449,0.524 -1.011,0.932 -1.687,1.225c-0.676,0.293 -1.459,0.439 -2.35,0.439c-0.867,0 -1.623,-0.129 -2.267,-0.386c-0.645,-0.258 -1.182,-0.633 -1.612,-1.125c-0.429,-0.493 -0.75,-1.09 -0.961,-1.793c-0.211,-0.703 -0.316,-1.5 -0.316,-2.391c0,-0.859 0.111,-1.65 0.334,-2.373c0.223,-0.723 0.558,-1.346 1.008,-1.869c0.449,-0.524 1.009,-0.93 1.681,-1.219c0.672,-0.289 1.457,-0.434 2.356,-0.434c0.867,0 1.623,0.129 2.267,0.387c0.645,0.258 1.182,0.633 1.612,1.125c0.429,0.492 0.752,1.09 0.966,1.793c0.215,0.703 0.323,1.496 0.323,2.379Zm-2.004,0.129c0,-0.57 -0.053,-1.109 -0.16,-1.617c-0.106,-0.508 -0.282,-0.953 -0.526,-1.336c-0.244,-0.383 -0.576,-0.686 -0.993,-0.908c-0.418,-0.223 -0.938,-0.334 -1.561,-0.334c-0.576,0 -1.07,0.101 -1.484,0.304c-0.414,0.203 -0.755,0.491 -1.023,0.862c-0.268,0.371 -0.467,0.81 -0.597,1.318c-0.13,0.508 -0.195,1.063 -0.195,1.664c0,0.578 0.053,1.121 0.159,1.629c0.107,0.508 0.284,0.951 0.533,1.33c0.248,0.379 0.581,0.68 0.999,0.902c0.417,0.223 0.938,0.334 1.561,0.334c0.567,0 1.06,-0.101 1.478,-0.304c0.417,-0.203 0.76,-0.489 1.028,-0.856c0.268,-0.367 0.465,-0.804 0.592,-1.312c0.126,-0.508 0.189,-1.067 0.189,-1.676Z" style="fill-rule:nonzero;"/><path d="M771.662,48.722c0,0.859 -0.113,1.65 -0.34,2.373c-0.226,0.723 -0.564,1.346 -1.014,1.869c-0.449,0.524 -1.011,0.932 -1.687,1.225c-0.676,0.293 -1.459,0.439 -2.35,0.439c-0.867,0 -1.623,-0.129 -2.267,-0.386c-0.645,-0.258 -1.182,-0.633 -1.612,-1.125c-0.429,-0.493 -0.75,-1.09 -0.96,-1.793c-0.211,-0.703 -0.317,-1.5 -0.317,-2.391c0,-0.859 0.111,-1.65 0.334,-2.373c0.223,-0.723 0.559,-1.346 1.008,-1.869c0.449,-0.524 1.01,-0.93 1.682,-1.219c0.671,-0.289 1.457,-0.434 2.355,-0.434c0.867,0 1.623,0.129 2.268,0.387c0.644,0.258 1.181,0.633 1.611,1.125c0.43,0.492 0.752,1.09 0.967,1.793c0.215,0.703 0.322,1.496 0.322,2.379Zm-2.004,0.129c0,-0.57 -0.053,-1.109 -0.16,-1.617c-0.106,-0.508 -0.281,-0.953 -0.526,-1.336c-0.244,-0.383 -0.575,-0.686 -0.993,-0.908c-0.418,-0.223 -0.938,-0.334 -1.561,-0.334c-0.575,0 -1.07,0.101 -1.484,0.304c-0.414,0.203 -0.755,0.491 -1.023,0.862c-0.268,0.371 -0.467,0.81 -0.597,1.318c-0.13,0.508 -0.195,1.063 -0.195,1.664c0,0.578 0.053,1.121 0.16,1.629c0.106,0.508 0.284,0.951 0.532,1.33c0.248,0.379 0.581,0.68 0.999,0.902c0.418,0.223 0.938,0.334 1.561,0.334c0.567,0 1.06,-0.101 1.478,-0.304c0.418,-0.203 0.761,-0.489 1.029,-0.856c0.268,-0.367 0.465,-0.804 0.591,-1.312c0.126,-0.508 0.189,-1.067 0.189,-1.676Z" style="fill-rule:nonzero;"/><path d="M780.674,44.257c0,0.172 -0.004,0.317 -0.012,0.434c-0.008,0.117 -0.023,0.209 -0.047,0.275c-0.023,0.067 -0.053,0.117 -0.088,0.153c-0.035,0.035 -0.084,0.052 -0.146,0.052c-0.063,0 -0.139,-0.017 -0.229,-0.052c-0.09,-0.036 -0.191,-0.071 -0.304,-0.106c-0.114,-0.035 -0.241,-0.068 -0.381,-0.1c-0.141,-0.031 -0.293,-0.046 -0.457,-0.046c-0.196,0 -0.387,0.039 -0.575,0.117c-0.187,0.078 -0.384,0.207 -0.591,0.387c-0.207,0.179 -0.424,0.417 -0.651,0.714c-0.226,0.297 -0.476,0.661 -0.75,1.09l0,6.938c0,0.062 -0.015,0.115 -0.047,0.158c-0.031,0.043 -0.082,0.08 -0.152,0.111c-0.07,0.031 -0.168,0.055 -0.293,0.071c-0.125,0.015 -0.285,0.023 -0.48,0.023c-0.188,0 -0.344,-0.008 -0.469,-0.023c-0.125,-0.016 -0.225,-0.04 -0.299,-0.071c-0.074,-0.031 -0.125,-0.068 -0.152,-0.111c-0.028,-0.043 -0.041,-0.096 -0.041,-0.158l0,-10.547c0,-0.063 0.011,-0.115 0.035,-0.158c0.023,-0.043 0.07,-0.082 0.14,-0.118c0.071,-0.035 0.161,-0.058 0.27,-0.07c0.109,-0.012 0.254,-0.017 0.434,-0.017c0.171,0 0.314,0.005 0.427,0.017c0.114,0.012 0.201,0.035 0.264,0.07c0.062,0.036 0.107,0.075 0.135,0.118c0.027,0.043 0.041,0.095 0.041,0.158l0,1.535c0.289,-0.422 0.56,-0.766 0.814,-1.031c0.254,-0.266 0.494,-0.475 0.721,-0.627c0.226,-0.153 0.451,-0.258 0.674,-0.317c0.222,-0.058 0.447,-0.088 0.674,-0.088c0.101,0 0.216,0.006 0.345,0.018c0.129,0.012 0.264,0.033 0.405,0.065c0.14,0.031 0.267,0.066 0.38,0.105c0.114,0.039 0.194,0.078 0.241,0.117c0.047,0.039 0.078,0.076 0.093,0.111c0.016,0.036 0.03,0.081 0.041,0.135c0.012,0.055 0.02,0.135 0.024,0.24c0.004,0.106 0.006,0.249 0.006,0.428Z" style="fill-rule:nonzero;"/><path d="M789.088,51.242c0,0.539 -0.1,1.019 -0.299,1.441c-0.199,0.422 -0.482,0.777 -0.85,1.066c-0.367,0.289 -0.804,0.508 -1.312,0.657c-0.508,0.148 -1.067,0.222 -1.676,0.222c-0.375,0 -0.732,-0.029 -1.072,-0.088c-0.34,-0.058 -0.645,-0.132 -0.914,-0.222c-0.27,-0.09 -0.498,-0.184 -0.686,-0.281c-0.187,-0.098 -0.324,-0.186 -0.41,-0.264c-0.086,-0.078 -0.148,-0.188 -0.187,-0.328c-0.04,-0.141 -0.059,-0.332 -0.059,-0.574c0,-0.149 0.008,-0.274 0.023,-0.375c0.016,-0.102 0.036,-0.184 0.059,-0.247c0.023,-0.062 0.057,-0.107 0.1,-0.134c0.043,-0.028 0.091,-0.041 0.146,-0.041c0.086,0 0.213,0.052 0.381,0.158c0.168,0.105 0.375,0.221 0.621,0.346c0.246,0.125 0.537,0.24 0.873,0.345c0.336,0.106 0.723,0.158 1.16,0.158c0.328,0 0.625,-0.035 0.891,-0.105c0.265,-0.07 0.496,-0.174 0.691,-0.311c0.196,-0.136 0.346,-0.31 0.451,-0.521c0.106,-0.211 0.159,-0.461 0.159,-0.75c0,-0.297 -0.077,-0.547 -0.229,-0.75c-0.152,-0.203 -0.353,-0.383 -0.603,-0.539c-0.25,-0.156 -0.532,-0.295 -0.844,-0.416c-0.313,-0.121 -0.635,-0.248 -0.967,-0.381c-0.332,-0.133 -0.656,-0.283 -0.973,-0.451c-0.316,-0.168 -0.599,-0.373 -0.849,-0.615c-0.25,-0.243 -0.451,-0.532 -0.604,-0.868c-0.152,-0.336 -0.228,-0.738 -0.228,-1.207c0,-0.414 0.08,-0.81 0.24,-1.189c0.16,-0.379 0.4,-0.711 0.721,-0.996c0.32,-0.285 0.72,-0.514 1.201,-0.686c0.48,-0.172 1.041,-0.258 1.681,-0.258c0.282,0 0.563,0.024 0.844,0.071c0.281,0.047 0.535,0.105 0.762,0.176c0.227,0.07 0.42,0.146 0.58,0.228c0.16,0.082 0.281,0.154 0.363,0.217c0.082,0.062 0.137,0.117 0.164,0.164c0.028,0.047 0.047,0.1 0.059,0.158c0.012,0.059 0.023,0.131 0.035,0.217c0.012,0.086 0.018,0.191 0.018,0.316c0,0.133 -0.006,0.248 -0.018,0.346c-0.012,0.098 -0.031,0.178 -0.058,0.24c-0.028,0.063 -0.061,0.108 -0.1,0.135c-0.039,0.027 -0.082,0.041 -0.129,0.041c-0.07,0 -0.172,-0.043 -0.305,-0.129c-0.132,-0.086 -0.304,-0.178 -0.515,-0.275c-0.211,-0.098 -0.459,-0.19 -0.744,-0.276c-0.286,-0.086 -0.612,-0.129 -0.979,-0.129c-0.328,0 -0.617,0.038 -0.867,0.112c-0.25,0.074 -0.455,0.179 -0.615,0.316c-0.161,0.137 -0.282,0.299 -0.364,0.487c-0.082,0.187 -0.123,0.39 -0.123,0.609c0,0.305 0.078,0.56 0.235,0.767c0.156,0.208 0.359,0.389 0.609,0.545c0.25,0.157 0.535,0.297 0.856,0.422c0.32,0.125 0.646,0.254 0.978,0.387c0.332,0.133 0.66,0.281 0.984,0.445c0.325,0.164 0.612,0.364 0.862,0.598c0.25,0.234 0.451,0.516 0.603,0.844c0.153,0.328 0.229,0.718 0.229,1.172Z" style="fill-rule:nonzero;"/><rect x="889.932" y="65.221" width="228.858" height="14.053" style="fill:#43bc00;"/><path d="M973.061,53.96c-0.032,0.11 -0.079,0.198 -0.141,0.264c-0.063,0.066 -0.148,0.117 -0.258,0.152c-0.109,0.036 -0.244,0.061 -0.404,0.077c-0.16,0.015 -0.358,0.023 -0.592,0.023c-0.242,0 -0.447,-0.008 -0.615,-0.023c-0.168,-0.016 -0.307,-0.041 -0.416,-0.077c-0.11,-0.035 -0.192,-0.086 -0.246,-0.152c-0.055,-0.066 -0.098,-0.154 -0.129,-0.264l-3.176,-11.449l-0.023,0l-2.93,11.449c-0.024,0.11 -0.063,0.198 -0.117,0.264c-0.055,0.066 -0.133,0.117 -0.235,0.152c-0.101,0.036 -0.232,0.061 -0.392,0.077c-0.16,0.015 -0.365,0.023 -0.615,0.023c-0.258,0 -0.473,-0.008 -0.645,-0.023c-0.172,-0.016 -0.312,-0.041 -0.422,-0.077c-0.109,-0.035 -0.193,-0.086 -0.252,-0.152c-0.058,-0.066 -0.099,-0.154 -0.123,-0.264l-4.008,-14.004c-0.047,-0.179 -0.072,-0.32 -0.076,-0.421c-0.004,-0.102 0.028,-0.18 0.094,-0.235c0.066,-0.054 0.174,-0.09 0.322,-0.105c0.149,-0.016 0.348,-0.024 0.598,-0.024c0.242,0 0.433,0.006 0.574,0.018c0.141,0.012 0.248,0.033 0.322,0.064c0.075,0.032 0.125,0.075 0.153,0.129c0.027,0.055 0.048,0.125 0.064,0.211l3.41,12.703l0.012,0l3.234,-12.679c0.024,-0.086 0.053,-0.159 0.088,-0.217c0.035,-0.059 0.092,-0.104 0.17,-0.135c0.078,-0.031 0.19,-0.055 0.334,-0.07c0.145,-0.016 0.334,-0.024 0.569,-0.024c0.218,0 0.392,0.008 0.521,0.024c0.129,0.015 0.232,0.039 0.311,0.07c0.078,0.031 0.134,0.076 0.169,0.135c0.036,0.058 0.065,0.131 0.088,0.217l3.481,12.679l0.023,0l3.34,-12.691c0.024,-0.078 0.047,-0.147 0.07,-0.205c0.024,-0.059 0.073,-0.104 0.147,-0.135c0.074,-0.031 0.18,-0.055 0.316,-0.07c0.137,-0.016 0.319,-0.024 0.545,-0.024c0.235,0 0.42,0.01 0.557,0.03c0.137,0.019 0.236,0.056 0.299,0.111c0.062,0.055 0.092,0.133 0.088,0.234c-0.004,0.102 -0.026,0.242 -0.065,0.422l-4.019,13.992Z" style="fill-rule:nonzero;"/><path d="M981.604,54.113c0,0.062 -0.016,0.115 -0.047,0.158c-0.032,0.043 -0.082,0.08 -0.153,0.111c-0.07,0.031 -0.168,0.055 -0.293,0.071c-0.125,0.015 -0.285,0.023 -0.48,0.023c-0.188,0 -0.344,-0.008 -0.469,-0.023c-0.125,-0.016 -0.224,-0.04 -0.299,-0.071c-0.074,-0.031 -0.125,-0.068 -0.152,-0.111c-0.027,-0.043 -0.041,-0.096 -0.041,-0.158l0,-10.547c0,-0.055 0.014,-0.106 0.041,-0.153c0.027,-0.046 0.078,-0.085 0.152,-0.117c0.075,-0.031 0.174,-0.054 0.299,-0.07c0.125,-0.016 0.281,-0.023 0.469,-0.023c0.195,0 0.355,0.007 0.48,0.023c0.125,0.016 0.223,0.039 0.293,0.07c0.071,0.032 0.121,0.071 0.153,0.117c0.031,0.047 0.047,0.098 0.047,0.153l0,10.547Zm0.222,-14.11c0,0.453 -0.086,0.762 -0.258,0.926c-0.171,0.164 -0.488,0.246 -0.949,0.246c-0.453,0 -0.763,-0.08 -0.931,-0.24c-0.168,-0.16 -0.252,-0.463 -0.252,-0.908c0,-0.453 0.086,-0.762 0.257,-0.926c0.172,-0.164 0.489,-0.246 0.95,-0.246c0.453,0 0.763,0.08 0.931,0.24c0.168,0.16 0.252,0.463 0.252,0.908Z" style="fill-rule:nonzero;"/><path d="M994.26,54.113c0,0.062 -0.016,0.115 -0.047,0.158c-0.031,0.043 -0.082,0.08 -0.152,0.111c-0.071,0.031 -0.168,0.055 -0.293,0.071c-0.125,0.015 -0.282,0.023 -0.469,0.023c-0.195,0 -0.356,-0.008 -0.481,-0.023c-0.125,-0.016 -0.222,-0.04 -0.293,-0.071c-0.07,-0.031 -0.121,-0.068 -0.152,-0.111c-0.031,-0.043 -0.047,-0.096 -0.047,-0.158l0,-6.176c0,-0.602 -0.047,-1.086 -0.14,-1.453c-0.094,-0.367 -0.231,-0.684 -0.411,-0.949c-0.179,-0.266 -0.412,-0.469 -0.697,-0.61c-0.285,-0.14 -0.615,-0.211 -0.99,-0.211c-0.484,0 -0.969,0.172 -1.453,0.516c-0.485,0.344 -0.992,0.848 -1.524,1.512l0,7.371c0,0.062 -0.015,0.115 -0.046,0.158c-0.032,0.043 -0.083,0.08 -0.153,0.111c-0.07,0.031 -0.168,0.055 -0.293,0.071c-0.125,0.015 -0.285,0.023 -0.48,0.023c-0.188,0 -0.344,-0.008 -0.469,-0.023c-0.125,-0.016 -0.225,-0.04 -0.299,-0.071c-0.074,-0.031 -0.125,-0.068 -0.152,-0.111c-0.028,-0.043 -0.041,-0.096 -0.041,-0.158l0,-10.547c0,-0.063 0.012,-0.115 0.035,-0.158c0.023,-0.043 0.07,-0.082 0.141,-0.118c0.07,-0.035 0.16,-0.058 0.269,-0.07c0.109,-0.012 0.254,-0.017 0.434,-0.017c0.172,0 0.314,0.005 0.427,0.017c0.114,0.012 0.202,0.035 0.264,0.07c0.063,0.036 0.108,0.075 0.135,0.118c0.027,0.043 0.041,0.095 0.041,0.158l0,1.394c0.594,-0.664 1.185,-1.15 1.775,-1.459c0.59,-0.308 1.186,-0.463 1.787,-0.463c0.704,0 1.295,0.12 1.776,0.358c0.48,0.238 0.869,0.557 1.166,0.955c0.297,0.398 0.51,0.865 0.638,1.4c0.129,0.536 0.194,1.178 0.194,1.928l0,6.434Z" style="fill-rule:nonzero;"/><path d="M1006.82,54.113c0,0.062 -0.013,0.117 -0.041,0.164c-0.027,0.047 -0.074,0.084 -0.14,0.111c-0.067,0.027 -0.155,0.049 -0.264,0.065c-0.109,0.015 -0.242,0.023 -0.398,0.023c-0.164,0 -0.301,-0.008 -0.411,-0.023c-0.109,-0.016 -0.199,-0.038 -0.269,-0.065c-0.07,-0.027 -0.121,-0.064 -0.152,-0.111c-0.032,-0.047 -0.047,-0.102 -0.047,-0.164l0,-1.395c-0.555,0.602 -1.131,1.07 -1.729,1.406c-0.597,0.336 -1.252,0.504 -1.963,0.504c-0.773,0 -1.433,-0.15 -1.98,-0.451c-0.547,-0.301 -0.99,-0.707 -1.33,-1.219c-0.34,-0.511 -0.588,-1.113 -0.744,-1.804c-0.157,-0.692 -0.235,-1.42 -0.235,-2.186c0,-0.906 0.098,-1.724 0.293,-2.455c0.195,-0.73 0.485,-1.353 0.867,-1.869c0.383,-0.516 0.858,-0.912 1.424,-1.19c0.567,-0.277 1.221,-0.416 1.963,-0.416c0.617,0 1.182,0.135 1.693,0.405c0.512,0.269 1.018,0.666 1.518,1.189l0,-6.129c0,-0.054 0.014,-0.107 0.041,-0.158c0.027,-0.051 0.08,-0.09 0.158,-0.117c0.078,-0.027 0.178,-0.051 0.299,-0.07c0.121,-0.02 0.275,-0.03 0.463,-0.03c0.195,0 0.355,0.01 0.48,0.03c0.125,0.019 0.223,0.043 0.293,0.07c0.071,0.027 0.123,0.066 0.159,0.117c0.035,0.051 0.052,0.104 0.052,0.158l0,15.61Zm-1.945,-7.418c-0.523,-0.649 -1.029,-1.143 -1.518,-1.483c-0.488,-0.34 -0.998,-0.509 -1.529,-0.509c-0.492,0 -0.91,0.117 -1.254,0.351c-0.344,0.234 -0.623,0.543 -0.838,0.926c-0.214,0.383 -0.371,0.816 -0.468,1.301c-0.098,0.484 -0.147,0.976 -0.147,1.476c0,0.531 0.041,1.051 0.123,1.559c0.082,0.508 0.225,0.959 0.428,1.353c0.203,0.395 0.473,0.711 0.808,0.95c0.336,0.238 0.758,0.357 1.266,0.357c0.258,0 0.506,-0.035 0.744,-0.105c0.239,-0.071 0.483,-0.188 0.733,-0.352c0.25,-0.164 0.511,-0.377 0.785,-0.639c0.273,-0.261 0.562,-0.584 0.867,-0.967l0,-4.218Z" style="fill-rule:nonzero;"/><path d="M1020.21,48.722c0,0.859 -0.113,1.65 -0.34,2.373c-0.226,0.723 -0.564,1.346 -1.013,1.869c-0.45,0.524 -1.012,0.932 -1.688,1.225c-0.676,0.293 -1.459,0.439 -2.349,0.439c-0.868,0 -1.624,-0.129 -2.268,-0.386c-0.645,-0.258 -1.182,-0.633 -1.611,-1.125c-0.43,-0.493 -0.75,-1.09 -0.961,-1.793c-0.211,-0.703 -0.317,-1.5 -0.317,-2.391c0,-0.859 0.112,-1.65 0.334,-2.373c0.223,-0.723 0.559,-1.346 1.008,-1.869c0.449,-0.524 1.01,-0.93 1.682,-1.219c0.672,-0.289 1.457,-0.434 2.355,-0.434c0.867,0 1.623,0.129 2.268,0.387c0.644,0.258 1.181,0.633 1.611,1.125c0.43,0.492 0.752,1.09 0.967,1.793c0.215,0.703 0.322,1.496 0.322,2.379Zm-2.004,0.129c0,-0.57 -0.053,-1.109 -0.159,-1.617c-0.107,-0.508 -0.282,-0.953 -0.527,-1.336c-0.244,-0.383 -0.575,-0.686 -0.993,-0.908c-0.418,-0.223 -0.938,-0.334 -1.561,-0.334c-0.575,0 -1.07,0.101 -1.484,0.304c-0.414,0.203 -0.755,0.491 -1.023,0.862c-0.268,0.371 -0.467,0.81 -0.597,1.318c-0.13,0.508 -0.195,1.063 -0.195,1.664c0,0.578 0.053,1.121 0.16,1.629c0.106,0.508 0.284,0.951 0.532,1.33c0.248,0.379 0.581,0.68 0.999,0.902c0.418,0.223 0.938,0.334 1.561,0.334c0.568,0 1.06,-0.101 1.478,-0.304c0.418,-0.203 0.761,-0.489 1.029,-0.856c0.268,-0.367 0.465,-0.804 0.591,-1.312c0.126,-0.508 0.189,-1.067 0.189,-1.676Z" style="fill-rule:nonzero;"/><path d="M1037.71,43.542c0,0.055 -0.008,0.121 -0.023,0.2c-0.016,0.078 -0.043,0.175 -0.083,0.293l-3.105,10.019c-0.023,0.086 -0.061,0.156 -0.111,0.211c-0.051,0.055 -0.121,0.098 -0.211,0.129c-0.09,0.031 -0.213,0.053 -0.369,0.064c-0.157,0.012 -0.352,0.018 -0.586,0.018c-0.243,0 -0.446,-0.008 -0.61,-0.023c-0.164,-0.016 -0.295,-0.04 -0.392,-0.071c-0.098,-0.031 -0.17,-0.074 -0.217,-0.129c-0.047,-0.054 -0.082,-0.121 -0.106,-0.199l-2.214,-7.652l-0.024,-0.106l-0.023,0.106l-2.051,7.652c-0.023,0.086 -0.061,0.156 -0.111,0.211c-0.051,0.055 -0.127,0.098 -0.229,0.129c-0.101,0.031 -0.232,0.053 -0.392,0.064c-0.161,0.012 -0.358,0.018 -0.592,0.018c-0.242,0 -0.44,-0.008 -0.592,-0.023c-0.152,-0.016 -0.277,-0.04 -0.375,-0.071c-0.098,-0.031 -0.17,-0.074 -0.217,-0.129c-0.047,-0.054 -0.082,-0.121 -0.105,-0.199l-3.082,-10.019c-0.039,-0.118 -0.067,-0.215 -0.082,-0.293c-0.016,-0.079 -0.024,-0.145 -0.024,-0.2c0,-0.07 0.016,-0.127 0.047,-0.17c0.031,-0.043 0.084,-0.078 0.158,-0.105c0.074,-0.027 0.174,-0.045 0.299,-0.053c0.125,-0.008 0.277,-0.011 0.457,-0.011c0.219,0 0.395,0.005 0.527,0.017c0.133,0.012 0.235,0.031 0.305,0.059c0.07,0.027 0.121,0.066 0.152,0.117c0.032,0.051 0.059,0.111 0.083,0.182l2.542,8.695l0.024,0.105l0.023,-0.105l2.332,-8.695c0.016,-0.071 0.041,-0.131 0.077,-0.182c0.035,-0.051 0.087,-0.09 0.158,-0.117c0.07,-0.028 0.166,-0.047 0.287,-0.059c0.121,-0.012 0.279,-0.017 0.474,-0.017c0.188,0 0.342,0.005 0.463,0.017c0.121,0.012 0.217,0.031 0.287,0.059c0.071,0.027 0.122,0.064 0.153,0.111c0.031,0.047 0.055,0.102 0.07,0.164l2.52,8.719l0.023,0.105l0.012,-0.105l2.508,-8.695c0.015,-0.071 0.041,-0.131 0.076,-0.182c0.035,-0.051 0.09,-0.09 0.164,-0.117c0.074,-0.028 0.176,-0.047 0.305,-0.059c0.128,-0.012 0.294,-0.017 0.498,-0.017c0.187,0 0.338,0.003 0.451,0.011c0.113,0.008 0.203,0.028 0.269,0.059c0.067,0.031 0.114,0.066 0.141,0.105c0.027,0.039 0.041,0.094 0.041,0.164Z" style="fill-rule:nonzero;"/><path d="M1046.53,51.242c0,0.539 -0.099,1.019 -0.298,1.441c-0.2,0.422 -0.483,0.777 -0.85,1.066c-0.367,0.289 -0.805,0.508 -1.312,0.657c-0.508,0.148 -1.067,0.222 -1.676,0.222c-0.375,0 -0.733,-0.029 -1.073,-0.088c-0.339,-0.058 -0.644,-0.132 -0.914,-0.222c-0.269,-0.09 -0.498,-0.184 -0.685,-0.281c-0.188,-0.098 -0.324,-0.186 -0.41,-0.264c-0.086,-0.078 -0.149,-0.188 -0.188,-0.328c-0.039,-0.141 -0.058,-0.332 -0.058,-0.574c0,-0.149 0.007,-0.274 0.023,-0.375c0.016,-0.102 0.035,-0.184 0.059,-0.247c0.023,-0.062 0.056,-0.107 0.099,-0.134c0.043,-0.028 0.092,-0.041 0.147,-0.041c0.086,0 0.213,0.052 0.381,0.158c0.168,0.105 0.375,0.221 0.621,0.346c0.246,0.125 0.537,0.24 0.873,0.345c0.336,0.106 0.722,0.158 1.16,0.158c0.328,0 0.625,-0.035 0.891,-0.105c0.265,-0.07 0.496,-0.174 0.691,-0.311c0.195,-0.136 0.346,-0.31 0.451,-0.521c0.106,-0.211 0.158,-0.461 0.158,-0.75c0,-0.297 -0.076,-0.547 -0.228,-0.75c-0.153,-0.203 -0.354,-0.383 -0.604,-0.539c-0.25,-0.156 -0.531,-0.295 -0.843,-0.416c-0.313,-0.121 -0.635,-0.248 -0.967,-0.381c-0.332,-0.133 -0.657,-0.283 -0.973,-0.451c-0.316,-0.168 -0.6,-0.373 -0.85,-0.615c-0.25,-0.243 -0.451,-0.532 -0.603,-0.868c-0.152,-0.336 -0.229,-0.738 -0.229,-1.207c0,-0.414 0.081,-0.81 0.241,-1.189c0.16,-0.379 0.4,-0.711 0.72,-0.996c0.321,-0.285 0.721,-0.514 1.202,-0.686c0.48,-0.172 1.041,-0.258 1.681,-0.258c0.281,0 0.563,0.024 0.844,0.071c0.281,0.047 0.535,0.105 0.762,0.176c0.226,0.07 0.42,0.146 0.58,0.228c0.16,0.082 0.281,0.154 0.363,0.217c0.082,0.062 0.137,0.117 0.164,0.164c0.027,0.047 0.047,0.1 0.059,0.158c0.011,0.059 0.023,0.131 0.035,0.217c0.012,0.086 0.017,0.191 0.017,0.316c0,0.133 -0.005,0.248 -0.017,0.346c-0.012,0.098 -0.031,0.178 -0.059,0.24c-0.027,0.063 -0.06,0.108 -0.099,0.135c-0.039,0.027 -0.082,0.041 -0.129,0.041c-0.071,0 -0.172,-0.043 -0.305,-0.129c-0.133,-0.086 -0.305,-0.178 -0.516,-0.275c-0.211,-0.098 -0.459,-0.19 -0.744,-0.276c-0.285,-0.086 -0.611,-0.129 -0.978,-0.129c-0.328,0 -0.617,0.038 -0.867,0.112c-0.25,0.074 -0.456,0.179 -0.616,0.316c-0.16,0.137 -0.281,0.299 -0.363,0.487c-0.082,0.187 -0.123,0.39 -0.123,0.609c0,0.305 0.078,0.56 0.234,0.767c0.157,0.208 0.36,0.389 0.61,0.545c0.25,0.157 0.535,0.297 0.855,0.422c0.321,0.125 0.647,0.254 0.979,0.387c0.332,0.133 0.66,0.281 0.984,0.445c0.324,0.164 0.611,0.364 0.861,0.598c0.25,0.234 0.452,0.516 0.604,0.844c0.152,0.328 0.228,0.718 0.228,1.172Z" style="fill-rule:nonzero;"/></g><rect x="0" y="0" width="248.786" height="100" style="fill:url(#_Linear1);"/><rect x="1031.21" y="-0.424" width="248.786" height="100" style="fill:url(#_Linear2);"/><defs><linearGradient id="_Linear1" x1="0" y1="0" x2="1" y2="0" gradientUnits="userSpaceOnUse" gradientTransform="matrix(192.913,0,0,77.5418,55.873,50)"><stop offset="0" style="stop-color:#fff;stop-opacity:1"/><stop offset="1" style="stop-color:#fff;stop-opacity:0"/></linearGradient><linearGradient id="_Linear2" x1="0" y1="0" x2="1" y2="0" gradientUnits="userSpaceOnUse" gradientTransform="matrix(-192.913,2.3625e-14,-9.49613e-15,-77.5418,1224.13,49.5764)"><stop offset="0" style="stop-color:#fff;stop-opacity:1"/><stop offset="1" style="stop-color:#fff;stop-opacity:0"/></linearGradient></defs></svg>