<?xml version="1.0" encoding="UTF-8" standalone="no"?><!DOCTYPE svg PUBLIC "-//W3C//DTD SVG 1.1//EN" "http://www.w3.org/Graphics/SVG/1.1/DTD/svg11.dtd"><svg width="100%" height="100%" viewBox="0 0 1280 200" version="1.1" xmlns="http://www.w3.org/2000/svg" xmlns:xlink="http://www.w3.org/1999/xlink" xml:space="preserve" xmlns:serif="http://www.serif.com/" style="fill-rule:evenodd;clip-rule:evenodd;stroke-linejoin:round;stroke-miterlimit:2;"><g><rect x="161.272" y="110.447" width="375.95" height="14.053" style="fill:#43bc00;"/><rect x="551.274" y="110.447" width="567.516" height="14.053" style="fill:#43bc00;"/><text x="762.567px" y="95.124px" style="font-family:'Ubuntu', sans-serif;font-size:24px;">Double Door</text><text x="278.639px" y="95.124px" style="font-family:'Ubuntu', sans-serif;font-size:24px;">Single Door</text><rect x="39.634" y="110.447" width="107.609" height="14.053" style="fill:#43bc00;"/><rect x="1132.76" y="110.447" width="107.609" height="14.053" style="fill:#43bc00;"/></g><g><rect x="39.634" y="49.302" width="107.609" height="14.053" style="fill:#bfbfbf;"/><rect x="1132.76" y="49.302" width="107.609" height="14.053" style="fill:#bfbfbf;"/><text x="606.736px" y="31.486px" style="font-family:'Ubuntu', sans-serif;font-size:24px;">Doors</text><rect x="161.272" y="49.302" width="957.519" height="14.053" style="fill:#bfbfbf;"/></g><g><rect x="39.634" y="172.982" width="107.609" height="14.053" style="fill:#bfbfbf;"/><rect x="1132.76" y="172.982" width="107.609" height="14.053" style="fill:#bfbfbf;"/><text x="197.799px" y="157.78px" style="font-family:'Ubuntu', sans-serif;font-size:24px;">3x8 Single</text><text x="396.844px" y="157.78px" style="font-family:'Ubuntu', sans-serif;font-size:24px;">3x7 Single</text><text x="575.886px" y="157.78px" style="font-family:'Ubuntu', sans-serif;font-size:24px;">6x7 Double</text><text x="765.307px" y="157.78px" style="font-family:'Ubuntu', sans-serif;font-size:24px;">6x8 Double</text><text x="964.428px" y="157.78px" style="font-family:'Ubuntu', sans-serif;font-size:24px;">7x7 Double</text><rect x="161.241" y="172.982" width="184.477" height="14.053" style="fill:#bfbfbf;"/><rect x="359.771" y="172.982" width="177.451" height="14.053" style="fill:#bfbfbf;"/><rect x="551.274" y="172.982" width="177.451" height="14.053" style="fill:#bfbfbf;"/><rect x="742.778" y="172.982" width="177.482" height="14.053" style="fill:#bfbfbf;"/><rect x="934.313" y="172.982" width="184.477" height="14.053" style="fill:#bfbfbf;"/></g><rect x="0" y="0" width="248.786" height="200" style="fill:url(#_Linear1);"/><rect x="1031.21" y="0" width="248.786" height="199.576" style="fill:url(#_Linear2);"/><defs><linearGradient id="_Linear1" x1="0" y1="0" x2="1" y2="0" gradientUnits="userSpaceOnUse" gradientTransform="matrix(192.913,0,0,155.084,55.873,100)"><stop offset="0" style="stop-color:#fff;stop-opacity:1"/><stop offset="1" style="stop-color:#fff;stop-opacity:0"/></linearGradient><linearGradient id="_Linear2" x1="0" y1="0" x2="1" y2="0" gradientUnits="userSpaceOnUse" gradientTransform="matrix(-192.913,2.3625e-14,-1.8952e-14,-154.755,1224.13,99.7882)"><stop offset="0" style="stop-color:#fff;stop-opacity:1"/><stop offset="1" style="stop-color:#fff;stop-opacity:0"/></linearGradient></defs></svg>