<?xml version="1.0" encoding="UTF-8" standalone="no"?>
<!DOCTYPE svg PUBLIC "-//W3C//DTD SVG 1.1//EN" "http://www.w3.org/Graphics/SVG/1.1/DTD/svg11.dtd">
<svg width="100%" height="100%" viewBox="0 0 1280 101" version="1.1" xmlns="http://www.w3.org/2000/svg" xmlns:xlink="http://www.w3.org/1999/xlink" xml:space="preserve" xmlns:serif="http://www.serif.com/" style="fill-rule:evenodd;clip-rule:evenodd;stroke-linejoin:round;stroke-miterlimit:2;">
    <g id="revit-types-categories" transform="matrix(1,0,0,1,0,0.423571)">
        <rect x="0" y="-0.424" width="1280" height="100.424" style="fill:none;"/>
        <clipPath id="_clip1">
            <rect x="0" y="-0.424" width="1280" height="100.424"/>
        </clipPath>
        <g clip-path="url(#_clip1)">
            <g transform="matrix(1,0,0,1,19.4719,39.9454)">
                <g transform="matrix(1,0,0,1,87.9739,-267.871)">
                    <rect x="296.713" y="293.099" width="228.858" height="14.053"/>
                </g>
                <g transform="matrix(1,0,0,1,53.1153,-205.412)">
                    <text x="417.164px" y="219.824px" style="font-family:'LucidaGrande', 'Lucida Grande', sans-serif;font-weight:500;font-size:24px;">Walls</text>
                </g>
                <g transform="matrix(1,0,0,1,-154.913,-267.847)">
                    <rect x="296.713" y="293.099" width="228.858" height="14.053"/>
                </g>
                <g transform="matrix(0.4702,0,0,1,-119.352,-267.823)">
                    <rect x="296.713" y="293.099" width="228.858" height="14.053"/>
                </g>
                <g transform="matrix(0.4702,0,0,1,973.771,-267.823)">
                    <rect x="296.713" y="293.099" width="228.858" height="14.053"/>
                </g>
                <g transform="matrix(1,0,0,1,-191.772,-205.388)">
                    <text x="417.164px" y="219.824px" style="font-family:'LucidaGrande', 'Lucida Grande', sans-serif;font-weight:500;font-size:24px;">Floors</text>
                </g>
                <g transform="matrix(1,0,0,1,330.861,-267.823)">
                    <rect x="296.713" y="293.099" width="228.858" height="14.053"/>
                </g>
                <g transform="matrix(1,0,0,1,296.002,-205.364)">
                    <text x="417.164px" y="219.824px" style="font-family:'LucidaGrande', 'Lucida Grande', sans-serif;font-weight:500;font-size:24px;">Doors</text>
                </g>
                <g transform="matrix(1,0,0,1,573.748,-267.823)">
                    <rect x="296.713" y="293.099" width="228.858" height="14.053"/>
                </g>
                <g transform="matrix(1,0,0,1,519.889,-205.364)">
                    <text x="417.164px" y="219.824px" style="font-family:'LucidaGrande', 'Lucida Grande', sans-serif;font-weight:500;font-size:24px;">Windows</text>
                </g>
            </g>
            <g transform="matrix(1.66716,0,0,1,-3.84659,0)">
                <rect x="2.307" y="0" width="149.227" height="100" style="fill:url(#_Linear2);"/>
            </g>
            <g transform="matrix(-1.66716,2.04169e-16,-1.22465e-16,-1,1283.85,99.5764)">
                <rect x="2.307" y="0" width="149.227" height="100" style="fill:url(#_Linear3);"/>
            </g>
        </g>
    </g>
    <defs>
        <linearGradient id="_Linear2" x1="0" y1="0" x2="1" y2="0" gradientUnits="userSpaceOnUse" gradientTransform="matrix(115.713,0,0,77.5418,35.8211,50)"><stop offset="0" style="stop-color:white;stop-opacity:1"/><stop offset="1" style="stop-color:white;stop-opacity:0"/></linearGradient>
        <linearGradient id="_Linear3" x1="0" y1="0" x2="1" y2="0" gradientUnits="userSpaceOnUse" gradientTransform="matrix(115.713,0,0,77.5418,35.8211,50)"><stop offset="0" style="stop-color:white;stop-opacity:1"/><stop offset="1" style="stop-color:white;stop-opacity:0"/></linearGradient>
    </defs>
</svg>
