<?xml version="1.0" encoding="UTF-8" standalone="no"?><!DOCTYPE svg PUBLIC "-//W3C//DTD SVG 1.1//EN" "http://www.w3.org/Graphics/SVG/1.1/DTD/svg11.dtd"><svg width="100%" height="100%" viewBox="0 0 256 256" version="1.1" xmlns="http://www.w3.org/2000/svg" xmlns:xlink="http://www.w3.org/1999/xlink" xml:space="preserve" xmlns:serif="http://www.serif.com/" style="fill-rule:evenodd;clip-rule:evenodd;stroke-linecap:round;stroke-linejoin:round;stroke-miterlimit:79.8403;"><rect id="Artboard1" x="0" y="0" width="256" height="256" style="fill:none;"/><g id="Artboard11" serif:id="Artboard1"><g><path d="M185.24,122.055c-16.76,-1.772 -33.796,-16.952 -42.36,-29.552c-5.18,-7.588 -9.14,-14.7 -9.08,-24.628c0.08,-11.072 7.656,-16.14 18.064,-15.032c16.776,1.772 33.808,16.952 42.372,29.552c5.176,7.588 9.144,14.7 9.072,24.628c-0.068,11.072 -7.644,16.112 -18.068,15.032Z" style="fill:none;stroke:#191919;stroke-width:6.76px;"/><path d="M117.128,36.703c-9.56,9.96 -6.708,26.132 -3.076,36.54c4.312,12.36 10.916,22.62 19.164,32.492c14.192,16.948 38.852,36.688 63.044,39.24c8.764,0.9 15.724,0.628 22.896,-6.152" style="fill:none;stroke:#191919;stroke-width:6.76px;"/><path d="M61.1,194.775c-11.868,-11.88 -21.168,-24.452 -27.24,-40.472c-3.128,-8.22 -5.12,-16.08 -3.964,-25.26c1.148,-9.088 6.352,-14.308 12.276,-20.248c23.976,-23.972 72.12,-72.12 72.22,-72.212c11.728,-11.728 31.884,-6.3 43.54,-1.26c14.368,6.212 26.02,14.94 36.932,25.86c10.932,10.92 19.664,22.592 25.864,36.992c5.024,11.64 10.42,31.8 -1.364,43.5c-0.112,0.12 -48.292,48.3 -72.264,72.268c-6.024,6.032 -11.372,11.192 -20.564,12.212c-9.064,1.02 -16.832,-0.932 -24.968,-4.052c-16.02,-6.12 -28.592,-15.42 -40.468,-27.328Z" style="fill:none;stroke:#191919;stroke-width:9.32px;"/><path d="M138.896,220.603c9.56,-9.928 6.708,-26.1 3.076,-36.54c-4.312,-12.36 -10.916,-22.588 -19.164,-32.46c-14.192,-16.948 -38.852,-36.688 -63.048,-39.24c-8.76,-0.9 -15.72,-0.628 -22.888,6.12" style="fill:none;stroke:#191919;stroke-opacity:0.6;stroke-width:6.76px;"/><path d="M104.188,203.115c-16.76,-1.772 -33.796,-16.98 -42.364,-29.552c-5.176,-7.588 -9.132,-14.728 -9.08,-24.66c0.08,-11.04 7.66,-16.108 18.068,-15c16.776,1.772 33.804,16.952 42.372,29.52c5.172,7.62 9.144,14.732 9.072,24.66c-0.072,11.04 -7.644,16.112 -18.068,15.032Z" style="fill:none;stroke:#191919;stroke-opacity:0.6;stroke-width:6.76px;"/></g></g></svg>