<?xml version="1.0" encoding="UTF-8" standalone="no"?><!DOCTYPE svg PUBLIC "-//W3C//DTD SVG 1.1//EN" "http://www.w3.org/Graphics/SVG/1.1/DTD/svg11.dtd"><svg width="100%" height="100%" viewBox="0 0 256 256" version="1.1" xmlns="http://www.w3.org/2000/svg" xmlns:xlink="http://www.w3.org/1999/xlink" xml:space="preserve" xmlns:serif="http://www.serif.com/" style="fill-rule:evenodd;clip-rule:evenodd;stroke-miterlimit:79.8403;"><rect id="Artboard1" x="0" y="0" width="256" height="256" style="fill:none;"/><clipPath id="_clip1"><rect id="Artboard11" serif:id="Artboard1" x="0" y="0" width="256" height="256"/></clipPath><g clip-path="url(#_clip1)"><g><path d="M67.059,119.792l0,86.763c0,7.104 5.766,12.87 12.87,12.87l96.142,0c7.103,0 12.869,-5.766 12.869,-12.87l0,-86.763c0,-7.104 -5.766,-12.87 -12.869,-12.87l-96.142,0c-7.104,0 -12.87,5.766 -12.87,12.87Z" style="fill:url(#_Linear2);"/><path d="M94.248,167.864l-22.5,37.5l22.5,0l22.5,-37.5l-22.5,0Z"/><rect x="81.12" y="111.614" width="28.131" height="100.161" style="fill:#fff;"/><path d="M116.748,167.864l-22.5,37.5l22.5,0l22.503,-37.5l-22.503,0Z" style="fill:#ffea00;"/><path d="M139.251,167.864l-22.506,37.5l22.5,0l22.506,-37.5l-22.5,0Z"/><rect x="146.746" y="111.614" width="18.753" height="100.155" style="fill:#fff;"/><path d="M161.751,167.864l-22.506,37.5l22.503,0l22.5,-37.5l-22.497,0Z" style="fill:url(#_Linear3);"/><path d="M71.751,167.864l-0.003,37.5l22.5,-37.5l-22.497,0Z" style="fill:url(#_Linear4);"/><path d="M184.248,167.864l-22.5,37.5l22.498,0l0.002,-37.5Z"/><path d="M67.059,119.792l0,86.763c0,7.104 5.766,12.87 12.87,12.87l96.142,0c7.103,0 12.869,-5.766 12.869,-12.87l0,-86.763c0,-7.104 -5.766,-12.87 -12.869,-12.87l-96.142,0c-7.104,0 -12.87,5.766 -12.87,12.87Z" style="fill:none;stroke:#2d2d2d;stroke-width:9.45px;"/><path d="M174.909,102.242l-9.447,-0.003l0.003,-18.75c0,-20.676 -16.788,-37.464 -37.464,-37.464c-20.678,0 -37.464,16.788 -37.464,37.464l0,18.75l-9.45,0l0,-18.75c0,-25.893 21.019,-46.914 46.914,-46.914c25.893,0 46.914,21.021 46.914,46.917l-0.005,18.75Z" style="fill:url(#_Linear5);"/><path d="M90.462,102.242l-0.003,-18.75c0,-20.724 16.818,-37.542 37.539,-37.542c20.718,0 37.539,16.818 37.539,37.539l0,18.75l-9.45,0l0,-18.75c0,-15.504 -12.588,-28.089 -28.089,-28.089c-15.504,0 -28.089,12.585 -28.089,28.089l0,18.75l-9.447,0.003Z" style="fill:url(#_Linear6);"/></g></g><defs><linearGradient id="_Linear2" x1="0" y1="0" x2="1" y2="0" gradientUnits="userSpaceOnUse" gradientTransform="matrix(110.796,0,0,-110.796,72.6005,157.553)"><stop offset="0" style="stop-color:#a7a7a7;stop-opacity:1"/><stop offset="0.2" style="stop-color:#d4d4d4;stop-opacity:1"/><stop offset="0.7" style="stop-color:#959595;stop-opacity:1"/><stop offset="1" style="stop-color:#5b5b5b;stop-opacity:1"/></linearGradient><linearGradient id="_Linear3" x1="0" y1="0" x2="1" y2="0" gradientUnits="userSpaceOnUse" gradientTransform="matrix(28.674,0,0,-28.674,156.13,174.11)"><stop offset="0" style="stop-color:#ffea00;stop-opacity:1"/><stop offset="1" style="stop-color:#ff9b00;stop-opacity:1"/></linearGradient><linearGradient id="_Linear4" x1="0" y1="0" x2="1" y2="0" gradientUnits="userSpaceOnUse" gradientTransform="matrix(-16.875,9.5606e-15,9.5606e-15,16.875,88.6265,180.365)"><stop offset="0" style="stop-color:#ffea00;stop-opacity:1"/><stop offset="1" style="stop-color:#ff9b00;stop-opacity:1"/></linearGradient><linearGradient id="_Linear5" x1="0" y1="0" x2="1" y2="0" gradientUnits="userSpaceOnUse" gradientTransform="matrix(46.875,56.25,56.25,-46.875,99.8735,50.675)"><stop offset="0" style="stop-color:#7e7e7e;stop-opacity:1"/><stop offset="1" style="stop-color:#111;stop-opacity:1"/></linearGradient><linearGradient id="_Linear6" x1="0" y1="0" x2="1" y2="0" gradientUnits="userSpaceOnUse" gradientTransform="matrix(-37.5,-51.564,-51.564,37.5,151.437,102.239)"><stop offset="0" style="stop-color:#515151;stop-opacity:1"/><stop offset="1" style="stop-color:#020202;stop-opacity:1"/></linearGradient></defs></svg>