<?xml version="1.0" encoding="UTF-8" standalone="no"?><!DOCTYPE svg PUBLIC "-//W3C//DTD SVG 1.1//EN" "http://www.w3.org/Graphics/SVG/1.1/DTD/svg11.dtd"><svg width="100%" height="100%" viewBox="0 0 256 256" version="1.1" xmlns="http://www.w3.org/2000/svg" xmlns:xlink="http://www.w3.org/1999/xlink" xml:space="preserve" xmlns:serif="http://www.serif.com/" style="fill-rule:evenodd;clip-rule:evenodd;stroke-miterlimit:79.8403;"><rect id="Artboard1" x="0" y="0" width="256" height="256" style="fill:none;"/><clipPath id="_clip1"><rect id="Artboard11" serif:id="Artboard1" x="0" y="0" width="256" height="256"/></clipPath><g clip-path="url(#_clip1)"><g><g id="Group_1"><path d="M97.889,54.165c3.684,-3.687 9.675,-3.69 13.362,-0.006c3.687,3.684 3.69,9.675 0.006,13.362c-3.684,3.687 -9.675,3.69 -13.362,0.006c-3.687,-3.684 -3.69,-9.675 -0.006,-13.362Z" style="fill:url(#_Linear2);"/><g id="Group_2"><path d="M164.285,120.555l-6.675,-6.681l13.26,-13.257c14.619,-14.622 14.619,-38.364 0,-52.983c-14.622,-14.622 -38.364,-14.619 -52.983,0l-13.257,13.26l-6.684,-6.684l13.26,-13.257c18.309,-18.309 48.033,-18.312 66.345,0c18.309,18.309 18.309,48.036 -0.003,66.348l-13.263,13.254Z" style="fill:url(#_Linear3);"/><path d="M104.573,60.843l13.257,-13.263c14.655,-14.652 38.439,-14.652 53.091,0c14.649,14.649 14.652,38.436 0,53.088l-13.26,13.257l-15.712,2.352l22.288,-22.293c10.965,-10.962 10.962,-28.761 0,-39.723c-10.962,-10.962 -28.761,-10.962 -39.723,0l-13.257,13.26l-6.684,-6.678Z" style="fill:url(#_Linear4);"/></g></g><path d="M64.718,129.147l0,86.763c0,7.104 5.766,12.87 12.87,12.87l96.141,0c7.104,0 12.87,-5.766 12.87,-12.87l0,-86.763c0,-7.104 -5.766,-12.87 -12.87,-12.87l-96.141,0c-7.104,0 -12.87,5.766 -12.87,12.87Z" style="fill:url(#_Linear5);"/><path d="M91.907,177.219l-22.5,37.5l22.5,0l22.5,-37.5l-22.5,0Z"/><rect x="78.779" y="120.969" width="28.131" height="100.161" style="fill:#fff;"/><path d="M114.407,177.219l-22.5,37.5l22.5,0l22.503,-37.5l-22.503,0Z" style="fill:#ffea00;"/><path d="M136.91,177.219l-22.506,37.5l22.5,0l22.506,-37.5l-22.5,0Z"/><rect x="144.404" y="120.969" width="18.753" height="100.155" style="fill:#fff;"/><path d="M159.41,177.219l-22.506,37.5l22.503,0l22.5,-37.5l-22.497,0Z" style="fill:url(#_Linear6);"/><path d="M69.41,177.219l-0.003,37.5l22.5,-37.5l-22.497,0Z" style="fill:url(#_Linear7);"/><path d="M181.907,177.219l-22.5,37.5l22.497,0l0.003,-37.5Z"/><path d="M64.718,129.147l0,86.763c0,7.104 5.766,12.87 12.87,12.87l96.141,0c7.104,0 12.87,-5.766 12.87,-12.87l0,-86.763c0,-7.104 -5.766,-12.87 -12.87,-12.87l-96.141,0c-7.104,0 -12.87,5.766 -12.87,12.87Z" style="fill:none;stroke:#2d2d2d;stroke-width:9.45px;"/></g></g><defs><linearGradient id="_Linear2" x1="0" y1="0" x2="1" y2="0" gradientUnits="userSpaceOnUse" gradientTransform="matrix(6.186,5.625,5.625,-6.186,101.114,61.2209)"><stop offset="0" style="stop-color:#575757;stop-opacity:1"/><stop offset="1" style="stop-color:#252525;stop-opacity:1"/></linearGradient><linearGradient id="_Linear3" x1="0" y1="0" x2="1" y2="0" gradientUnits="userSpaceOnUse" gradientTransform="matrix(-6.63,72.921,72.921,6.63,147.692,31.0319)"><stop offset="0" style="stop-color:#7e7e7e;stop-opacity:1"/><stop offset="1" style="stop-color:#111;stop-opacity:1"/></linearGradient><linearGradient id="_Linear4" x1="0" y1="0" x2="1" y2="0" gradientUnits="userSpaceOnUse" gradientTransform="matrix(9.945,-62.979,-62.979,-9.945,147.692,103.956)"><stop offset="0" style="stop-color:#515151;stop-opacity:1"/><stop offset="1" style="stop-color:#020202;stop-opacity:1"/></linearGradient><linearGradient id="_Linear5" x1="0" y1="0" x2="1" y2="0" gradientUnits="userSpaceOnUse" gradientTransform="matrix(110.796,0,0,-110.796,70.2588,166.908)"><stop offset="0" style="stop-color:#a7a7a7;stop-opacity:1"/><stop offset="0.2" style="stop-color:#d4d4d4;stop-opacity:1"/><stop offset="0.7" style="stop-color:#959595;stop-opacity:1"/><stop offset="1" style="stop-color:#5b5b5b;stop-opacity:1"/></linearGradient><linearGradient id="_Linear6" x1="0" y1="0" x2="1" y2="0" gradientUnits="userSpaceOnUse" gradientTransform="matrix(28.674,0,0,-28.674,153.788,183.465)"><stop offset="0" style="stop-color:#ffea00;stop-opacity:1"/><stop offset="1" style="stop-color:#ff9b00;stop-opacity:1"/></linearGradient><linearGradient id="_Linear7" x1="0" y1="0" x2="1" y2="0" gradientUnits="userSpaceOnUse" gradientTransform="matrix(-16.875,-2.06659e-15,-2.06659e-15,16.875,86.2848,189.72)"><stop offset="0" style="stop-color:#ffea00;stop-opacity:1"/><stop offset="1" style="stop-color:#ff9b00;stop-opacity:1"/></linearGradient></defs></svg>