<?xml version="1.0" encoding="UTF-8" standalone="no"?>
<!DOCTYPE svg PUBLIC "-//W3C//DTD SVG 1.1//EN" "http://www.w3.org/Graphics/SVG/1.1/DTD/svg11.dtd">
<svg width="100%" height="100%" viewBox="0 0 509 163" version="1.1" xmlns="http://www.w3.org/2000/svg" xmlns:xlink="http://www.w3.org/1999/xlink" xml:space="preserve" xmlns:serif="http://www.serif.com/" style="fill-rule:evenodd;clip-rule:evenodd;stroke-miterlimit:10;">
    <g id="Artboard1" transform="matrix(1,0,0,1,-53.0714,-1201.12)">
        <rect x="53.071" y="1201.12" width="508.084" height="162.651" style="fill:none;"/>
        <clipPath id="_clip1">
            <rect x="53.071" y="1201.12" width="508.084" height="162.651"/>
        </clipPath>
        <g clip-path="url(#_clip1)">
            <g transform="matrix(1,0,0,1,53.0714,1201.12)">
                <path d="M89.142,58.37L89.142,73.995" style="fill:none;stroke:black;stroke-width:3.1px;"/>
            </g>
            <g transform="matrix(1,0,0,1,53.0714,1201.12)">
                <path d="M79.845,52.12L79.845,66.139L93.885,66.139" style="fill:none;stroke:black;stroke-width:3.1px;"/>
            </g>
            <g transform="matrix(1,0,0,1,53.0714,1201.12)">
                <path d="M217.299,127.125L217.299,147.437L228.24,147.437" style="fill:none;stroke:black;stroke-width:3.1px;"/>
            </g>
            <g transform="matrix(1,0,0,1,0.0714311,0.116394)">
                <path d="M245.32,1259.38L245.32,1268.76C245.32,1271.34 247.419,1273.44 250.007,1273.44L253.132,1273.44C255.72,1273.44 257.82,1271.34 257.82,1268.76L257.82,1259.38C257.82,1256.79 255.72,1254.69 253.132,1254.69L250.007,1254.69C247.419,1254.69 245.32,1256.79 245.32,1259.38Z" style="fill:none;stroke:black;stroke-width:3.11px;"/>
            </g>
            <g transform="matrix(1,0,0,1,0.0714311,0.116394)">
                <path d="M239.07,1264.06L231.257,1264.06C228.669,1264.06 226.57,1261.96 226.57,1259.37C226.57,1256.79 228.669,1254.68 231.257,1254.68L234.382,1254.68C236.97,1254.68 239.07,1256.79 239.07,1259.37L239.07,1268.75C239.07,1271.34 236.97,1273.43 234.382,1273.43L228.132,1273.43" style="fill:none;stroke:black;stroke-width:3.11px;"/>
            </g>
            <g transform="matrix(1,0,0,1,0.0714311,0.116394)">
                <path d="M215.63,1264.06L212.505,1264.06C209.917,1264.06 207.818,1261.96 207.818,1259.37C207.818,1256.79 209.917,1254.68 212.505,1254.68L215.63,1254.68C218.218,1254.68 220.318,1256.79 220.318,1259.37C220.318,1261.96 218.218,1264.06 215.63,1264.06Z" style="fill:none;stroke:black;stroke-width:3.11px;"/>
            </g>
            <g transform="matrix(1,0,0,1,0.0714311,0.116394)">
                <path d="M212.51,1264.06L215.635,1264.06C218.223,1264.06 220.323,1266.16 220.323,1268.75C220.323,1271.34 218.223,1273.43 215.635,1273.43L212.51,1273.43C209.922,1273.43 207.823,1271.34 207.823,1268.75C207.823,1266.16 209.922,1264.06 212.51,1264.06Z" style="fill:none;stroke:black;stroke-width:3.11px;"/>
            </g>
            <g transform="matrix(1,0,0,1,0.0714311,0.116394)">
                <path d="M170.32,1264.06L178.133,1264.06C180.721,1264.06 182.82,1266.16 182.82,1268.75C182.82,1271.34 180.721,1273.43 178.133,1273.43L175.008,1273.43C172.42,1273.43 170.32,1271.34 170.32,1268.75L170.32,1259.37C170.32,1256.78 172.42,1254.68 175.008,1254.68L181.258,1254.68" style="fill:none;stroke:black;stroke-width:3.11px;"/>
            </g>
            <g transform="matrix(1,0,0,1,0.0714311,0.116394)">
                <path d="M151.57,1268.75C151.57,1271.34 153.67,1273.44 156.258,1273.44L159.383,1273.44C161.971,1273.44 164.07,1271.34 164.07,1268.75C164.07,1266.16 161.971,1264.06 159.383,1264.06L151.57,1264.06L151.57,1254.69L162.507,1254.69" style="fill:none;stroke:black;stroke-width:3.11px;"/>
            </g>
            <g transform="matrix(1,0,0,1,0.0714311,0.116394)">
                <path d="M109.38,1273.44L96.88,1273.44L96.88,1271.88L106.41,1262.73C107.279,1261.88 107.818,1260.69 107.818,1259.38C107.818,1256.79 105.718,1254.69 103.13,1254.69L100.005,1254.69C97.417,1254.69 95.318,1256.79 95.318,1259.38" style="fill:none;stroke:black;stroke-width:3.11px;"/>
            </g>
            <g transform="matrix(1,0,0,1,0.0714311,0.116394)">
                <path d="M114.07,1268.75C114.07,1271.34 116.169,1273.44 118.757,1273.44L121.882,1273.44C124.47,1273.44 126.57,1271.34 126.57,1268.75C126.57,1266.16 124.47,1264.06 121.882,1264.06L118.757,1264.06L121.882,1264.06C124.47,1264.06 126.57,1261.96 126.57,1259.38C126.57,1256.79 124.47,1254.69 121.882,1254.69L118.757,1254.69C116.169,1254.69 114.07,1256.79 114.07,1259.38" style="fill:none;stroke:black;stroke-width:3.11px;"/>
            </g>
            <g transform="matrix(1,0,0,1,0.0714311,0.116394)">
                <path d="M187.51,1254.69L201.573,1254.69L201.573,1257.82L192.198,1267.19L192.198,1275" style="fill:none;stroke:black;stroke-width:3.11px;"/>
            </g>
            <g transform="matrix(1,0,0,1,0.0714311,0.116394)">
                <path d="M195.31,1334.38C195.31,1331.79 193.21,1329.69 190.622,1329.69L187.497,1329.69C184.909,1329.69 182.81,1331.79 182.81,1334.38L182.81,1343.76C182.81,1346.34 184.909,1348.44 187.497,1348.44L190.622,1348.44C193.21,1348.44 195.31,1346.34 195.31,1343.76L195.31,1342.19L190.622,1342.19" style="fill:none;stroke:black;stroke-width:3.11px;"/>
            </g>
            <g transform="matrix(1,0,0,1,0.0714311,0.116394)">
                <path d="M89.063,1350L89.063,1334.38C89.063,1331.79 86.963,1329.69 84.375,1329.69L81.25,1329.69C78.662,1329.69 76.563,1331.79 76.563,1334.38L76.563,1350" style="fill:none;stroke:black;stroke-width:3.11px;"/>
            </g>
            <g transform="matrix(1,0,0,1,0.0714311,0.116394)">
                <path d="M76.563,1342.19L89.063,1342.19" style="fill:none;stroke:black;stroke-width:3.11px;"/>
            </g>
            <g transform="matrix(1,0,0,1,0.0714311,0.116394)">
                <path d="M103.12,1348.44C105.708,1348.44 107.808,1346.34 107.808,1343.75C107.808,1341.16 105.708,1339.07 103.12,1339.07L95.308,1339.07L103.12,1339.07C105.708,1339.07 107.808,1336.97 107.808,1334.38C107.808,1331.79 105.708,1329.69 103.12,1329.69L95.308,1329.69L95.308,1348.44L103.12,1348.44Z" style="fill:none;stroke:black;stroke-width:3.11px;"/>
            </g>
            <g transform="matrix(1,0,0,1,0.0714311,0.116394)">
                <path d="M126.56,1334.38C126.56,1331.79 124.46,1329.69 121.872,1329.69L118.747,1329.69C116.159,1329.69 114.06,1331.79 114.06,1334.38L114.06,1343.76C114.06,1346.34 116.159,1348.44 118.747,1348.44L121.872,1348.44C124.46,1348.44 126.56,1346.34 126.56,1343.76" style="fill:none;stroke:black;stroke-width:3.11px;"/>
            </g>
            <g transform="matrix(1,0,0,1,0.0714311,0.116394)">
                <path d="M132.81,1329.69L132.81,1348.44L140.622,1348.44C143.21,1348.44 145.31,1346.34 145.31,1343.75L145.31,1334.38C145.31,1331.79 143.21,1329.69 140.622,1329.69L132.81,1329.69Z" style="fill:none;stroke:black;stroke-width:3.11px;"/>
            </g>
            <g transform="matrix(1,0,0,1,0.0714311,0.116394)">
                <path d="M232.81,1343.75C232.81,1346.34 234.909,1348.44 237.497,1348.44C240.14,1348.44 242.185,1346.5 242.185,1343.75L242.185,1329.69L237.497,1329.69L246.872,1329.69" style="fill:none;stroke:black;stroke-width:3.11px;"/>
            </g>
            <g transform="matrix(1,0,0,1,0.0714311,0.116394)">
                <path d="M251.56,1328.12L251.56,1350" style="fill:none;stroke:black;stroke-width:3.11px;"/>
            </g>
            <g transform="matrix(1,0,0,1,0.0714311,0.116394)">
                <path d="M264.06,1329.69L254.685,1339.07L264.06,1348.44" style="fill:none;stroke:black;stroke-width:3.11px;stroke-linecap:round;"/>
            </g>
            <g transform="matrix(1,0,0,1,0.0714311,0.116394)">
                <path d="M285.93,1350L285.93,1329.69L292.18,1335.94L292.18,1340.62L292.18,1335.94L298.43,1329.69L298.43,1350" style="fill:none;stroke:black;stroke-width:3.11px;stroke-linejoin:round;"/>
            </g>
            <g transform="matrix(1,0,0,1,0.0714311,0.116394)">
                <path d="M304.68,1350L304.68,1329.69L317.18,1342.19" style="fill:none;stroke:black;stroke-width:3.11px;stroke-linejoin:round;"/>
            </g>
            <g transform="matrix(1,0,0,1,0.0714311,0.116394)">
                <path d="M317.18,1328.12L317.18,1350" style="fill:none;stroke:black;stroke-width:3.11px;"/>
            </g>
            <g transform="matrix(1,0,0,1,0.0714311,0.116394)">
                <path d="M323.43,1334.38L323.43,1343.76C323.43,1346.34 325.529,1348.44 328.117,1348.44L331.242,1348.44C333.83,1348.44 335.93,1346.34 335.93,1343.76L335.93,1334.38C335.93,1331.79 333.83,1329.69 331.242,1329.69L328.117,1329.69C325.529,1329.69 323.43,1331.79 323.43,1334.38Z" style="fill:none;stroke:black;stroke-width:3.11px;"/>
            </g>
            <g transform="matrix(1,0,0,1,0.0714311,0.116394)">
                <path d="M342.18,1339.06L349.992,1339.06C352.58,1339.06 354.68,1336.96 354.68,1334.37C354.68,1331.79 352.58,1329.68 349.992,1329.68L342.18,1329.68L342.18,1350" style="fill:none;stroke:black;stroke-width:3.11px;"/>
            </g>
            <g transform="matrix(1,0,0,1,0.0714311,0.116394)">
                <path d="M360.92,1334.38L360.927,1343.76C360.927,1346.34 363.026,1348.44 365.614,1348.44L368.739,1348.44C371.327,1348.44 373.427,1346.34 373.427,1343.76L373.427,1334.38C373.427,1331.79 371.327,1329.69 368.739,1329.69L365.614,1329.69C363.026,1329.69 360.92,1331.79 360.92,1334.38Z" style="fill:none;stroke:black;stroke-width:3.11px;"/>
            </g>
            <g transform="matrix(1,0,0,1,0.0714311,0.116394)">
                <path d="M370.3,1345.31L373.425,1348.43" style="fill:none;stroke:black;stroke-width:3.11px;stroke-linecap:round;stroke-linejoin:round;"/>
            </g>
            <g transform="matrix(1,0,0,1,0.0714311,0.116394)">
                <path d="M379.68,1339.06L387.492,1339.06C390.08,1339.06 392.18,1336.96 392.18,1334.37C392.18,1331.79 390.08,1329.68 387.492,1329.68L379.68,1329.68L379.68,1350" style="fill:none;stroke:black;stroke-width:3.11px;"/>
            </g>
            <g transform="matrix(1,0,0,1,0.0714311,0.116394)">
                <path d="M392.18,1350L392.18,1343.75C392.18,1341.16 390.08,1339.06 387.492,1339.06" style="fill:none;stroke:black;stroke-width:3.11px;"/>
            </g>
            <g transform="matrix(1,0,0,1,0.0714311,0.116394)">
                <path d="M398.43,1343.75C398.43,1346.34 400.529,1348.44 403.117,1348.44L406.242,1348.44C408.83,1348.44 410.93,1346.34 410.93,1343.75C410.929,1341.16 408.83,1339.06 406.242,1339.06L403.117,1339.06C400.529,1339.06 398.43,1336.96 398.43,1334.38C398.43,1331.79 400.529,1329.69 403.117,1329.69L406.242,1329.69C408.83,1329.69 410.93,1331.79 410.93,1334.38" style="fill:none;stroke:black;stroke-width:3.1px;"/>
            </g>
            <g transform="matrix(1,0,0,1,0.0714311,0.116394)">
                <path d="M435.92,1328.12L435.92,1343.75C435.92,1346.33 438.019,1348.43 440.607,1348.43L443.732,1348.43C446.32,1348.43 448.42,1346.33 448.42,1343.75L448.42,1328.12" style="fill:none;stroke:black;stroke-width:3.11px;"/>
            </g>
            <g transform="matrix(1,0,0,1,0.0714311,0.116394)">
                <path d="M454.68,1328.12L454.68,1339.06L460.93,1348.43L467.18,1339.06L467.18,1328.12" style="fill:none;stroke:black;stroke-width:3.11px;stroke-linejoin:round;"/>
            </g>
            <g transform="matrix(1,0,0,1,0.0714311,0.116394)">
                <path d="M473.43,1328.12L473.43,1345.31L476.555,1348.43L479.68,1345.31L479.68,1342.18L479.68,1345.31L482.805,1348.43L485.93,1345.31L485.93,1328.12" style="fill:none;stroke:black;stroke-width:3.11px;stroke-linejoin:round;"/>
            </g>
            <g transform="matrix(1,0,0,1,0.0714311,0.116394)">
                <path d="M492.18,1328.12L492.18,1332.81L504.68,1345.31L504.68,1350" style="fill:none;stroke:black;stroke-width:3.11px;stroke-linejoin:round;"/>
            </g>
            <g transform="matrix(1,0,0,1,0.0714311,0.116394)">
                <path d="M492.18,1350L492.18,1345.31L504.68,1332.81L504.68,1328.12" style="fill:none;stroke:black;stroke-width:3.11px;stroke-linejoin:round;"/>
            </g>
            <g transform="matrix(1,0,0,1,0.0714311,0.116394)">
                <path d="M510.93,1328.12L510.93,1335.93L517.18,1342.18L523.43,1335.93L523.43,1328.12" style="fill:none;stroke:black;stroke-width:3.11px;stroke-linejoin:round;"/>
            </g>
            <g transform="matrix(1,0,0,1,0.0714311,0.116394)">
                <path d="M517.18,1350L517.18,1340.62" style="fill:none;stroke:black;stroke-width:3.11px;stroke-linejoin:round;"/>
            </g>
            <g transform="matrix(1,0,0,1,0.0714311,0.116394)">
                <path d="M528.12,1329.69L542.183,1329.69L542.183,1332.82L529.683,1345.32L529.683,1348.44L543.745,1348.44" style="fill:none;stroke:black;stroke-width:3.11px;stroke-linejoin:round;"/>
            </g>
            <g transform="matrix(1,0,0,1,0.0714311,0.116394)">
                <path d="M89.062,1304.69C89.062,1301.57 85.937,1301.57 84.374,1301.57L81.249,1301.57C79.687,1301.57 76.562,1301.57 76.562,1304.69C76.562,1307.82 79.687,1307.82 81.249,1307.82L84.374,1307.82C85.937,1307.82 89.062,1307.82 89.062,1304.69Z" style="fill:none;stroke:black;stroke-width:3.11px;"/>
            </g>
            <g transform="matrix(1,0,0,1,0.0714311,0.116394)">
                <path d="M89.062,1309.38L89.062,1300.01C89.062,1296.88 87.499,1295.32 84.374,1295.32L78.131,1295.32" style="fill:none;stroke:black;stroke-width:3.11px;"/>
            </g>
            <g transform="matrix(1,0,0,1,0.0714311,0.116394)">
                <path d="M95.312,1287.5L95.312,1309.38" style="fill:none;stroke:black;stroke-width:3.11px;"/>
            </g>
            <g transform="matrix(1,0,0,1,0.0714311,0.116394)">
                <path d="M145.3,1287.5L145.3,1309.38" style="fill:none;stroke:black;stroke-width:3.11px;"/>
            </g>
            <g transform="matrix(1,0,0,1,0.0714311,0.116394)">
                <path d="M107.8,1300.01C107.8,1297.42 105.7,1295.32 103.112,1295.32L99.987,1295.32C97.399,1295.32 95.3,1297.42 95.3,1300.01L95.306,1303.13C95.306,1305.72 97.405,1307.82 99.993,1307.82L103.118,1307.82C105.706,1307.82 107.806,1305.72 107.806,1303.13L107.8,1300.01Z" style="fill:none;stroke:black;stroke-width:3.11px;"/>
            </g>
            <g transform="matrix(1,0,0,1,0.0714311,0.116394)">
                <path d="M126.56,1300.01C126.56,1297.42 124.46,1295.32 121.872,1295.32L118.747,1295.32C116.159,1295.32 114.06,1297.42 114.06,1300.01L114.066,1303.13C114.066,1305.72 116.165,1307.82 118.753,1307.82L121.878,1307.82C124.466,1307.82 126.566,1305.72 126.566,1303.13" style="fill:none;stroke:black;stroke-width:3.11px;"/>
            </g>
            <g transform="matrix(1,0,0,1,0.0714311,0.116394)">
                <path d="M145.31,1300.01C145.31,1297.42 143.21,1295.32 140.622,1295.32L137.497,1295.32C134.909,1295.32 132.81,1297.42 132.81,1300.01L132.816,1303.13C132.816,1305.72 134.915,1307.82 137.503,1307.82L140.628,1307.82C143.216,1307.82 145.316,1305.72 145.316,1303.13L145.31,1300.01Z" style="fill:none;stroke:black;stroke-width:3.11px;"/>
            </g>
            <g transform="matrix(1,0,0,1,0.0714311,0.116394)">
                <path d="M151.56,1301.56L164.06,1301.56L164.053,1299.99C164.053,1297.4 161.953,1295.3 159.365,1295.3L156.24,1295.3C153.652,1295.3 151.553,1297.4 151.553,1299.99L151.559,1303.11C151.559,1305.7 153.659,1307.81 156.247,1307.81L162.497,1307.81" style="fill:none;stroke:black;stroke-width:3.11px;stroke-linejoin:round;"/>
            </g>
            <g transform="matrix(1,0,0,1,0.0714311,0.116394)">
                <path d="M181.25,1289.06L178.125,1289.06C175.537,1289.06 173.438,1291.16 173.438,1293.75L173.438,1309.38" style="fill:none;stroke:black;stroke-width:3.11px;"/>
            </g>
            <g transform="matrix(1,0,0,1,0.0714311,0.116394)">
                <path d="M168.75,1298.43L178.125,1298.43" style="fill:none;stroke:black;stroke-width:3.11px;"/>
            </g>
            <g transform="matrix(1,0,0,1,0.0714311,0.116394)">
                <path d="M195.3,1300.01C195.3,1297.42 193.2,1295.32 190.612,1295.32L187.487,1295.32C184.899,1295.32 182.8,1297.42 182.8,1300.01L182.806,1303.13C182.806,1305.72 184.905,1307.82 187.493,1307.82L190.618,1307.82C193.206,1307.82 195.306,1305.72 195.306,1303.13L195.3,1300.01Z" style="fill:none;stroke:black;stroke-width:3.11px;"/>
            </g>
            <g transform="matrix(1,0,0,1,0.0714311,0.116394)">
                <path d="M182.81,1312.51C182.81,1315.1 184.909,1317.2 187.497,1317.2L190.622,1317.2C193.21,1317.2 195.31,1315.1 195.31,1312.51L195.304,1312.52C195.304,1309.93 193.204,1307.83 190.616,1307.83" style="fill:none;stroke:black;stroke-width:3.11px;"/>
            </g>
            <g transform="matrix(1,0,0,1,0.0714311,0.116394)">
                <path d="M201.57,1287.5L201.57,1309.38" style="fill:none;stroke:black;stroke-width:3.11px;"/>
            </g>
            <g transform="matrix(1,0,0,1,0.0714311,0.116394)">
                <path d="M214.06,1309.38L214.06,1300.02C214.06,1297.43 211.96,1295.33 209.372,1295.33L206.247,1295.33C203.659,1295.33 201.56,1297.43 201.56,1300.02L201.566,1303.14" style="fill:none;stroke:black;stroke-width:3.11px;"/>
            </g>
            <g transform="matrix(1,0,0,1,0.0714311,0.116394)">
                <path d="M220.3,1296.88L220.3,1309.38" style="fill:none;stroke:black;stroke-width:3.11px;"/>
            </g>
            <g transform="matrix(1,0,0,1,0.0714311,0.116394)">
                <path d="M220.31,1290.63L220.31,1293.76" style="fill:none;stroke:black;stroke-width:3.11px;"/>
            </g>
            <g transform="matrix(1,0,0,1,0.0714311,0.116394)">
                <path d="M232.8,1296.88L232.8,1312.51C232.8,1315.26 230.814,1317.19 228.112,1317.19C225.524,1317.19 223.425,1315.09 223.425,1312.51" style="fill:none;stroke:black;stroke-width:3.11px;"/>
            </g>
            <g transform="matrix(1,0,0,1,0.0714311,0.116394)">
                <path d="M232.8,1290.63L232.8,1293.76" style="fill:none;stroke:black;stroke-width:3.11px;"/>
            </g>
            <g transform="matrix(1,0,0,1,0.0714311,0.116394)">
                <path d="M239.08,1287.5L239.08,1309.38" style="fill:none;stroke:black;stroke-width:3.11px;"/>
            </g>
            <g transform="matrix(1,0,0,1,0.0714311,0.116394)">
                <path d="M248.44,1295.31L242.19,1301.56L248.44,1307.81" style="fill:none;stroke:black;stroke-width:3.11px;stroke-linecap:round;"/>
            </g>
            <g transform="matrix(1,0,0,1,0.0714311,0.116394)">
                <path d="M254.68,1287.5L254.68,1304.69C254.68,1306.25 256.242,1307.81 257.805,1307.81L259.367,1307.81" style="fill:none;stroke:black;stroke-width:3.11px;"/>
            </g>
            <g transform="matrix(1,0,0,1,0.0714311,0.116394)">
                <path d="M301.55,1309.38L301.55,1300C301.55,1297.41 299.45,1295.31 296.862,1295.31L293.737,1295.31C291.149,1295.31 289.05,1297.41 289.05,1300L289.05,1309.38" style="fill:none;stroke:black;stroke-width:3.11px;"/>
            </g>
            <g transform="matrix(1,0,0,1,0.0714311,0.116394)">
                <path d="M289.05,1293.75L289.05,1301.56" style="fill:none;stroke:black;stroke-width:3.11px;"/>
            </g>
            <g transform="matrix(1,0,0,1,0.0714311,0.116394)">
                <path d="M273.43,1309.38L273.43,1300.01C273.43,1297.21 271.482,1295.32 268.742,1295.32C266.154,1295.32 264.055,1297.42 264.055,1300.01L264.048,1309.38" style="fill:none;stroke:black;stroke-width:3.11px;"/>
            </g>
            <g transform="matrix(1,0,0,1,0.0714311,0.116394)">
                <path d="M264.05,1293.75L264.05,1301.56" style="fill:none;stroke:black;stroke-width:3.11px;"/>
            </g>
            <g transform="matrix(1,0,0,1,0.0714311,0.116394)">
                <path d="M282.81,1309.37L282.81,1300C282.81,1297.2 280.862,1295.31 278.122,1295.31C275.534,1295.31 273.435,1297.41 273.435,1300L273.428,1309.37" style="fill:none;stroke:black;stroke-width:3.11px;"/>
            </g>
            <g transform="matrix(1,0,0,1,0.0714311,0.116394)">
                <path d="M320.3,1300.01C320.3,1297.42 318.2,1295.32 315.612,1295.32L312.487,1295.32C309.899,1295.32 307.8,1297.42 307.8,1300.01L307.806,1303.13C307.806,1305.72 309.905,1307.82 312.493,1307.82L315.618,1307.82C318.206,1307.82 320.306,1305.72 320.306,1303.13L320.3,1300.01Z" style="fill:none;stroke:black;stroke-width:3.11px;"/>
            </g>
            <g transform="matrix(1,0,0,1,0.0714311,0.116394)">
                <path d="M326.55,1293.75L326.55,1315.62" style="fill:none;stroke:black;stroke-width:3.11px;"/>
            </g>
            <g transform="matrix(1,0,0,1,0.0714311,0.116394)">
                <path d="M339.06,1300.01C339.06,1297.42 336.96,1295.32 334.372,1295.32L331.247,1295.32C328.659,1295.32 326.56,1297.42 326.56,1300.01L326.566,1303.13C326.566,1305.72 328.665,1307.82 331.253,1307.82L334.378,1307.82C336.966,1307.82 339.066,1305.72 339.066,1303.13L339.06,1300.01Z" style="fill:none;stroke:black;stroke-width:3.11px;"/>
            </g>
            <g transform="matrix(1,0,0,1,0.0714311,0.116394)">
                <path d="M357.8,1293.75L357.8,1315.62" style="fill:none;stroke:black;stroke-width:3.11px;"/>
            </g>
            <g transform="matrix(1,0,0,1,0.0714311,0.116394)">
                <path d="M357.8,1300.01C357.8,1297.42 355.7,1295.32 353.112,1295.32L349.987,1295.32C347.399,1295.32 345.3,1297.42 345.3,1300.01L345.306,1303.13C345.306,1305.72 347.405,1307.82 349.993,1307.82L353.118,1307.82C355.706,1307.82 357.806,1305.72 357.806,1303.13L357.8,1300.01Z" style="fill:none;stroke:black;stroke-width:3.11px;"/>
            </g>
            <g transform="matrix(1,0,0,1,0.0714311,0.116394)">
                <path d="M373.44,1300C373.44,1296.88 371.877,1295.31 368.745,1295.33C366.157,1295.33 364.058,1297.42 364.058,1300.01L364.058,1309.38" style="fill:none;stroke:black;stroke-width:3.11px;"/>
            </g>
            <g transform="matrix(1,0,0,1,0.0714311,0.116394)">
                <path d="M364.06,1293.75L364.06,1300" style="fill:none;stroke:black;stroke-width:3.11px;"/>
            </g>
            <g transform="matrix(1,0,0,1,0.0714311,0.116394)">
                <path d="M378.12,1307.81L384.37,1307.81C385.933,1307.81 389.058,1307.81 389.058,1304.68C389.058,1301.56 385.933,1301.56 384.37,1301.56C382.808,1301.56 379.683,1301.56 379.683,1298.43C379.683,1295.31 382.808,1295.31 384.37,1295.31L390.62,1295.31" style="fill:none;stroke:black;stroke-width:3.11px;"/>
            </g>
            <g transform="matrix(1,0,0,1,0.0714311,0.116394)">
                <path d="M398.44,1287.5L398.44,1304.69C398.44,1306.25 400.002,1307.81 401.565,1307.81L403.127,1307.81" style="fill:none;stroke:black;stroke-width:3.11px;"/>
            </g>
            <g transform="matrix(1,0,0,1,0.0714311,0.116394)">
                <path d="M393.76,1295.31L403.135,1295.31" style="fill:none;stroke:black;stroke-width:3.11px;"/>
            </g>
            <g transform="matrix(1,0,0,1,0.0714311,0.116394)">
                <path d="M407.81,1293.75L407.816,1303.13C407.816,1305.72 409.915,1307.82 412.503,1307.82L415.628,1307.82C418.216,1307.82 420.316,1305.72 420.316,1303.13L420.31,1293.75" style="fill:none;stroke:black;stroke-width:3.11px;"/>
            </g>
            <g transform="matrix(1,0,0,1,0.0714311,0.116394)">
                <path d="M420.31,1309.38L420.31,1303.13" style="fill:none;stroke:black;stroke-width:3.11px;"/>
            </g>
            <g transform="matrix(1,0,0,1,0.0714311,0.116394)">
                <path d="M426.56,1295.31L432.81,1307.81L439.06,1295.31" style="fill:none;stroke:black;stroke-width:3.11px;stroke-linecap:round;stroke-linejoin:round;"/>
            </g>
            <g transform="matrix(1,0,0,1,0.0714311,0.116394)">
                <path d="M454.69,1293.75L454.69,1303.12C454.69,1305.92 452.742,1307.81 450.002,1307.81C447.414,1307.81 445.315,1305.71 445.315,1303.12L445.308,1293.75" style="fill:none;stroke:black;stroke-width:3.11px;"/>
            </g>
            <g transform="matrix(1,0,0,1,0.0714311,0.116394)">
                <path d="M464.06,1309.38L464.06,1301.57" style="fill:none;stroke:black;stroke-width:3.11px;"/>
            </g>
            <g transform="matrix(1,0,0,1,0.0714311,0.116394)">
                <path d="M464.07,1293.76L464.07,1303.13C464.07,1305.93 462.122,1307.82 459.382,1307.82C456.794,1307.82 454.695,1305.72 454.695,1303.13L454.688,1293.76" style="fill:none;stroke:black;stroke-width:3.11px;"/>
            </g>
            <g transform="matrix(1,0,0,1,0.0714311,0.116394)">
                <path d="M470.31,1295.31L479.685,1307.81" style="fill:none;stroke:black;stroke-width:3.11px;stroke-linecap:round;stroke-linejoin:round;"/>
            </g>
            <g transform="matrix(1,0,0,1,0.0714311,0.116394)">
                <path d="M470.31,1307.81L479.685,1295.31" style="fill:none;stroke:black;stroke-width:3.11px;stroke-linecap:round;stroke-linejoin:round;"/>
            </g>
            <g transform="matrix(1,0,0,1,0.0714311,0.116394)">
                <path d="M485.94,1293.75L485.939,1303.13C485.939,1305.72 488.038,1307.82 490.626,1307.82L493.751,1307.82C496.339,1307.82 498.439,1305.72 498.439,1303.13L498.433,1300.01" style="fill:none;stroke:black;stroke-width:3.11px;"/>
            </g>
            <g transform="matrix(1,0,0,1,0.0714311,0.116394)">
                <path d="M485.94,1312.51C485.94,1315.1 488.039,1317.2 490.627,1317.2L493.752,1317.2C496.34,1317.2 498.44,1315.1 498.44,1312.51L498.441,1293.75" style="fill:none;stroke:black;stroke-width:3.11px;"/>
            </g>
            <g transform="matrix(1,0,0,1,0.0714311,0.116394)">
                <path d="M503.12,1295.31L514.058,1295.31L504.683,1307.81L515.62,1307.81" style="fill:none;stroke:black;stroke-width:3.11px;stroke-linejoin:round;"/>
            </g>
            <g transform="matrix(1,0,0,1,0.0714311,0.116394)">
                <path d="M190.62,1295.31L196.87,1295.31" style="fill:none;stroke:black;stroke-width:3.11px;stroke-linejoin:round;"/>
            </g>
            <g transform="matrix(1,0,0,1,0.0714311,0.116394)">
                <path d="M278.12,1254.69L273.433,1254.69L273.433,1273.44L278.12,1273.44" style="fill:none;stroke:black;stroke-width:3.11px;"/>
            </g>
            <g transform="matrix(1,0,0,1,0.0714311,0.116394)">
                <path d="M281.25,1254.69L285.938,1254.69L285.938,1273.44L281.25,1273.44" style="fill:none;stroke:black;stroke-width:3.11px;"/>
            </g>
            <g transform="matrix(1,0,0,1,0.0714311,0.116394)">
                <path d="M300.04,1254.69C297.454,1254.69 295.353,1256.75 295.353,1259.38C295.353,1261.98 293.253,1264.07 290.665,1264.07C293.256,1264.07 295.353,1266.15 295.353,1268.75C295.353,1271.4 297.369,1273.44 300.04,1273.44" style="fill:none;stroke:black;stroke-width:3.11px;stroke-linejoin:bevel;"/>
            </g>
            <g transform="matrix(1,0,0,1,0.0714311,0.116394)">
                <path d="M303.09,1254.69C305.676,1254.69 307.777,1256.75 307.777,1259.38C307.777,1261.98 309.877,1264.07 312.465,1264.07C309.874,1264.07 307.777,1266.15 307.777,1268.75C307.777,1271.4 305.761,1273.44 303.09,1273.44" style="fill:none;stroke:black;stroke-width:3.11px;stroke-linejoin:bevel;"/>
            </g>
            <g transform="matrix(1,0,0,1,0.0714311,0.116394)">
                <path d="M320.32,1254.69C316.131,1260.94 316.131,1267.19 320.32,1273.44" style="fill:none;stroke:black;stroke-width:3.11px;stroke-linecap:round;"/>
            </g>
            <g transform="matrix(1,0,0,1,0.0714311,0.116394)">
                <path d="M326.56,1273.44C330.749,1267.19 330.749,1260.94 326.56,1254.69" style="fill:none;stroke:black;stroke-width:3.11px;stroke-linecap:round;"/>
            </g>
            <g transform="matrix(1,0,0,1,0.0714311,0.116394)">
                <path d="M353.12,1271.88L353.12,1278.13L356.245,1275L356.245,1271.88L353.12,1271.88Z"/>
            </g>
            <g transform="matrix(1,0,0,1,0.0714311,0.116394)">
                <path d="M378.12,1268.75L378.12,1275L381.245,1271.88L381.245,1268.75L378.12,1268.75Z"/>
            </g>
            <g transform="matrix(1,0,0,1,0.0714311,0.116394)">
                <path d="M76.556,1239.06L85.931,1220.31" style="fill:none;stroke:black;stroke-width:3.11px;stroke-linecap:round;"/>
                <path d="M95.306,1220.31L104.681,1239.06" style="fill:none;stroke:black;stroke-width:3.11px;stroke-linecap:round;"/>
                <path d="M112.49,1239.07L128.115,1239.07" style="fill:none;stroke:black;stroke-width:3.11px;"/>
                <path d="M139.06,1240.62L139.06,1218.75" style="fill:none;stroke:black;stroke-width:3.11px;"/>
                <path d="M165.63,1232.82L178.13,1232.82" style="fill:none;stroke:black;stroke-width:3.11px;"/>
                <path d="M184.38,1232.82L200.005,1232.82" style="fill:none;stroke:black;stroke-width:3.11px;"/>
                <path d="M192.19,1240.62L192.19,1225" style="fill:none;stroke:black;stroke-width:3.11px;"/>
                <path d="M214.07,1229.69L214.07,1221.88" style="fill:none;stroke:black;stroke-width:3.11px;"/>
                <path d="M214.12,1229.68L207.072,1226.31" style="fill:none;stroke:black;stroke-width:3.11px;"/>
                <path d="M214.12,1229.68L209.286,1235.82" style="fill:none;stroke:black;stroke-width:3.11px;"/>
                <path d="M214.12,1229.69L218.995,1235.79" style="fill:none;stroke:black;stroke-width:3.11px;"/>
                <path d="M214.12,1229.69L221.224,1226.44" style="fill:none;stroke:black;stroke-width:3.11px;"/>
                <path d="M390.62,1259.38L390.62,1265.63L393.745,1262.5L393.745,1259.38L390.62,1259.38Z"/>
                <path d="M403.12,1259.38L403.12,1265.63L406.245,1262.5L406.245,1259.38L403.12,1259.38Z"/>
                <path d="M409.38,1259.38L409.38,1265.63L412.505,1262.5L412.505,1259.38L409.38,1259.38Z"/>
            </g>
            <g transform="matrix(1,0,0,1,0.0714311,0.116394)">
                <path d="M248.46,1226.55L257.835,1232.8L248.46,1239.05" style="fill:none;stroke:black;stroke-width:3.11px;stroke-linecap:round;stroke-linejoin:round;"/>
            </g>
            <g transform="matrix(1,0,0,1,0.0714311,0.116394)">
                <path d="M239.07,1239.05L229.695,1232.8L239.07,1226.55" style="fill:none;stroke:black;stroke-width:3.11px;stroke-linecap:round;stroke-linejoin:round;"/>
            </g>
            <g transform="matrix(1,0,0,1,0.0714311,0.116394)">
                <path d="M281.26,1239.05L271.891,1239.04C269.303,1239.04 267.204,1236.94 267.204,1234.36L267.199,1224.99C267.199,1222.41 269.298,1220.31 271.886,1220.31L275.011,1220.31C277.599,1220.31 279.699,1222.41 279.699,1224.99L279.699,1228.12C279.699,1231.24 278.136,1232.81 275.049,1232.81L273.448,1232.8L273.449,1224.99" style="fill:none;stroke:black;stroke-width:3.11px;stroke-linejoin:round;"/>
            </g>
            <g transform="matrix(1,0,0,1,0.0714311,0.116394)">
                <path d="M289.08,1234.37L289.086,1218.75" style="fill:none;stroke:black;stroke-width:3.11px;"/>
            </g>
            <g transform="matrix(1,0,0,1,0.0714311,0.116394)">
                <path d="M289.07,1240.62L289.076,1237.5" style="fill:none;stroke:black;stroke-width:3.11px;"/>
            </g>
            <g transform="matrix(1,0,0,1,0.0714311,0.116394)">
                <path d="M298.45,1224.99C298.45,1222.4 300.549,1220.3 303.137,1220.3L306.262,1220.3C308.85,1220.3 310.957,1222.41 310.957,1225C310.963,1227.59 308.857,1229.68 306.269,1229.68C303.675,1229.68 301.575,1231.78 301.575,1234.37" style="fill:none;stroke:black;stroke-width:3.11px;"/>
            </g>
            <g transform="matrix(1,0,0,1,0.0714311,0.116394)">
                <path d="M301.58,1240.62L301.58,1237.5" style="fill:none;stroke:black;stroke-width:3.11px;"/>
            </g>
            <g transform="matrix(1,0,0,1,0.0714311,0.116394)">
                <path d="M345.33,1239.05L354.695,1220.3" style="fill:none;stroke:black;stroke-width:3.11px;stroke-linecap:round;"/>
            </g>
            <g transform="matrix(1,0,0,1,0.0714311,0.116394)">
                <path d="M326.57,1239.07L332.828,1220.32" style="fill:none;stroke:black;stroke-width:3.11px;stroke-linecap:round;"/>
            </g>
            <g transform="matrix(1,0,0,1,0.0714311,0.116394)">
                <path d="M318.76,1232.81L334.385,1232.81" style="fill:none;stroke:black;stroke-width:3.11px;"/>
            </g>
            <g transform="matrix(1,0,0,1,0.0714311,0.116394)">
                <path d="M318.76,1226.55L334.385,1226.55" style="fill:none;stroke:black;stroke-width:3.11px;"/>
            </g>
            <g transform="matrix(1,0,0,1,0.0714311,0.116394)">
                <path d="M367.19,1226.57L370.315,1223.44L373.44,1226.57" style="fill:none;stroke:black;stroke-width:3.11px;stroke-linecap:round;stroke-linejoin:round;"/>
            </g>
            <g transform="matrix(1,0,0,1,0.0714311,0.116394)">
                <path d="M320.32,1239.05L326.578,1220.3" style="fill:none;stroke:black;stroke-width:3.11px;stroke-linecap:round;"/>
            </g>
            <g transform="matrix(1,0,0,1,0.0714311,0.116394)">
                <path d="M146.88,1235.94L159.38,1235.94" style="fill:none;stroke:black;stroke-width:3.11px;"/>
            </g>
            <g transform="matrix(1,0,0,1,0.0714311,0.116394)">
                <path d="M146.88,1229.68L159.38,1229.68" style="fill:none;stroke:black;stroke-width:3.11px;"/>
            </g>
            <g transform="matrix(1,0,0,1,53.0328,1201.12)">
                <path d="M362.638,128.682L378.304,128.682" style="fill:none;stroke:black;stroke-width:3.1px;"/>
            </g>
            <g transform="matrix(1,0,0,1,53.0328,1201.12)">
                <path d="M370.471,149L370.471,128.682" style="fill:none;stroke:black;stroke-width:3.1px;"/>
            </g>
            <g transform="matrix(1,0,0,1,53.0714,1201.12)">
                <path d="M165.75,128.687L175.125,128.687" style="fill:none;stroke:black;stroke-width:3.1px;"/>
            </g>
            <g transform="matrix(1,0,0,1,53.0714,1201.12)">
                <path d="M165.75,147.437L175.125,147.437" style="fill:none;stroke:black;stroke-width:3.1px;"/>
            </g>
            <g transform="matrix(1,0,0,1,53.0714,1201.12)">
                <path d="M170.438,147.437L170.438,128.687" style="fill:none;stroke:black;stroke-width:3.1px;"/>
            </g>
            <g transform="matrix(1,0,0,1,53.0714,1201.12)">
                <path d="M161.001,127.12L161.001,148.995" style="fill:none;stroke:black;stroke-width:3.1px;"/>
            </g>
            <g transform="matrix(1,0,0,1,53.0714,1201.12)">
                <path d="M148.522,127.125L148.522,148.995" style="fill:none;stroke:black;stroke-width:3.1px;"/>
            </g>
            <g transform="matrix(1,0,0,1,53.0714,1201.12)">
                <path d="M148.522,138.062L161.001,138.062" style="fill:none;stroke:black;stroke-width:3.1px;"/>
            </g>
            <g transform="matrix(1,0,0,1,53.0714,1201.12)">
                <path d="M125.12,128.687L114.212,128.687L114.212,149" style="fill:none;stroke:black;stroke-width:3.1px;"/>
            </g>
            <g transform="matrix(1,0,0,1,53.0714,1201.12)">
                <path d="M122.006,138.057L114.212,138.057" style="fill:none;stroke:black;stroke-width:3.1px;"/>
            </g>
            <g transform="matrix(1,0,0,1,53.0714,1201.12)">
                <path d="M109.534,128.687L98.621,128.687L98.621,147.437L109.55,147.437" style="fill:none;stroke:black;stroke-width:3.1px;"/>
            </g>
            <g transform="matrix(1,0,0,1,53.0714,1201.12)">
                <path d="M106.352,138.063L98.621,138.063" style="fill:none;stroke:black;stroke-width:3.1px;"/>
            </g>
            <g transform="matrix(1,0,0,1,53.0714,1201.12)">
                <path d="M34.506,72.44L25.131,72.44" style="fill:none;stroke:black;stroke-width:3.1px;"/>
            </g>
            <g transform="matrix(1,0,0,1,53.0714,1201.12)">
                <path d="M29.819,72.44L29.819,52.125" style="fill:none;stroke:black;stroke-width:3.1px;"/>
            </g>
            <g transform="matrix(1,0,0,1,53.0714,1201.12)">
                <path d="M25.131,56.844L29.819,56.844" style="fill:none;stroke:black;stroke-width:3.1px;"/>
            </g>
        </g>
    </g>
</svg>
