<?xml version="1.0" encoding="UTF-8" standalone="no"?><!DOCTYPE svg PUBLIC "-//W3C//DTD SVG 1.1//EN" "http://www.w3.org/Graphics/SVG/1.1/DTD/svg11.dtd"><svg width="100%" height="100%" viewBox="0 0 24 24" version="1.1" xmlns="http://www.w3.org/2000/svg" xmlns:xlink="http://www.w3.org/1999/xlink" xml:space="preserve" xmlns:serif="http://www.serif.com/" style="fill-rule:evenodd;clip-rule:evenodd;stroke-linejoin:round;stroke-miterlimit:2;"><path d="M21.2,21l-18.4,0c-0.993,0 -1.8,-0.807 -1.8,-1.8l0,-14.4c0,-0.993 0.807,-1.8 1.8,-1.8l18.4,0c0.993,0 1.8,0.807 1.8,1.8l0,14.4c0,0.993 -0.806,1.8 -1.8,1.8Zm-0.171,-16.988l-2.555,0l0,15.976l2.555,0c0.529,0 0.959,-0.43 0.959,-0.959l0,-14.058c0,-0.529 -0.43,-0.959 -0.959,-0.959Zm-15.503,0l-2.555,0c-0.53,0 -0.959,0.43 -0.959,0.959l0,14.058c0,0.529 0.43,0.959 0.959,0.959l2.555,0l0,-15.976Zm-1.776,12.456c0.491,0 0.889,0.398 0.889,0.889c0,0.491 -0.398,0.889 -0.889,0.889c-0.491,0 -0.889,-0.398 -0.889,-0.889c0,-0.491 0.398,-0.889 0.889,-0.889Zm10.25,-4.468l0,-2l-4,0l0,2l-3.5,0l5.5,5.5l5.5,-5.5l-3.5,0Zm6.224,-0.889c0.491,0 0.889,0.398 0.889,0.889c0,0.491 -0.398,0.889 -0.889,0.889c-0.491,0 -0.889,-0.398 -0.889,-0.889c0,-0.491 0.398,-0.889 0.889,-0.889Zm-16.474,-5.357c0.491,0 0.889,0.398 0.889,0.889c0,0.491 -0.398,0.889 -0.889,0.889c-0.491,0 -0.889,-0.398 -0.889,-0.889c0,-0.491 0.398,-0.889 0.889,-0.889Z" style="fill:#fff;"/></svg>