<?xml version="1.0" encoding="UTF-8" standalone="no"?>
<!DOCTYPE svg PUBLIC "-//W3C//DTD SVG 1.1//EN" "http://www.w3.org/Graphics/SVG/1.1/DTD/svg11.dtd">
<svg width="100%" height="100%" viewBox="0 0 24 24" version="1.1" xmlns="http://www.w3.org/2000/svg" xmlns:xlink="http://www.w3.org/1999/xlink" xml:space="preserve" xmlns:serif="http://www.serif.com/" style="fill-rule:evenodd;clip-rule:evenodd;stroke-linecap:round;stroke-linejoin:round;stroke-miterlimit:1.5;">
    <g transform="matrix(1.75173,-5.97504e-32,-5.97504e-32,-1.75173,-31.0976,122.065)">
        <clipPath id="_clip1">
            <path d="M30.86,65.961C30.86,67.687 29.458,69.089 27.731,69.089L21.475,69.089C19.748,69.089 18.346,67.687 18.346,65.961L18.346,59.704C18.346,57.977 19.748,56.576 21.475,56.576L27.731,56.576C29.458,56.576 30.86,57.977 30.86,59.704L30.86,65.961Z"/>
        </clipPath>
        <g clip-path="url(#_clip1)">
            <path d="M6.276,35.975C6.23,35.972 6.18,35.98 6.123,35.995C5.944,36.124 5.918,36.283 6.086,36.482C5.918,36.515 5.915,36.658 6.082,36.794C6.03,36.661 6.007,36.597 6.136,36.638C6.341,36.993 6.555,37.28 6.783,37.481C6.732,37.566 6.78,37.636 6.837,37.704C6.915,37.832 6.988,37.889 7.055,37.894C7.007,37.941 7.052,38.046 7.083,38.12C7.275,38.473 7.489,38.743 7.778,39.048C7.895,39.171 7.995,39.285 7.938,39.352C7.809,39.424 7.508,39.315 7.217,39.216C7.416,39.376 7.652,39.504 7.969,39.554L8.119,39.635C8.219,39.721 8.291,39.82 8.332,39.936C8.29,39.97 8.216,39.923 8.138,39.871C8.234,40.023 8.337,40.068 8.442,40.08C8.529,40.166 8.596,40.266 8.636,40.385C8.538,40.42 8.456,40.359 8.376,40.303C8.441,40.41 8.562,40.499 8.731,40.568C8.857,40.713 8.962,40.873 9.047,41.046C8.993,41.085 8.88,41.038 8.764,40.986C8.874,41.109 9.002,41.184 9.143,41.217C9.245,41.34 9.319,41.483 9.373,41.639C9.289,41.73 9.156,41.659 9.026,41.597C9.132,41.717 9.283,41.815 9.478,41.887C9.619,42.073 9.723,42.282 9.814,42.501C9.729,42.543 9.592,42.512 9.456,42.479C9.575,42.591 9.718,42.638 9.891,42.693C10.018,42.861 10.106,43.049 10.178,43.243C10.057,43.259 9.923,43.224 9.79,43.19C9.92,43.298 10.062,43.377 10.254,43.422C10.384,43.58 10.474,43.762 10.542,43.962C10.494,44.027 10.356,43.996 10.22,43.963C10.329,44.047 10.46,44.117 10.642,44.161C10.782,44.319 10.854,44.495 10.912,44.676C10.834,44.776 10.717,44.717 10.607,44.691C10.699,44.774 10.82,44.845 10.971,44.898C11.074,45.033 11.155,45.181 11.211,45.348C11.135,45.396 11.085,45.344 11.005,45.318C11.064,45.42 11.159,45.497 11.287,45.554C11.493,45.997 11.687,46.448 11.871,46.906C11.931,47.009 11.991,47.094 12.051,47.166C12.105,47.394 12.21,47.614 12.339,47.832C12.433,47.832 12.493,47.878 12.529,47.957C12.48,47.951 12.439,47.957 12.406,47.972C12.489,48.249 12.677,48.4 12.884,48.53C13.182,48.741 13.477,48.721 13.818,48.999C15.483,50.213 16.819,51.764 18.37,53.116C18.669,53.376 18.979,53.575 19.3,53.72C19.48,53.878 19.532,54.065 19.543,54.26L19.493,54.277L19.414,54.204C19.263,54.015 19.097,53.849 18.902,53.728C18.795,53.705 18.696,53.703 18.619,53.749C18.342,53.515 18.067,53.28 17.768,53.058C17.734,53.033 17.692,53.033 17.634,53.089C17.39,52.884 17.118,52.696 16.837,52.515C16.791,52.472 16.741,52.474 16.686,52.511C16.468,52.338 16.308,52.178 16.018,51.933C15.979,51.897 15.949,51.922 15.918,51.953C15.712,51.777 15.543,51.55 15.267,51.419C15.224,51.422 15.205,51.445 15.19,51.472C15.001,51.33 14.834,51.152 14.614,51.067C14.551,51.044 14.506,51.058 14.478,51.103C14.303,50.986 14.106,50.815 13.971,50.794C13.911,50.822 13.89,50.869 13.918,50.937L13.601,50.755C13.515,50.711 13.453,50.766 13.435,50.809C13.45,50.741 13.425,50.678 13.357,50.616C13.255,50.629 13.197,50.667 13.176,50.726C13.175,50.643 13.097,50.627 13.025,50.608C13.068,50.669 13.109,50.731 13.092,50.807C12.947,50.823 12.816,50.861 12.73,50.967C12.549,50.946 12.376,50.943 12.234,51.001C12.203,51.028 12.178,51.059 12.174,51.106C12.184,51.327 12.258,51.525 12.389,51.702C12.344,51.784 12.255,51.752 12.161,51.76C12.272,51.852 12.39,51.948 12.521,51.899C12.632,52.124 12.851,52.289 13.088,52.443C12.981,53.553 14.682,55.301 16.092,56.947L16.181,57.059L16.039,56.948C13.583,56.735 11.25,56.706 8.933,56.702C8.794,56.694 8.688,56.506 8.504,56.471C8.35,56.472 8.195,56.471 8.036,56.365C7.89,56.341 7.85,56.414 7.816,56.491C7.787,56.517 7.762,56.547 7.703,56.528C7.65,56.534 7.605,56.527 7.599,56.452C7.522,56.516 7.424,56.546 7.311,56.553C6.846,56.075 6.293,55.629 5.721,55.19C4.887,54.666 4.074,54.035 3.275,53.339C3.109,53.188 2.933,53.044 2.695,52.942C2.483,52.955 2.34,52.64 2.133,52.709C2.203,52.744 2.263,52.784 2.273,52.859C1.979,52.773 1.712,52.728 1.512,52.783C1.482,52.831 1.455,52.886 1.364,52.844C1.284,52.778 1.192,52.764 1.086,52.788C1.03,52.784 0.989,52.807 0.971,52.864C0.942,52.894 0.944,52.929 0.979,52.966C0.813,52.999 0.647,53.037 0.448,52.98C0.444,52.931 0.429,52.884 0.35,52.846C0.295,52.771 0.312,52.728 0.388,52.63C0.288,52.647 0.212,52.701 0.182,52.822C-0.144,53.074 0.019,53.201 0.27,53.304C0.356,53.403 0.491,53.432 0.608,53.411C0.518,53.389 0.429,53.358 0.459,53.269C0.589,53.209 0.743,53.184 0.903,53.169C0.963,53.216 1.026,53.197 1.094,53.126L1.121,53.198C1.23,53.232 1.319,53.201 1.392,53.124C1.742,53.259 2.14,53.365 2.537,53.468C2.674,53.631 2.601,53.675 2.496,53.701C2.548,53.74 2.604,53.74 2.662,53.712C2.65,53.807 2.586,53.854 2.501,53.88C2.631,53.862 2.742,53.815 2.832,53.736C2.954,53.733 3.043,53.802 3.126,53.88C3.08,53.933 3.01,53.949 2.934,53.957C3.042,53.994 3.127,53.984 3.189,53.916C3.287,53.929 3.367,53.983 3.44,54.052C3.39,54.112 3.32,54.146 3.239,54.163C3.356,54.18 3.455,54.173 3.537,54.138C3.647,54.171 3.74,54.24 3.824,54.329C3.772,54.38 3.702,54.405 3.627,54.421C3.725,54.454 3.817,54.466 3.894,54.41C4.02,54.482 4.128,54.572 4.225,54.676C4.205,54.764 4.132,54.771 4.055,54.775C4.135,54.832 4.228,54.842 4.345,54.786C4.484,54.854 4.612,54.937 4.73,55.03C4.701,55.11 4.636,55.133 4.569,55.154C4.672,55.193 4.781,55.207 4.904,55.142C4.994,55.181 5.079,55.23 5.142,55.327C5.091,55.392 5.012,55.396 4.932,55.399C5.024,55.452 5.127,55.471 5.248,55.414C5.331,55.41 5.402,55.467 5.467,55.55C5.42,55.627 5.346,55.624 5.272,55.621C5.371,55.672 5.476,55.693 5.593,55.656C5.709,55.68 5.77,55.745 5.85,55.835C5.808,55.883 5.742,55.895 5.665,55.89C5.755,55.969 5.865,55.967 5.953,55.932C6.226,56.154 6.45,56.408 6.652,56.677C6.714,56.76 6.785,56.805 6.865,56.801C6.906,56.896 6.98,56.973 7.074,57.034C7.147,57.081 7.221,57.095 7.295,57.09C7.287,57.167 7.315,57.197 7.366,57.196L7.558,57.175C7.61,57.179 7.623,57.212 7.615,57.258L7.541,57.33C8.081,57.636 8.554,57.429 9.043,57.343C10.941,57.367 12.184,57.62 13.273,57.828L13.563,57.882L13.435,58.002L13.344,57.925C13.248,57.936 13.178,57.983 13.139,58.081C13.077,58.02 13.002,57.993 12.882,58.101C12.845,58.138 12.845,58.183 12.9,58.223C12.721,58.303 12.518,58.363 12.319,58.378C12.145,58.341 12.172,58.239 12.253,58.118C12.131,58.166 12.095,58.272 12.137,58.434C11.997,58.539 12.017,58.634 12.069,58.729C12.158,58.831 12.274,58.857 12.429,58.777C12.596,58.893 12.689,58.847 12.749,58.729C12.632,58.792 12.537,58.819 12.555,58.674C12.705,58.533 12.889,58.446 13.076,58.362L13.638,58.228C13.699,58.2 13.804,58.227 13.845,58.266C14.175,58.705 14.446,59.184 14.692,59.68C14.73,59.776 14.8,59.792 14.883,59.772C14.943,59.902 15.03,59.954 15.139,59.948C15.226,60.085 15.355,60.099 15.5,60.073C16.404,60.126 17.243,60.07 18.029,59.93L18.722,59.782L18.749,59.83C18.813,59.919 18.893,60.003 18.995,60.082C19.195,60.352 19.426,60.571 19.653,60.792L19.818,60.826L19.878,60.957C20.045,61.119 20.306,61.237 20.607,61.334C20.723,61.482 20.853,61.593 21,61.664L21.13,61.712L20.894,62.366C20.806,62.584 20.712,62.797 20.621,63.012C20.55,63.076 20.535,63.142 20.574,63.21C20.564,63.436 20.668,63.516 20.845,63.506C21.016,63.596 21.128,63.508 21.23,63.395C21.381,63.215 21.552,63.066 21.753,62.96C21.677,63.086 21.67,63.172 21.751,63.206C21.697,63.405 21.632,63.57 21.531,63.605L21.441,63.613C21.357,63.66 21.316,63.61 21.332,63.433C21.21,63.641 21.262,63.74 21.398,63.79C21.441,63.987 21.514,64.023 21.599,64C21.72,64.05 21.808,63.993 21.878,63.873C22.008,63.839 22.064,63.742 22.082,63.61C22.042,63.693 21.989,63.748 21.896,63.705C21.866,63.573 21.873,63.428 21.895,63.277C21.921,63.2 21.978,63.202 22.048,63.24C22.122,63.285 22.134,63.173 22.114,62.982C22.12,62.889 22.161,62.815 22.236,62.756C22.244,62.718 22.246,62.685 22.241,62.656L22.237,62.642L22.392,62.718C22.262,62.976 22.315,63.177 22.533,63.327C22.801,63.52 23.028,63.455 23.24,63.301C23.305,63.322 23.369,63.34 23.433,63.35L23.545,63.36L23.543,63.364C23.562,63.455 23.595,63.542 23.667,63.618L23.684,63.925C23.664,64.013 23.666,64.082 23.724,64.098C23.673,64.234 23.677,64.332 23.738,64.394C23.643,64.607 23.576,64.799 23.693,64.85C23.612,65.039 23.554,65.212 23.653,65.289C23.595,65.46 23.549,65.62 23.645,65.698C23.587,65.948 23.544,66.182 23.663,66.259C23.594,66.432 23.537,66.604 23.656,66.782C23.57,66.967 23.509,67.144 23.618,67.272C23.495,67.51 23.504,67.665 23.6,67.766C23.486,67.889 23.46,68.04 23.512,68.214C23.466,68.344 23.447,68.468 23.486,68.574C23.411,68.679 23.376,68.775 23.456,68.848C23.328,68.975 23.324,69.077 23.394,69.165C23.318,69.252 23.3,69.333 23.347,69.408C23.243,69.473 23.235,69.567 23.268,69.671C23.179,69.743 23.158,69.825 23.21,69.913C23.172,69.963 23.108,70.005 23.143,70.087C23.07,70.174 23.05,70.272 23.081,70.38C23.001,70.458 22.969,70.547 22.987,70.649C23.038,70.742 23.079,70.714 23.118,70.664C23.155,70.589 23.181,70.506 23.2,70.422C23.245,70.343 23.256,70.249 23.283,70.142C23.315,70.106 23.348,70.033 23.348,69.95C23.388,69.879 23.419,69.807 23.399,69.724C23.461,69.652 23.479,69.56 23.457,69.453C23.516,69.372 23.539,69.283 23.524,69.183C23.572,69.102 23.598,69.005 23.588,68.88C23.624,68.813 23.642,68.737 23.616,68.64C23.698,68.522 23.704,68.389 23.679,68.251C23.752,68.147 23.774,67.993 23.755,67.8C23.829,67.682 23.871,67.538 23.812,67.311C23.89,67.214 23.887,67.036 23.843,66.819C23.965,66.664 23.951,66.479 23.861,66.276C23.976,66.215 23.937,65.956 23.897,65.696C24.046,65.619 23.917,65.256 23.937,64.863C24.057,64.865 23.966,64.624 23.974,64.4C24.075,64.368 23.995,64.223 23.957,64.041C24.079,64.051 24.012,63.93 23.918,63.756C23.958,63.771 23.904,63.684 23.869,63.515L23.846,63.347L24.023,63.332L24.179,63.165L24.243,63.085L24.33,63.128C24.391,63.331 24.492,63.506 24.63,63.656C24.676,63.746 24.727,63.804 24.787,63.804C24.873,63.945 24.975,64.036 25.091,64.076C25.281,64.299 25.458,64.408 25.631,64.471C25.791,64.626 25.949,64.774 25.997,64.721C26.163,64.924 26.337,64.967 26.456,64.953C26.587,65.129 26.707,65.174 26.824,65.18C27.008,65.372 27.131,65.418 27.214,65.38C27.36,65.558 27.469,65.56 27.576,65.568C27.694,65.706 27.808,65.761 27.917,65.721C27.997,65.818 28.076,65.872 28.157,65.836C28.237,65.948 28.319,65.971 28.403,65.963C28.475,66.045 28.549,66.102 28.614,66.063C28.722,66.196 28.799,66.199 28.872,66.189C28.922,66.248 28.973,66.276 29.025,66.268C29.082,66.338 29.135,66.344 29.187,66.34C29.224,66.392 29.268,66.417 29.321,66.394C29.415,66.466 29.505,66.497 29.59,66.436C29.651,66.398 29.647,66.359 29.616,66.319C29.535,66.271 29.446,66.253 29.352,66.253C29.31,66.222 29.263,66.204 29.204,66.206C29.161,66.165 29.116,66.125 29.044,66.104C28.993,66.066 28.935,66.036 28.861,66.021C28.827,65.963 28.762,65.93 28.672,65.918C28.62,65.859 28.544,65.828 28.445,65.817C28.395,65.741 28.327,65.693 28.224,65.709C28.182,65.62 28.095,65.573 27.964,65.568C27.894,65.475 27.794,65.416 27.654,65.402C27.558,65.311 27.454,65.23 27.289,65.211C27.212,65.09 27.094,65.029 26.939,65.019C26.832,64.922 26.722,64.83 26.577,64.82C26.487,64.682 26.344,64.59 26.146,64.541C26.061,64.429 25.944,64.356 25.801,64.315C25.756,64.21 25.689,64.11 25.464,64.056C25.438,63.979 25.358,63.938 25.244,63.921C25.197,63.822 25.119,63.752 25.018,63.707C24.965,63.685 24.889,63.602 24.799,63.49C24.775,63.409 24.722,63.347 24.642,63.302C24.609,63.187 24.547,63.095 24.468,63.011C24.487,62.97 24.505,62.93 24.412,62.846L24.405,62.846L24.495,62.675C24.573,62.504 24.631,62.328 24.697,62.154C24.854,61.932 24.87,61.719 24.814,61.511C24.881,61.413 24.928,61.294 24.897,61.099L24.982,60.987C24.946,60.868 24.846,60.789 24.739,60.716C24.668,60.631 24.584,60.574 24.467,60.585C24.377,60.541 24.285,60.511 24.187,60.552C24.182,60.497 24.104,60.476 23.921,60.505L23.854,60.517L23.86,60.509C23.914,60.416 23.939,60.295 23.885,60.097L23.767,59.804L23.75,59.715C23.753,59.667 23.769,59.626 23.811,59.591C23.908,59.576 23.985,59.533 24.015,59.431C24.132,59.427 24.209,59.368 24.262,59.269C25.237,59.234 26,58.881 26.96,58.823C26.966,58.887 26.905,58.947 26.789,59.006C26.793,59.102 26.851,59.134 26.964,59.102C27.047,59.126 27.105,59.09 27.163,59.052C27.24,59.122 27.305,59.091 27.366,59.038C27.453,59.178 27.53,59.132 27.606,59.044C27.706,59.173 27.812,59.165 27.924,59.083C28.129,59.098 28.297,59.172 28.449,59.264C28.585,59.43 28.517,59.508 28.357,59.548C28.542,59.593 28.673,59.545 28.721,59.352C28.88,59.408 29.005,59.38 29.058,59.183C29.073,59.066 29.019,58.968 28.85,58.903C28.867,58.742 28.8,58.648 28.65,58.621C28.747,58.818 28.718,58.953 28.484,58.992C28.306,58.977 28.144,58.929 27.999,58.846C27.943,58.721 27.863,58.659 27.712,58.764L27.645,58.673C27.715,58.4 27.658,58.173 27.263,58.068C27.228,58.039 27.193,58.022 27.157,58.018C27.101,58.013 27.04,58.048 26.981,58.128C26.004,58.186 25.26,58.592 24.335,58.73C24.229,58.746 24.16,58.791 24.126,58.861C23.976,58.798 23.821,58.747 23.626,58.79C23.498,58.691 23.355,58.668 23.197,58.705L23.153,58.721L23.017,58.534L22.75,58.256L22.784,58.243C22.822,57.991 22.84,57.732 22.797,57.452C22.768,57.35 22.74,57.248 22.66,57.135L22.654,57.129L22.726,57.017C22.754,56.954 22.77,56.889 22.765,56.818C22.849,56.702 22.897,56.551 22.9,56.351C22.985,55.536 22.972,54.7 22.936,53.86C22.926,53.298 23.151,53.01 22.882,52.636C23.089,52.262 23.385,51.894 23.718,51.649C23.759,51.662 23.804,51.632 23.834,51.621C23.797,51.624 23.769,51.616 23.761,51.574C23.844,51.492 23.94,51.422 24.047,51.362C24.097,51.402 24.162,51.401 24.239,51.372C24.185,51.376 24.136,51.364 24.108,51.299C24.15,51.242 24.205,51.207 24.263,51.179C24.345,51.191 24.411,51.175 24.473,51.15C24.419,51.154 24.362,51.152 24.349,51.112C24.38,51.055 24.431,51.016 24.483,50.99C24.551,51.033 24.622,51.015 24.692,50.983C24.637,50.982 24.589,50.969 24.568,50.918C24.593,50.873 24.627,50.843 24.673,50.83C24.754,50.841 24.836,50.839 24.918,50.821C24.857,50.818 24.797,50.814 24.748,50.773C24.771,50.749 24.798,50.729 24.831,50.717C24.895,50.743 24.969,50.735 25.05,50.708C24.989,50.698 24.933,50.679 24.905,50.626C24.926,50.606 24.949,50.589 24.976,50.579C25.065,50.591 25.136,50.555 25.2,50.506C25.14,50.523 25.086,50.525 25.049,50.476C25.17,50.43 25.279,50.368 25.372,50.282C25.311,50.31 25.251,50.326 25.193,50.291C25.173,50.229 25.195,50.178 25.249,50.133C25.337,49.92 25.532,49.823 25.511,49.69C25.636,49.652 25.699,49.519 25.737,49.352C25.916,49.265 25.969,49.131 25.974,48.978C26.158,48.885 26.329,48.772 26.47,48.616C26.593,48.631 26.598,48.72 26.604,48.806C26.692,48.725 26.709,48.63 26.577,48.509C26.758,48.38 26.822,48.236 26.682,48.063C26.627,48.006 26.57,47.978 26.514,47.974C26.419,47.968 26.326,48.027 26.231,48.127C26.095,48.002 25.986,48.021 25.897,48.137C26.079,48.108 26.149,48.195 26.138,48.369C26.006,48.52 25.882,48.675 25.763,48.833C25.574,48.81 25.458,48.917 25.4,49.127C25.224,49.209 25.165,49.321 25.149,49.445C25.011,49.532 24.963,49.648 24.978,49.784C24.903,49.803 24.852,49.858 24.825,49.948C24.703,49.957 24.644,50.011 24.669,50.123C24.112,50.724 23.531,51.291 22.935,51.835C22.794,51.905 22.677,52.011 22.581,52.15C22.477,52.341 22.266,52.391 22.256,52.547C22.162,52.592 22.11,52.663 22.126,52.779C22.098,52.865 22.109,52.951 22.144,53.035C22.111,53.061 22.094,53.104 22.103,53.169C22.211,54.075 22.311,54.982 22.334,55.911L22.303,55.943L22.125,56.007C22.03,56.044 21.896,56.146 21.837,56.255L21.812,56.347L21.772,56.311L21.655,56.093C21.583,55.783 21.416,55.535 21.229,55.302C21.252,55.093 21.202,54.934 20.986,54.884L20.956,54.883L20.934,54.764C20.845,54.432 20.64,54.063 20.196,53.618C19.098,51.627 17.438,50.966 15.658,49.61C15.104,49.24 14.547,48.864 13.896,48.244C13.841,47.972 13.693,47.707 13.41,47.45C13.293,47.381 13.203,47.354 13.18,47.426C13.029,47.387 12.95,47.302 12.863,47.221C12.797,47.304 12.724,47.284 12.647,47.201C12.663,47.124 12.618,47.056 12.536,46.946L12.331,46.623C11.152,44.128 9.899,41.666 8.601,39.224C8.667,38.943 8.663,38.699 8.561,38.507C8.554,38.585 8.548,38.715 8.499,38.763C8.504,38.713 8.494,38.634 8.434,38.627C8.432,38.747 8.406,38.828 8.354,38.859C8.089,38.656 7.951,38.404 7.835,38.14C7.781,38.165 7.735,38.147 7.699,38.078C7.667,37.928 7.608,37.787 7.403,37.692C7.325,37.737 7.3,37.698 7.284,37.647C7.287,37.487 7.259,37.329 7.036,37.182C6.972,37.178 6.921,37.199 6.909,37.274C6.817,37.232 6.727,37.191 6.714,36.916L6.575,36.734C6.52,36.655 6.499,36.567 6.593,36.45C6.648,36.328 6.741,36.31 6.869,36.4C6.837,36.248 6.7,36.21 6.531,36.212C6.492,36.066 6.411,35.981 6.276,35.975ZM14.15,57.983L14.854,58.074C15.384,58.123 15.939,58.125 16.581,58.048L16.965,58.036L18.293,59.324L17.776,59.437C17.221,59.514 16.612,59.473 15.963,59.344L15.743,59.354C15.472,59.281 15.253,59.287 15.151,59.466C15.11,59.435 15.066,59.432 15.02,59.483C14.86,59.251 14.705,59.011 14.559,58.761L14.15,57.983ZM21.618,62.098L21.631,62.106L21.738,62.258L21.729,62.268C21.665,62.406 21.57,62.497 21.455,62.559C21.444,62.401 21.469,62.256 21.564,62.143L21.618,62.098Z" style="fill:white;"/>
        </g>
    </g>
    <g transform="matrix(0.913333,0,0,0.913333,1.04,1.04)">
        <path d="M24,6C24,2.689 21.311,0 18,0L6,0C2.689,0 0,2.689 0,6L0,18C0,21.311 2.689,24 6,24L18,24C21.311,24 24,21.311 24,18L24,6Z" style="fill:none;stroke:white;stroke-width:2.19px;"/>
    </g>
</svg>
