<?xml version="1.0" encoding="UTF-8" standalone="no"?><!DOCTYPE svg PUBLIC "-//W3C//DTD SVG 1.1//EN" "http://www.w3.org/Graphics/SVG/1.1/DTD/svg11.dtd"><svg width="100%" height="100%" viewBox="0 0 28 28" version="1.1" xmlns="http://www.w3.org/2000/svg" xmlns:xlink="http://www.w3.org/1999/xlink" xml:space="preserve" xmlns:serif="http://www.serif.com/" style="fill-rule:evenodd;clip-rule:evenodd;stroke-linejoin:round;stroke-miterlimit:2;"><path d="M14.029,0.943c-7.048,0 -12.983,5.715 -12.983,12.766l0,13.218l12.981,-0.012c7.048,0 12.765,-5.935 12.765,-12.983c0,-7.049 -5.722,-12.989 -12.763,-12.989Z"/><path d="M14.154,5.884c-2.788,0.002 -5.369,1.47 -6.795,3.866c-1.427,2.395 -1.487,5.364 -0.161,7.816l-1.431,4.605l5.141,-1.161c2.944,1.326 6.399,0.731 8.728,-1.505c2.33,-2.236 3.067,-5.663 1.863,-8.659c-1.204,-2.997 -4.108,-4.96 -7.337,-4.962l-0.008,0Z" style="fill:#fff;fill-rule:nonzero;"/></svg>