<?xml version="1.0" encoding="UTF-8" standalone="no"?><!DOCTYPE svg PUBLIC "-//W3C//DTD SVG 1.1//EN" "http://www.w3.org/Graphics/SVG/1.1/DTD/svg11.dtd"><svg width="100%" height="100%" viewBox="0 0 28 28" version="1.1" xmlns="http://www.w3.org/2000/svg" xmlns:xlink="http://www.w3.org/1999/xlink" xml:space="preserve" xmlns:serif="http://www.serif.com/" style="fill-rule:evenodd;clip-rule:evenodd;stroke-linejoin:round;stroke-miterlimit:2;"><path d="M14.029,0.943c-7.048,0 -12.983,5.715 -12.983,12.766l0,13.218l12.981,-0.012c7.048,0 12.765,-5.935 12.765,-12.983c0,-7.049 -5.722,-12.989 -12.763,-12.989Z"/><path d="M14.154,5.884c-2.788,0.002 -5.369,1.47 -6.795,3.866c-1.427,2.395 -1.487,5.364 -0.161,7.816l-1.431,4.605l5.141,-1.161c2.944,1.326 6.399,0.731 8.728,-1.505c2.33,-2.236 3.067,-5.663 1.863,-8.659c-1.204,-2.997 -4.108,-4.96 -7.337,-4.962l-0.008,0Z" style="fill:#fff;fill-rule:nonzero;"/><path d="M20.341,18.693c-2.247,2.835 -6.132,3.784 -9.433,2.304l-5.141,1.177l5.234,-0.618c3.469,2.032 7.911,1.138 10.325,-2.079c2.413,-3.216 2.028,-7.732 -0.894,-10.494c2.194,2.877 2.156,6.875 -0.091,9.71Z" style="fill:#595959;fill-rule:nonzero;"/><path d="M19.898,17.19c-1.939,3.054 -5.703,4.403 -9.14,3.277l-4.991,1.707l5.141,-1.164c3.662,1.654 7.981,0.3 10.044,-3.148c2.062,-3.448 1.212,-7.894 -1.977,-10.338c2.482,2.631 2.863,6.612 0.923,9.666Z" style="fill:#a6a6a6;fill-rule:nonzero;"/><path d="M7.672,17.741c-1.433,-3.454 -0.253,-7.439 2.831,-9.555c3.083,-2.116 7.226,-1.785 9.934,0.795c-2.508,-3.291 -7.127,-4.094 -10.598,-1.843c-3.472,2.251 -4.622,6.796 -2.641,10.428l-1.431,4.605l1.905,-4.43Z" style="fill:#a6a6a6;fill-rule:nonzero;"/><path d="M7.198,17.566c-1.777,-3.284 -1.017,-7.364 1.825,-9.787c2.841,-2.424 6.99,-2.53 9.952,-0.255c-2.841,-2.992 -7.504,-3.298 -10.712,-0.704c-3.208,2.595 -3.884,7.219 -1.553,10.623l-0.941,4.731l1.429,-4.608Z" style="fill:#595959;fill-rule:nonzero;"/></svg>