<?xml version="1.0" encoding="UTF-8" standalone="no"?>
<!DOCTYPE svg PUBLIC "-//W3C//DTD SVG 1.1//EN" "http://www.w3.org/Graphics/SVG/1.1/DTD/svg11.dtd">
<svg width="100%" height="100%" viewBox="0 0 24 24" version="1.1" xmlns="http://www.w3.org/2000/svg" xmlns:xlink="http://www.w3.org/1999/xlink" xml:space="preserve" xmlns:serif="http://www.serif.com/" style="fill-rule:evenodd;clip-rule:evenodd;stroke-linejoin:round;stroke-miterlimit:2;">
    <path d="M5.591,7C4.494,7 3.591,7.903 3.591,9L3.591,17L5.591,17L5.591,13L7.591,13L7.591,17L9.591,17L9.591,9C9.591,7.903 8.688,7 7.591,7L5.591,7ZM16.391,10.5L16.391,9C16.391,7.903 15.488,7 14.391,7L10.391,7L10.391,17L14.391,17C15.488,17 16.391,16.097 16.391,15L16.391,13.5C16.37,12.685 15.705,12.021 14.891,12C15.705,11.979 16.37,11.315 16.391,10.5ZM19.231,7C18.134,7 17.231,7.903 17.231,9L17.231,15C17.231,16.097 18.134,17 19.231,17L21.231,17C22.329,17 23.231,16.097 23.231,15L23.231,14L21.231,14L21.231,15L19.231,15L19.231,9L21.231,9L21.231,10L23.231,10L23.231,9C23.231,7.903 22.329,7 21.231,7L19.231,7ZM2.769,17L0.769,17L0.769,15L2.769,15L2.769,17ZM14.391,15L12.391,15L12.391,13L14.391,13L14.391,15ZM5.591,9L7.591,9L7.591,11L5.591,11L5.591,9ZM14.391,11L12.391,11L12.391,9L14.391,9L14.391,11Z" style="fill-rule:nonzero;"/>
</svg>
