<?xml version="1.0" encoding="UTF-8" standalone="no"?>
<!DOCTYPE svg PUBLIC "-//W3C//DTD SVG 1.1//EN" "http://www.w3.org/Graphics/SVG/1.1/DTD/svg11.dtd">
<svg width="100%" height="100%" viewBox="0 0 32 32" version="1.1" xmlns="http://www.w3.org/2000/svg" xmlns:xlink="http://www.w3.org/1999/xlink" xml:space="preserve" xmlns:serif="http://www.serif.com/" style="fill-rule:evenodd;clip-rule:evenodd;stroke-linejoin:round;stroke-miterlimit:2;">
    <g transform="matrix(1,0,0,1,9.89772,6.94595)">
        <path d="M16,16.92C15.67,16.97 15.34,17 15,17C14.66,17 14.33,16.97 14,16.92L14,13.41L11.5,15.89C11,15.5 10.5,15 10.11,14.5L12.59,12L9.08,12C9.03,11.67 9,11.34 9,11C9,10.66 9.03,10.33 9.08,10L12.59,10L10.11,7.5C10.3,7.25 10.5,7 10.76,6.76C11,6.5 11.25,6.3 11.5,6.11L14,8.59L14,5.08C14.33,5.03 14.66,5 15,5C15.34,5 15.67,5.03 16,5.08L16,8.59L18.5,6.11C19,6.5 19.5,7 19.89,7.5L17.41,10L20.92,10C20.97,10.33 21,10.66 21,11C21,11.34 20.97,11.67 20.92,12L17.41,12L19.89,14.5C19.7,14.75 19.5,15 19.24,15.24C19,15.5 18.75,15.7 18.5,15.89L16,13.41L16,16.92" style="fill-rule:nonzero;"/>
    </g>
    <g transform="matrix(1.42432,0,0,1.42432,-4.59313,-1.09366)">
        <path d="M15,19.88C15.04,20.18 14.94,20.5 14.71,20.71C14.32,21.1 13.69,21.1 13.3,20.71L9.29,16.7C9.06,16.47 8.96,16.16 9,15.87L9,10.75L4.21,4.62C3.87,4.19 3.95,3.56 4.38,3.22C4.57,3.08 4.78,3 5,3L19,3C19.22,3 19.43,3.08 19.62,3.22C20.05,3.56 20.13,4.19 19.79,4.62L15,10.75L15,19.88M7.04,5L11,10.06L11,15.58L13,17.58L13,10.05L16.96,5L7.04,5Z" style="fill-rule:nonzero;"/>
    </g>
</svg>
