<?xml version="1.0" encoding="UTF-8" standalone="no"?><!DOCTYPE svg PUBLIC "-//W3C//DTD SVG 1.1//EN" "http://www.w3.org/Graphics/SVG/1.1/DTD/svg11.dtd"><svg width="100%" height="100%" viewBox="0 0 28 28" version="1.1" xmlns="http://www.w3.org/2000/svg" xmlns:xlink="http://www.w3.org/1999/xlink" xml:space="preserve" xmlns:serif="http://www.serif.com/" style="fill-rule:evenodd;clip-rule:evenodd;stroke-linejoin:round;stroke-miterlimit:2;"><path d="M20.387,14l0,-11.497c0,-0.701 -0.576,-1.278 -1.277,-1.278l-16.607,0c-0.701,0 -1.278,0.577 -1.278,1.278l0,17.884l5.11,-5.11l12.775,0c0.701,0 1.277,-0.576 1.277,-1.277m5.11,-7.665l-2.555,0l0,11.497l-16.607,0l0,2.555c0,0.701 0.577,1.278 1.278,1.278l14.052,0l5.11,5.11l0,-19.162c0,-0.701 -0.577,-1.278 -1.278,-1.278Z" style="fill-rule:nonzero;"/></svg>