<?xml version="1.0" encoding="UTF-8" standalone="no"?><!DOCTYPE svg PUBLIC "-//W3C//DTD SVG 1.1//EN" "http://www.w3.org/Graphics/SVG/1.1/DTD/svg11.dtd"><svg width="100%" height="100%" viewBox="0 0 28 28" version="1.1" xmlns="http://www.w3.org/2000/svg" xmlns:xlink="http://www.w3.org/1999/xlink" xml:space="preserve" xmlns:serif="http://www.serif.com/" style="fill-rule:evenodd;clip-rule:evenodd;stroke-linejoin:round;stroke-miterlimit:2;"><path d="M13.999,0.755c-7.5,0 -13.581,6.079 -13.581,13.581c0,5.999 3.89,11.09 9.288,12.886c0.678,0.123 0.927,-0.294 0.927,-0.655c0,-0.322 -0.012,-1.177 -0.018,-2.31c-3.777,0.821 -4.574,-1.821 -4.574,-1.821c-0.617,-1.568 -1.509,-1.985 -1.509,-1.985c-1.233,-0.843 0.094,-0.826 0.094,-0.826c1.362,0.095 2.08,1.4 2.08,1.4c1.211,2.075 3.178,1.475 3.952,1.128c0.124,-0.879 0.474,-1.475 0.863,-1.814c-3.016,-0.345 -6.185,-1.509 -6.185,-6.713c0,-1.482 0.529,-2.695 1.398,-3.644c-0.14,-0.344 -0.607,-1.725 0.133,-3.594c0,0 1.141,-0.366 3.734,1.393c1.084,-0.304 2.244,-0.453 3.399,-0.459c1.154,0.006 2.316,0.156 3.401,0.457c2.593,-1.757 3.73,-1.394 3.73,-1.394c0.741,1.87 0.275,3.251 0.135,3.595c0.869,0.949 1.396,2.162 1.396,3.643c0,5.218 -3.174,6.366 -6.199,6.702c0.488,0.419 0.921,1.247 0.921,2.514c0,1.815 -0.017,3.28 -0.017,3.726c0,0.364 0.245,0.785 0.934,0.652c5.393,-1.799 9.279,-6.885 9.279,-12.883c0,-7.498 -6.081,-13.579 -13.581,-13.579Z" style="fill-rule:nonzero;"/></svg>