<?xml version="1.0" encoding="UTF-8" standalone="no"?><!DOCTYPE svg PUBLIC "-//W3C//DTD SVG 1.1//EN" "http://www.w3.org/Graphics/SVG/1.1/DTD/svg11.dtd"><svg width="100%" height="100%" viewBox="0 0 24 24" version="1.1" xmlns="http://www.w3.org/2000/svg" xmlns:xlink="http://www.w3.org/1999/xlink" xml:space="preserve" xmlns:serif="http://www.serif.com/" style="fill-rule:evenodd;clip-rule:evenodd;stroke-linejoin:round;stroke-miterlimit:2;"><path d="M5.12,5l0.81,-1l12,0l0.94,1m-6.87,12.5l-5.5,-5.5l3.5,0l0,-2l4,0l0,2l3.5,0l-5.5,5.5m8.54,-12.27l-1.39,-1.68c-0.27,-0.34 -0.68,-0.55 -1.15,-0.55l-12,0c-0.47,0 -0.88,0.21 -1.16,0.55l-1.38,1.68c-0.29,0.34 -0.46,0.77 -0.46,1.27l0,12.5c0,1.097 0.903,2 2,2l14,0c1.097,0 2,-0.903 2,-2l0,-12.5c0,-0.5 -0.17,-0.93 -0.46,-1.27Z" style="fill:#fff;fill-rule:nonzero;"/></svg>