<?xml version="1.0" encoding="UTF-8" standalone="no"?><!DOCTYPE svg PUBLIC "-//W3C//DTD SVG 1.1//EN" "http://www.w3.org/Graphics/SVG/1.1/DTD/svg11.dtd"><svg width="32" height="32" viewBox="0 0 24 24" version="1.1" xmlns="http://www.w3.org/2000/svg" xmlns:xlink="http://www.w3.org/1999/xlink" xml:space="preserve" xmlns:serif="http://www.serif.com/" style="fill-rule:evenodd;clip-rule:evenodd;stroke-linejoin:round;stroke-miterlimit:2;"><path d="M11,15l2,0l0,2l-2,0l0,-2m0,-8l2,0l0,6l-2,0l0,-6m1,-5c-5.53,0 -10,4.5 -10,10c0,5.486 4.514,10 10,10c5.486,0 10,-4.514 10,-10c0,-5.486 -4.514,-10 -10,-10m0,18c-4.389,0 -8,-3.611 -8,-8c0,-4.389 3.611,-8 8,-8c4.389,0 8,3.611 8,8c0,4.389 -3.611,8 -8,8Z" style="fill-rule:nonzero;"/></svg>