<?xml version="1.0" encoding="UTF-8" standalone="no"?>
<!DOCTYPE svg PUBLIC "-//W3C//DTD SVG 1.1//EN" "http://www.w3.org/Graphics/SVG/1.1/DTD/svg11.dtd">
<svg width="100%" height="100%" viewBox="0 0 24 24" version="1.1" xmlns="http://www.w3.org/2000/svg" xmlns:xlink="http://www.w3.org/1999/xlink" xml:space="preserve" xmlns:serif="http://www.serif.com/" style="fill-rule:evenodd;clip-rule:evenodd;stroke-linejoin:round;stroke-miterlimit:2;">
    <path d="M19,3C20.097,3 21,3.903 21,5L21,19C21,20.097 20.097,21 19,21L5,21C3.903,21 3,20.097 3,19L3,5C3,3.903 3.903,3 5,3L19,3M18.5,18.5L18.5,13.2C18.5,11.412 17.028,9.94 15.24,9.94C14.39,9.94 13.4,10.46 12.92,11.24L12.92,10.13L10.13,10.13L10.13,18.5L12.92,18.5L12.92,13.57C12.92,12.8 13.54,12.17 14.31,12.17C15.078,12.17 15.71,12.802 15.71,13.57L15.71,18.5L18.5,18.5M6.88,8.56C7.802,8.56 8.56,7.802 8.56,6.88C8.56,5.95 7.81,5.19 6.88,5.19C5.953,5.19 5.19,5.953 5.19,6.88C5.19,7.81 5.95,8.56 6.88,8.56M8.27,18.5L8.27,10.13L5.5,10.13L5.5,18.5L8.27,18.5Z" style="fill:rgb(130,130,130);fill-rule:nonzero;"/>
</svg>
