<?xml version="1.0" encoding="UTF-8" standalone="no"?>
<!DOCTYPE svg PUBLIC "-//W3C//DTD SVG 1.1//EN" "http://www.w3.org/Graphics/SVG/1.1/DTD/svg11.dtd">
<svg width="100%" height="100%" viewBox="0 0 32 32" version="1.1" xmlns="http://www.w3.org/2000/svg" xmlns:xlink="http://www.w3.org/1999/xlink" xml:space="preserve" xmlns:serif="http://www.serif.com/" style="fill-rule:evenodd;clip-rule:evenodd;stroke-linejoin:round;stroke-miterlimit:2;">
    <g transform="matrix(1,0,0,1,-0.75,0.75)">
        <path d="M18.667,4L18.667,6.667L23.453,6.667L10.347,19.773L12.227,21.653L25.333,8.547L25.333,13.333L28,13.333L28,4M25.333,23.833L8.167,23.833L8.167,6.667L16,6.667L16,4L8.167,4C6.687,4 5.5,5.2 5.5,6.667L5.5,23.833C5.5,25.296 6.704,26.5 8.167,26.5L25.333,26.5C26.796,26.5 28,25.296 28,23.833L28,16L25.333,16L25.333,23.833Z" style="fill:white;fill-rule:nonzero;"/>
    </g>
</svg>
