<?xml version="1.0" encoding="UTF-8" standalone="no"?><!DOCTYPE svg PUBLIC "-//W3C//DTD SVG 1.1//EN" "http://www.w3.org/Graphics/SVG/1.1/DTD/svg11.dtd"><svg width="100%" height="100%" viewBox="0 0 24 24" version="1.1" xmlns="http://www.w3.org/2000/svg" xmlns:xlink="http://www.w3.org/1999/xlink" xml:space="preserve" xmlns:serif="http://www.serif.com/" style="fill-rule:evenodd;clip-rule:evenodd;stroke-linejoin:round;stroke-miterlimit:2;"><path d="M21,16.5c0,0.38 -0.21,0.71 -0.53,0.88l-7.9,4.44c-0.16,0.12 -0.36,0.18 -0.57,0.18c-0.21,0 -0.41,-0.06 -0.57,-0.18l-7.9,-4.44c-0.32,-0.17 -0.53,-0.5 -0.53,-0.88l0,-9c0,-0.38 0.21,-0.71 0.53,-0.88l7.9,-4.44c0.16,-0.12 0.36,-0.18 0.57,-0.18c0.21,0 0.41,0.06 0.57,0.18l7.9,4.44c0.32,0.17 0.53,0.5 0.53,0.88l0,9m-9,-12.35l-1.89,1.07l5.89,3.39l1.96,-1.11l-5.96,-3.35m-5.96,3.35l5.96,3.35l1.96,-1.1l-5.88,-3.4l-2.04,1.15m-1.04,8.41l6,3.38l0,-6.71l-6,-3.37l0,6.7m14,0l0,-6.7l-6,3.37l0,6.71l6,-3.38Z" style="fill:#fff;fill-rule:nonzero;"/></svg>