<?xml version="1.0" encoding="UTF-8" standalone="no"?>
<!DOCTYPE svg PUBLIC "-//W3C//DTD SVG 1.1//EN" "http://www.w3.org/Graphics/SVG/1.1/DTD/svg11.dtd">
<svg width="100%" height="100%" viewBox="0 0 256 256" version="1.1" xmlns="http://www.w3.org/2000/svg" xmlns:xlink="http://www.w3.org/1999/xlink" xml:space="preserve" xmlns:serif="http://www.serif.com/" style="fill-rule:evenodd;clip-rule:evenodd;stroke-miterlimit:10;">
    <g transform="matrix(3.64444,0,0,3.64444,107.822,61.8065)">
        <g transform="matrix(0.425215,0,0,-0.425215,-376.495,2154.87)">
            <path d="M842.187,5092.27L842.187,4957.72C842.187,4956.05 843.549,4954.69 845.225,4954.69L951.65,4954.69C953.326,4954.69 954.688,4956.05 954.688,4957.72L954.688,5059.37C954.688,5067.19 954.688,5070.31 948.438,5076.56L935.938,5089.06C929.688,5095.31 926.563,5095.31 918.75,5095.31L845.225,5095.31C843.549,5095.31 842.187,5093.95 842.187,5092.27Z" style="fill:none;stroke:rgb(143,149,165);stroke-opacity:0.09;stroke-width:9.3px;"/>
        </g>
        <g transform="matrix(0.425215,0,0,-0.425215,-376.495,2154.87)">
            <path d="M842.187,5092.27L842.187,4957.72C842.187,4956.05 843.549,4954.69 845.225,4954.69L951.65,4954.69C953.326,4954.69 954.688,4956.05 954.688,4957.72L954.688,5062.5C954.688,5070.31 953.125,5071.87 946.875,5078.12L939.063,5085.94C932.813,5092.19 929.688,5095.31 921.875,5095.31L845.225,5095.31C843.549,5095.31 842.187,5093.95 842.187,5092.27Z" style="fill:url(#_Linear1);"/>
        </g>
        <g transform="matrix(0.425215,0,0,-0.425215,-376.495,2154.87)">
            <path d="M875,5095.31L875,5090.62L918.75,5090.62C929.688,5090.62 928.125,5084.37 928.125,5071.87C928.125,5070.31 929.688,5068.75 931.25,5068.75C943.75,5068.75 950,5070.31 950,5059.37L950,5028.12L954.688,5028.12L954.688,5062.5C954.688,5070.31 953.125,5071.87 948.438,5076.56L935.938,5089.06C929.688,5095.31 929.688,5095.31 921.875,5095.31L875,5095.31Z" style="fill:url(#_Linear2);"/>
        </g>
        <g transform="matrix(0.425215,0,0,-0.425215,-376.495,2154.87)">
            <rect x="842.189" y="4954.69" width="112.5" height="32.813" style="fill:rgb(112,112,112);"/>
        </g>
        <g transform="matrix(0.425215,0,0,-0.425215,-376.495,2154.87)">
            <path d="M843.75,4987.5L843.75,5015.74L843.98,5015.95C845.66,5018.28 847.604,5020.17 849.509,5022.07L850.895,5022.37L851.399,5023.5C852.804,5024.89 854.998,5025.92 857.526,5026.75C858.501,5028.03 859.59,5028.98 860.827,5029.6L861.919,5030.01L859.937,5035.65C859.198,5037.53 858.409,5039.37 857.643,5041.22C857.049,5041.77 856.919,5042.34 857.248,5042.93C857.166,5044.88 858.036,5045.57 859.523,5045.48C860.963,5046.26 861.904,5045.49 862.761,5044.52C864.029,5042.97 865.466,5041.69 867.151,5040.77C866.514,5041.86 866.454,5042.6 867.139,5042.89C866.682,5044.61 866.137,5046.03 865.289,5046.33L864.531,5046.4C863.827,5046.81 863.483,5046.38 863.619,5044.85C862.593,5046.64 863.03,5047.5 864.172,5047.93C864.531,5049.63 865.149,5049.94 865.862,5049.74C866.878,5050.17 867.616,5049.68 868.204,5048.65C869.297,5048.35 869.768,5047.51 869.918,5046.38C869.581,5047.09 869.136,5047.57 868.355,5047.2C868.104,5046.06 868.161,5044.81 868.348,5043.51C868.565,5042.84 869.043,5042.86 869.631,5043.19C870.253,5043.57 870.356,5042.61 870.186,5040.96C870.237,5040.16 870.583,5039.52 871.212,5039.01C871.279,5038.68 871.297,5038.4 871.253,5038.15L871.222,5038.03L872.525,5038.68C871.431,5040.91 871.876,5042.64 873.708,5043.94C875.96,5045.6 877.868,5045.04 879.649,5043.71C880.195,5043.89 880.732,5044.05 881.272,5044.13L882.212,5044.22L882.193,5044.26C882.353,5045.04 882.63,5045.79 883.237,5046.45L883.38,5049.09C883.21,5049.85 883.229,5050.45 883.715,5050.58C883.286,5051.76 883.32,5052.6 883.832,5053.14C883.035,5054.98 882.471,5056.63 883.458,5057.07C882.776,5058.7 882.286,5060.19 883.12,5060.86C882.63,5062.33 882.247,5063.71 883.05,5064.38C882.565,5066.54 882.202,5068.56 883.204,5069.22L883.186,5069.28L884.927,5069.28L885.366,5068.68C885.667,5067.73 885.42,5066.05 885.17,5064.37C886.421,5063.7 885.336,5060.57 885.502,5057.18C886.512,5057.2 885.749,5055.12 885.813,5053.19C886.663,5052.91 885.993,5051.66 885.673,5050.09C886.699,5050.18 886.136,5049.14 885.344,5047.63C885.68,5047.77 885.227,5047.02 884.934,5045.56L884.741,5044.11L886.229,5043.98L887.539,5042.54L888.076,5041.85L888.806,5042.22C889.319,5043.97 890.168,5045.48 891.327,5046.78C891.713,5047.55 892.142,5048.05 892.643,5048.05C893.372,5049.27 894.229,5050.05 895.201,5050.4C896.795,5052.32 898.286,5053.26 899.736,5053.8C901.084,5055.14 902.41,5056.41 902.813,5055.96C904.211,5057.7 905.669,5058.08 906.668,5057.96C907.767,5059.48 908.778,5059.86 909.761,5059.92C911.307,5061.57 912.34,5061.97 913.04,5061.64C914.265,5063.18 915.18,5063.19 916.082,5063.26C917.071,5064.45 918.029,5064.93 918.941,5064.58C919.616,5065.42 920.278,5065.88 920.959,5065.58L921.152,5065.8L921.971,5064.55L921.523,5064.48C921.17,5063.71 920.438,5063.31 919.342,5063.26C918.754,5062.46 917.913,5061.95 916.737,5061.83C915.93,5061.05 915.055,5060.35 913.67,5060.18C913.022,5059.14 912.031,5058.61 910.728,5058.53C909.829,5057.69 908.907,5056.9 907.685,5056.81C906.93,5055.62 905.727,5054.83 904.064,5054.4C903.349,5053.44 902.364,5052.81 901.165,5052.45C900.788,5051.55 900.227,5050.69 898.332,5050.22C898.118,5049.56 897.442,5049.2 896.487,5049.06C896.089,5048.2 895.434,5047.6 894.589,5047.22C894.142,5047.02 893.505,5046.31 892.747,5045.34C892.549,5044.64 892.099,5044.11 891.426,5043.72C891.152,5042.73 890.629,5041.93 889.966,5041.21C890.126,5040.86 890.276,5040.51 889.497,5039.79L889.437,5039.79L890.191,5038.31C890.849,5036.84 891.338,5035.32 891.893,5033.82C893.212,5031.91 893.346,5030.07 892.871,5028.28C893.436,5027.43 893.832,5026.4 893.569,5024.72L894.285,5023.76C893.983,5022.73 893.138,5022.05 892.243,5021.42C891.649,5020.69 890.94,5020.2 889.957,5020.29C889.204,5019.91 888.431,5019.65 887.605,5020.01C887.563,5019.53 886.907,5019.35 885.371,5019.6L884.806,5019.7L884.861,5019.64C885.311,5018.83 885.523,5017.79 885.067,5016.09L884.079,5013.56L883.937,5012.79C883.962,5012.38 884.097,5012.02 884.447,5011.72C885.262,5011.59 885.909,5011.22 886.16,5010.34C887.144,5010.31 887.789,5009.8 888.236,5008.94C896.431,5008.64 902.837,5005.6 910.905,5005.1C910.954,5005.65 910.44,5006.16 909.468,5006.67C909.502,5007.5 909.989,5007.78 910.935,5007.5C911.636,5007.71 912.124,5007.4 912.608,5007.07C913.259,5007.68 913.8,5007.41 914.314,5006.95C915.047,5008.16 915.695,5007.76 916.332,5007C917.172,5008.12 918.065,5008.05 919.003,5007.34C920.726,5007.47 922.137,5008.11 923.414,5008.9L923.438,5008.94L923.438,5006.5L921.566,5006.15C920.887,5005.94 920.241,5005.65 919.632,5005.3C919.163,5004.22 918.491,5003.68 917.223,5004.59L916.662,5003.8C917.249,5001.45 916.765,4999.49 913.45,4998.58C913.157,4998.34 912.862,4998.19 912.562,4998.15C912.088,4998.11 911.576,4998.42 911.081,4999.1C902.872,4999.6 896.621,5003.1 888.851,5004.3C887.958,5004.43 887.381,5004.82 887.092,5005.42C885.833,5004.88 884.529,5004.44 882.891,5004.82C881.816,5003.96 880.614,5003.76 879.286,5004.08L878.919,5004.22L877.777,5002.6L875.532,5000.21L875.818,5000.09C876.138,4997.93 876.286,4995.69 875.925,4993.27C875.685,4992.4 875.448,4991.52 874.777,4990.54L874.724,4990.49L875.33,4989.53C875.563,4988.98 875.701,4988.42 875.656,4987.81L875.801,4987.5L843.75,4987.5ZM923.437,5011.04L922.643,5011.35L923.438,5011.45L923.437,5011.04ZM866.021,5033.34L866.131,5033.41L867.027,5034.72L866.952,5034.81C866.416,5036 865.618,5036.78 864.652,5037.32C864.558,5035.95 864.769,5034.7 865.566,5033.73L866.021,5033.34Z" style="fill:rgb(112,112,112);"/>
        </g>
        <g transform="matrix(0.425215,0,0,-0.425215,-376.495,2154.87)">
            <path d="M845.313,5064.06L845.313,4957.81L951.563,4957.81L951.563,5064.06" style="fill:none;stroke:white;stroke-width:3.15px;stroke-linecap:round;stroke-linejoin:round;"/>
        </g>
        <g transform="matrix(0.425215,0,0,-0.425215,-376.495,2154.87)">
            <path d="M842.187,5092.27L842.187,4957.72C842.187,4956.05 843.549,4954.69 845.225,4954.69L951.65,4954.69C953.326,4954.69 954.688,4956.05 954.688,4957.72L954.688,5059.37C954.688,5067.19 954.688,5070.31 948.438,5076.56L935.938,5089.06C929.688,5095.31 926.563,5095.31 918.75,5095.31L845.225,5095.31C843.549,5095.31 842.187,5093.95 842.187,5092.27Z" style="fill:none;stroke:rgb(138,138,138);stroke-width:3.15px;"/>
        </g>
        <g transform="matrix(0.425215,0,0,-0.425215,-376.495,2154.87)">
            <path d="M887.5,5092.19L917.188,5092.19C923.183,5092.19 926.227,5091.36 928.066,5088.53C930.063,5085.45 929.688,5080.95 929.688,5072.63C929.688,5071.13 930.034,5070.31 932.073,5070.31C940.393,5070.31 944.827,5070.69 947.907,5068.69C950.743,5066.85 951.563,5063.81 951.563,5057.81L951.563,5028.12" style="fill:none;stroke:white;stroke-width:3.15px;stroke-linecap:round;stroke-linejoin:round;"/>
        </g>
    </g>
    <g transform="matrix(3.64444,0,0,3.64444,107.822,61.8065)">
        <g id="Group_25" transform="matrix(1,0,0,-1,-405.814,5677.85)">
            <path d="M384.376,5648.44L437.499,5648.44" style="fill:none;stroke:black;stroke-opacity:0.22;stroke-width:3.15px;stroke-linejoin:round;"/>
            <path d="M384.376,5657.81L437.499,5657.81" style="fill:none;stroke:black;stroke-opacity:0.22;stroke-width:3.15px;stroke-linejoin:round;"/>
            <path d="M403.126,5667.19L437.501,5667.19" style="fill:none;stroke:black;stroke-opacity:0.22;stroke-width:3.15px;stroke-linejoin:round;"/>
            <path d="M384.376,5639.06L437.5,5639.06" style="fill:none;stroke:black;stroke-opacity:0.22;stroke-width:3.15px;stroke-linejoin:round;"/>
        </g>
        <g transform="matrix(1,0,0,-1,-405.814,5677.85)">
            <path d="M385.196,5630.98L437.501,5630.98L437.501,5671.47L409.015,5671.47L401.869,5661.94L385.196,5661.94L385.196,5630.98Z" style="fill:url(#_Linear3);"/>
        </g>
        <g transform="matrix(1,0,0,-1,-405.814,5677.85)">
            <rect x="384.378" y="5631.25" width="53.123" height="12.498" style="fill:url(#_Linear4);"/>
        </g>
        <g transform="matrix(1,0,0,-1,-405.814,5677.85)">
            <path d="M382.814,5664.06L400.001,5664.06L409.376,5673.44L439.064,5673.44L439.064,5668.75L410.939,5668.75L401.564,5659.38L382.814,5659.38L382.814,5664.06Z" style="fill:url(#_Linear5);"/>
        </g>
        <g transform="matrix(1,0,0,-1,-405.814,5677.85)">
            <path d="M384.005,5629.78L438.788,5629.78L438.788,5672.66L409.376,5672.66L400.001,5663.13L384.005,5663.13L384.005,5629.78Z" style="fill:none;stroke:rgb(2,86,0);stroke-width:2.38px;stroke-linecap:round;stroke-linejoin:round;"/>
        </g>
    </g>
    <defs>
        <linearGradient id="_Linear1" x1="0" y1="0" x2="1" y2="0" gradientUnits="userSpaceOnUse" gradientTransform="matrix(82.813,-129.688,129.688,82.813,862.5,5085.94)"><stop offset="0" style="stop-color:white;stop-opacity:1"/><stop offset="1" style="stop-color:rgb(106,106,106);stop-opacity:1"/></linearGradient>
        <linearGradient id="_Linear2" x1="0" y1="0" x2="1" y2="0" gradientUnits="userSpaceOnUse" gradientTransform="matrix(82.813,-129.688,129.688,82.813,862.5,5085.94)"><stop offset="0" style="stop-color:white;stop-opacity:1"/><stop offset="1" style="stop-color:rgb(106,106,106);stop-opacity:1"/></linearGradient>
        <linearGradient id="_Linear3" x1="0" y1="0" x2="1" y2="0" gradientUnits="userSpaceOnUse" gradientTransform="matrix(-34.811,34.811,-34.811,-34.811,437.803,5632.51)"><stop offset="0" style="stop-color:rgb(139,214,24);stop-opacity:0.7"/><stop offset="1" style="stop-color:rgb(87,208,22);stop-opacity:0.7"/></linearGradient>
        <linearGradient id="_Linear4" x1="0" y1="0" x2="1" y2="0" gradientUnits="userSpaceOnUse" gradientTransform="matrix(7.65282e-16,-12.498,12.498,7.65282e-16,410.939,5643.75)"><stop offset="0" style="stop-color:white;stop-opacity:0"/><stop offset="1" style="stop-color:white;stop-opacity:0.49"/></linearGradient>
        <linearGradient id="_Linear5" x1="0" y1="0" x2="1" y2="0" gradientUnits="userSpaceOnUse" gradientTransform="matrix(56.25,0,0,56.25,382.814,5666.41)"><stop offset="0" style="stop-color:white;stop-opacity:0"/><stop offset="0.5" style="stop-color:white;stop-opacity:1"/><stop offset="1" style="stop-color:white;stop-opacity:0"/></linearGradient>
    </defs>
</svg>
