<?xml version="1.0" encoding="UTF-8" standalone="no"?>
<!DOCTYPE svg PUBLIC "-//W3C//DTD SVG 1.1//EN" "http://www.w3.org/Graphics/SVG/1.1/DTD/svg11.dtd">
<svg width="100%" height="100%" viewBox="0 0 256 256" version="1.1" xmlns="http://www.w3.org/2000/svg" xmlns:xlink="http://www.w3.org/1999/xlink" xml:space="preserve" xmlns:serif="http://www.serif.com/" style="fill-rule:evenodd;clip-rule:evenodd;stroke-linejoin:round;stroke-miterlimit:10;">
    <g transform="matrix(3.32216,0,0,-3.32216,-1240.55,18941.8)">
        <path d="M389.613,5630.3L389.613,5695.92L409.925,5695.92L413.05,5692.8L433.363,5692.8L433.363,5630.3L389.613,5630.3Z" style="fill:url(#_Linear1);stroke:rgb(87,87,87);stroke-width:3.15px;"/>
    </g>
    <g transform="matrix(3.32216,0,0,-3.32216,-1240.55,18941.8)">
        <path d="M384.925,5649.05L438.048,5649.05" style="fill:none;stroke:black;stroke-opacity:0.22;stroke-width:3.15px;"/>
    </g>
    <g transform="matrix(3.32216,0,0,-3.32216,-1240.55,18941.8)">
        <path d="M384.925,5658.42L438.048,5658.42" style="fill:none;stroke:black;stroke-opacity:0.22;stroke-width:3.15px;"/>
    </g>
    <g transform="matrix(3.32216,0,0,-3.32216,-1240.55,18941.8)">
        <path d="M403.675,5667.8L438.05,5667.8" style="fill:none;stroke:black;stroke-opacity:0.22;stroke-width:3.15px;"/>
    </g>
    <g transform="matrix(3.32216,0,0,-3.32216,-1240.55,18941.8)">
        <path d="M384.925,5639.67L438.049,5639.67" style="fill:none;stroke:black;stroke-opacity:0.22;stroke-width:3.15px;"/>
    </g>
    <g transform="matrix(3.32216,0,0,-3.32216,-1240.55,18941.8)">
        <path d="M383.961,5630.95L440.528,5630.95L440.528,5674.46L410.069,5674.46L401.366,5665.76L383.961,5665.76L383.961,5630.95Z" style="fill:rgb(217,50,17);fill-opacity:0.7;"/>
    </g>
    <g transform="matrix(3.32216,0,0,-3.32216,-1240.55,18941.8)">
        <rect x="384.927" y="5631.86" width="53.123" height="12.498" style="fill:url(#_Linear2);"/>
    </g>
    <g transform="matrix(3.32216,0,0,-3.32216,-1240.55,18941.8)">
        <path d="M383.363,5664.67L400.55,5664.67L409.925,5674.05L439.613,5674.05L439.613,5669.36L411.488,5669.36L402.113,5659.99L383.363,5659.99L383.363,5664.67Z" style="fill:url(#_Linear3);"/>
    </g>
    <g transform="matrix(3.32216,0,0,-3.32216,-1240.55,18941.8)">
        <path d="M383.363,5630.3L439.613,5630.3L439.613,5674.05L409.925,5674.05L400.55,5664.67L383.363,5664.67L383.363,5630.3Z" style="fill:none;stroke:rgb(119,35,19);stroke-width:3.15px;stroke-linecap:round;"/>
    </g>
    <defs>
        <linearGradient id="_Linear1" x1="0" y1="0" x2="1" y2="0" gradientUnits="userSpaceOnUse" gradientTransform="matrix(-4.688,20.313,-20.313,-4.688,410.939,5671.88)"><stop offset="0" style="stop-color:rgb(211,211,211);stop-opacity:1"/><stop offset="1" style="stop-color:white;stop-opacity:1"/></linearGradient>
        <linearGradient id="_Linear2" x1="0" y1="0" x2="1" y2="0" gradientUnits="userSpaceOnUse" gradientTransform="matrix(7.65282e-16,-12.498,-12.498,-7.65282e-16,411.488,5644.36)"><stop offset="0" style="stop-color:white;stop-opacity:0"/><stop offset="1" style="stop-color:white;stop-opacity:0.8"/></linearGradient>
        <linearGradient id="_Linear3" x1="0" y1="0" x2="1" y2="0" gradientUnits="userSpaceOnUse" gradientTransform="matrix(56.25,0,0,-56.25,383.363,5667.02)"><stop offset="0" style="stop-color:white;stop-opacity:0"/><stop offset="0.5" style="stop-color:white;stop-opacity:0.8"/><stop offset="1" style="stop-color:white;stop-opacity:0"/></linearGradient>
    </defs>
</svg>
