<?xml version="1.0" encoding="UTF-8" standalone="no"?><!DOCTYPE svg PUBLIC "-//W3C//DTD SVG 1.1//EN" "http://www.w3.org/Graphics/SVG/1.1/DTD/svg11.dtd"><svg width="100%" height="100%" viewBox="0 0 256 256" version="1.1" xmlns="http://www.w3.org/2000/svg" xmlns:xlink="http://www.w3.org/1999/xlink" xml:space="preserve" xmlns:serif="http://www.serif.com/" style="fill-rule:evenodd;clip-rule:evenodd;stroke-linecap:round;stroke-linejoin:round;stroke-miterlimit:79.8403;"><rect id="Artboard1" x="0" y="0" width="256" height="256" style="fill:none;"/><clipPath id="_clip1"><rect id="Artboard11" serif:id="Artboard1" x="0" y="0" width="256" height="256"/></clipPath><g clip-path="url(#_clip1)"><g><g id="Group_28"><path d="M112.68,35.18c-7.488,7.8 -5.256,20.488 -2.408,28.648c3.38,9.692 8.552,17.76 15.012,25.472c11.12,13.32 30.436,28.8 49.388,30.78c6.868,0.72 12.32,0.508 17.94,-4.8c0.096,-0.092 0.188,-0.18 0.28,-0.272c8.972,-8.908 4.868,-24.268 1.04,-33.148c-4.728,-10.952 -11.384,-19.832 -19.708,-28.172c-8.316,-8.308 -17.192,-14.968 -28.148,-19.708c-8.868,-3.84 -24.236,-7.98 -33.16,0.96c-0.088,0.088 -0.156,0.148 -0.236,0.24Zm54.744,69.868c-14.568,-1.528 -29.384,-14.76 -36.828,-25.68c-4.5,-6.628 -7.94,-12.808 -7.892,-21.448c0.068,-9.6 6.656,-14.012 15.708,-13.052c14.588,1.532 29.388,14.732 36.836,25.68c4.5,6.6 7.952,12.812 7.888,21.42c-0.064,9.632 -6.648,14.012 -15.712,13.08Z" style="fill:#b9b9b9;"/><path d="M167.46,104.988c9.06,0.96 15.64,-3.42 15.716,-13.048c0.056,-8.612 -3.384,-14.792 -7.88,-21.42c-7.452,-10.952 -22.26,-24.152 -36.844,-25.68c-9.06,-0.96 -15.644,3.448 -15.716,13.048c-0.06,8.64 3.384,14.82 7.888,21.42c7.444,10.952 22.252,24.18 36.836,25.68Z" style="fill:url(#_Linear2);"/><path d="M174.712,120.048c-18.952,-1.98 -38.268,-17.46 -49.392,-30.78c-6.46,-7.74 -11.64,-15.78 -15.016,-25.468c-2.852,-8.192 -5.076,-20.852 2.416,-28.68c-18.268,18.268 -36.532,36.54 -54.796,54.808c-4.512,4.532 -8.492,8.52 -9.356,15.42c-0.88,7.02 0.636,12.992 3.02,19.26c4.624,12.212 11.712,21.78 20.752,30.812c9.056,9.088 18.624,16.2 30.836,20.848c6.2,2.372 12.108,3.872 19.02,3.092c7.012,-0.78 11.08,-4.74 15.664,-9.3c18.264,-18.272 36.528,-36.54 54.792,-54.812c-5.632,5.312 -11.08,5.52 -17.94,4.8Z" style="fill:url(#_Linear3);"/><path d="M68.144,150.888l-2.212,-2.368c-5.016,-5.912 -9.228,-12.212 -12.496,-19.44l-0.928,-2.252l59.32,-59.308l1.336,3.268c3.18,6.692 7.308,12.692 12.156,18.48l2.1,2.34l-59.276,59.28Z" style="fill:#fff;"/><path d="M72.344,155.42c-9.044,-9.06 -16.132,-18.6 -20.756,-30.812c-2.384,-6.268 -3.9,-12.24 -3.016,-19.26c0.868,-6.928 4.84,-10.888 9.352,-15.42c18.264,-18.268 54.948,-54.96 55.024,-55.02c8.936,-8.94 24.292,-4.8 33.172,-0.96c10.948,4.74 19.824,11.372 28.14,19.712c8.324,8.308 14.98,17.188 19.704,28.168c3.828,8.88 7.94,24.24 -1.04,33.152c-0.084,0.088 -36.792,36.808 -55.056,55.048c-4.592,4.592 -8.664,8.52 -15.672,9.3c-6.9,0.78 -12.82,-0.72 -19.02,-3.06c-12.204,-4.648 -21.78,-11.76 -30.832,-20.848Z" style="fill:none;stroke:#717171;stroke-width:9.32px;"/><path d="M182.564,96.888c-0.484,1.652 -1.312,3.092 -2.476,4.26c-7.24,7.232 -25.072,1.172 -39.804,-13.56c-14.728,-14.728 -20.788,-32.58 -13.544,-39.808c1.34,-1.32 3.036,-2.22 5.016,-2.672" style="fill:none;stroke:#717171;stroke-width:9.32px;stroke-linecap:butt;stroke-linejoin:miter;"/></g><g id="Group_29"><path d="M207.688,179.568c-53.196,-62.52 -106.324,-62.428 -159.376,0c53.052,62.46 106.18,62.52 159.376,0Z" style="fill:url(#_Radial4);stroke:#303030;stroke-width:9.44px;stroke-linecap:butt;"/><path d="M48.312,179.568l12.456,-14.82c5.084,2.912 8.516,8.46 8.516,14.82c0,6 -3.056,11.28 -7.676,14.312l-13.296,-14.312Z" style="fill:#303030;"/><path d="M69.284,181.788c16.472,14.58 37.404,28.652 58.716,28.652c25.164,0 50.332,-16.38 67.108,-40.92c-12.584,-16.352 -29.152,-35.732 -67.108,-36.812c-34.044,-0.72 -46.136,16.352 -67.104,32.732l8.388,16.348Z" style="fill:url(#_Linear5);"/></g></g></g><defs><linearGradient id="_Linear2" x1="0" y1="0" x2="1" y2="0" gradientUnits="userSpaceOnUse" gradientTransform="matrix(46.4248,49.9948,-49.9948,46.4248,130.464,50.9885)"><stop offset="0" style="stop-color:#a6a6a6;stop-opacity:1"/><stop offset="1" style="stop-color:#e7e7e7;stop-opacity:1"/></linearGradient><linearGradient id="_Linear3" x1="0" y1="0" x2="1" y2="0" gradientUnits="userSpaceOnUse" gradientTransform="matrix(-70.5812,-74.9848,74.9848,-70.5812,149.792,153.049)"><stop offset="0" style="stop-color:#ababab;stop-opacity:1"/><stop offset="1" style="stop-color:#eaeaea;stop-opacity:1"/></linearGradient><radialGradient id="_Radial4" cx="0" cy="0" r="1" gradientUnits="userSpaceOnUse" gradientTransform="matrix(121.626,0,0,-123.549,73.48,179.569)"><stop offset="0" style="stop-color:#d0d0d0;stop-opacity:1"/><stop offset="0.1" style="stop-color:#cecece;stop-opacity:1"/><stop offset="0.2" style="stop-color:#ccc;stop-opacity:1"/><stop offset="0.3" style="stop-color:#cacaca;stop-opacity:1"/><stop offset="0.4" style="stop-color:#c7c7c7;stop-opacity:1"/><stop offset="0.5" style="stop-color:#c3c3c3;stop-opacity:1"/><stop offset="0.6" style="stop-color:#bfbfbf;stop-opacity:1"/><stop offset="0.7" style="stop-color:#b8b8b8;stop-opacity:1"/><stop offset="0.8" style="stop-color:#b0b0b0;stop-opacity:1"/><stop offset="0.9" style="stop-color:#a6a6a6;stop-opacity:1"/><stop offset="1" style="stop-color:#999;stop-opacity:1"/></radialGradient><linearGradient id="_Linear5" x1="0" y1="0" x2="1" y2="0" gradientUnits="userSpaceOnUse" gradientTransform="matrix(-8.38776,-36.8176,36.8176,-8.38776,157.36,202.249)"><stop offset="0" style="stop-color:#1e1e1e;stop-opacity:1"/><stop offset="1" style="stop-color:#303030;stop-opacity:1"/></linearGradient></defs></svg>