<?xml version="1.0" encoding="UTF-8" standalone="no"?><!DOCTYPE svg PUBLIC "-//W3C//DTD SVG 1.1//EN" "http://www.w3.org/Graphics/SVG/1.1/DTD/svg11.dtd"><svg width="100%" height="100%" viewBox="0 0 256 256" version="1.1" xmlns="http://www.w3.org/2000/svg" xmlns:xlink="http://www.w3.org/1999/xlink" xml:space="preserve" xmlns:serif="http://www.serif.com/" style="fill-rule:evenodd;clip-rule:evenodd;stroke-linecap:round;stroke-linejoin:round;stroke-miterlimit:79.8403;"><rect id="Artboard1" x="0" y="0" width="256" height="256" style="fill:none;"/><clipPath id="_clip1"><rect id="Artboard11" serif:id="Artboard1" x="0" y="0" width="256" height="256"/></clipPath><g clip-path="url(#_clip1)"><g><path d="M114.043,36.91c-9.832,10.26 -6.896,26.908 -3.164,37.648c4.44,12.72 11.228,23.28 19.708,33.42c14.596,17.46 39.952,37.8 64.832,40.412c9.012,0.928 16.164,0.66 23.54,-6.3c0.124,-0.12 0.248,-0.24 0.372,-0.36c11.776,-11.7 6.388,-31.86 1.368,-43.5c-6.208,-14.432 -14.948,-26.072 -25.876,-37.02c-10.912,-10.92 -22.564,-19.652 -36.94,-25.86c-11.644,-5.04 -31.816,-10.472 -43.536,1.26c-0.108,0.088 -0.204,0.208 -0.304,0.3Zm71.86,91.708c-19.128,-1.98 -38.568,-19.348 -48.34,-33.688c-5.912,-8.672 -10.428,-16.8 -10.364,-28.14c0.096,-12.632 8.74,-18.392 20.62,-17.132c19.144,2.012 38.576,19.352 48.356,33.692c5.904,8.668 10.432,16.8 10.352,28.14c-0.084,12.628 -8.728,18.388 -20.624,17.128Z" style="fill:#a90c00;"/><path d="M185.943,128.59c11.9,1.26 20.536,-4.532 20.636,-17.132c0.072,-11.34 -4.444,-19.468 -10.344,-28.14c-9.788,-14.368 -29.224,-31.708 -48.364,-33.72c-11.892,-1.26 -20.528,4.532 -20.624,17.16c-0.08,11.312 4.436,19.44 10.348,28.112c9.772,14.34 29.208,31.708 48.348,33.72Z" style="fill:url(#_Linear2);"/><path d="M195.467,148.33c-24.876,-2.612 -50.232,-22.92 -64.832,-40.38c-8.48,-10.172 -15.28,-20.732 -19.708,-33.48c-3.744,-10.712 -6.664,-27.36 3.168,-37.62c-23.98,24 -47.952,47.968 -71.928,71.94c-5.924,5.94 -11.148,11.16 -12.28,20.248c-1.16,9.212 0.836,17.04 3.964,25.292c6.068,16.02 15.376,28.56 27.24,40.44c11.884,11.908 24.444,21.24 40.476,27.36c8.136,3.088 15.896,5.068 24.972,4.048c9.2,-1.048 14.54,-6.208 20.556,-12.24c23.972,-23.94 47.948,-47.94 71.92,-71.908c-7.388,6.988 -14.544,7.26 -23.548,6.3Z" style="fill:url(#_Linear3);"/><path d="M55.583,188.83l-2.904,-3.12c-6.588,-7.772 -12.108,-16.052 -16.404,-25.532l-1.22,-2.94l77.868,-77.88l1.756,4.292c4.176,8.82 9.592,16.68 15.956,24.3l2.756,3.06l-77.808,77.82Z" style="fill:#ffafaf;"/><path d="M61.099,194.77c-11.872,-11.88 -21.176,-24.42 -27.248,-40.472c-3.128,-8.22 -5.116,-16.048 -3.96,-25.26c1.144,-9.088 6.352,-14.308 12.276,-20.248c23.976,-23.972 72.128,-72.12 72.228,-72.212c11.728,-11.76 31.884,-6.3 43.54,-1.288c14.372,6.24 26.024,14.968 36.936,25.888c10.932,10.92 19.668,22.592 25.868,36.992c5.024,11.668 10.42,31.8 -1.364,43.5c-0.112,0.12 -48.296,48.3 -72.268,72.268c-6.028,6.032 -11.376,11.192 -20.568,12.212c-9.064,1.048 -16.836,-0.932 -24.972,-4.02c-16.02,-6.12 -28.592,-15.452 -40.468,-27.36Z" style="fill:none;stroke:#2f0000;stroke-width:9.32px;"/><path d="M205.775,117.938c-0.636,2.16 -1.724,4.052 -3.248,5.58c-9.504,9.48 -32.912,1.532 -52.252,-17.788c-19.332,-19.352 -27.284,-42.752 -17.78,-52.26c1.76,-1.74 3.988,-2.912 6.584,-3.512" style="fill:none;stroke:#190000;stroke-width:9.32px;stroke-linecap:butt;stroke-linejoin:miter;"/></g></g><defs><linearGradient id="_Linear2" x1="0" y1="0" x2="1" y2="0" gradientUnits="userSpaceOnUse" gradientTransform="matrix(63.6928,69.4832,-69.4832,63.6928,139.595,52.6887)"><stop offset="0" style="stop-color:#400000;stop-opacity:1"/><stop offset="1" style="stop-color:#ff1501;stop-opacity:1"/></linearGradient><linearGradient id="_Linear3" x1="0" y1="0" x2="1" y2="0" gradientUnits="userSpaceOnUse" gradientTransform="matrix(-92.6432,-98.43,98.43,-92.6432,162.755,191.649)"><stop offset="0" style="stop-color:#730000;stop-opacity:1"/><stop offset="1" style="stop-color:#e11100;stop-opacity:1"/></linearGradient></defs></svg>